<svg width="1em" height="1em" viewBox="0 0 1573 1127" fill="none" xmlns="http://www.w3.org/2000/svg">
<g clip-path="url(#clip0_738_9)">
<path fill-rule="evenodd" clip-rule="evenodd" d="M1159.1 36.8999C1366.9 36.8999 1535.4 272.5 1535.4 563C1535.4 853.5 1366.9 1089.1 1159.1 1089.1C951.3 1089.1 782.8 853.7 782.8 563.1C782.8 272.5 951.3 36.8999 1159.1 36.8999Z" fill="white"/>
<path d="M1159.1 0C1275.6 0 1380.2 64.8 1455.2 169.7C1527.6 270.9 1572.4 410 1572.4 563.1C1572.4 716.2 1527.6 855.3 1455.2 956.5C1380.2 1061.3 1275.6 1126.2 1159.1 1126.2C1042.6 1126.2 938 1061.4 863 956.5C790.6 855.3 745.8 716.2 745.8 563.1C745.8 410 790.7 270.9 863 169.7C938 64.8 1042.7 0 1159.1 0ZM1395.3 212.4C1334.1 126.8 1250.5 73.9 1159.2 73.9C1067.9 73.9 984.3 126.8 923.1 212.4C859.3 301.6 819.8 425.6 819.8 563.1C819.8 700.6 859.2 824.5 923 913.8C984.2 999.4 1067.8 1052.3 1159.1 1052.3C1250.4 1052.3 1334 999.4 1395.2 913.8C1459 824.6 1498.5 700.6 1498.5 563.1C1498.5 425.6 1459.1 301.6 1395.3 212.4Z" fill="black" fill-opacity="0" />
<path fill-rule="evenodd" clip-rule="evenodd" d="M993.2 302C1114 302 1211.9 418.9 1211.9 563.1C1211.9 707.3 1114 824.2 993.2 824.2C872.4 824.2 774.5 707.3 774.5 563.1C774.6 418.9 872.5 302 993.2 302Z" fill="black"/>
<path fill-rule="evenodd" clip-rule="evenodd" d="M1106.2 297.8C1155.3 297.8 1195.1 337.2 1195.1 385.7C1195.1 434.3 1155.3 473.6 1106.2 473.6C1057.1 473.6 1017.3 434.2 1017.3 385.7C1017.3 337.1 1057.1 297.8 1106.2 297.8Z" fill="white"/>
<path fill-rule="evenodd" clip-rule="evenodd" d="M413.3 36.8999C621.1 36.8999 789.6 272.5 789.6 563C789.6 853.5 621.1 1089.1 413.3 1089.1C205.5 1089.1 37 853.5 37 563C37 272.5 205.4 36.8999 413.3 36.8999Z" fill="white"/>
<path d="M413.3 0C529.8 0 634.4 64.8 709.4 169.7C781.8 270.9 826.5 410 826.5 563.1C826.5 716.2 781.7 855.3 709.4 956.5C634.4 1061.3 529.8 1126.2 413.3 1126.2C296.8 1126.2 192.2 1061.4 117.2 956.5C44.8 855.3 0 716.1 0 563.1C0 410.1 44.8 270.9 117.2 169.7C192.1 64.8 296.8 0 413.3 0ZM649.4 212.4C588.2 126.8 504.6 73.9 413.3 73.9C322 73.9 238.4 126.8 177.2 212.4C113.3 301.6 73.8 425.6 73.8 563.1C73.8 700.6 113.3 824.6 177.1 913.8C238.3 999.4 321.9 1052.3 413.2 1052.3C504.5 1052.3 588.1 999.4 649.3 913.8C713.1 824.6 752.6 700.6 752.6 563.1C752.6 425.6 713.2 301.6 649.4 212.4Z" fill="black" fill-opacity="0" />
<path fill-rule="evenodd" clip-rule="evenodd" d="M247.3 302C368.1 302 466 418.9 466 563.1C466 707.3 368.1 824.2 247.3 824.2C126.5 824.2 28.6001 707.3 28.6001 563.1C28.7001 418.9 126.6 302 247.3 302Z" fill="black"/>
<path fill-rule="evenodd" clip-rule="evenodd" d="M360.3 297.8C409.4 297.8 449.2 337.2 449.2 385.7C449.2 434.3 409.4 473.6 360.3 473.6C311.2 473.6 271.4 434.2 271.4 385.7C271.4 337.1 311.2 297.8 360.3 297.8Z" fill="white"/>
</g>
<defs>
<clipPath id="clip0_738_9">
<rect width="1572.4" height="1126.1" fill="white"/>
</clipPath>
</defs>
</svg>
