<?xml version="1.0" encoding="utf-8"?>
<!-- Generator: Adobe Illustrator 27.2.0, SVG Export Plug-In . SVG Version: 6.00 Build 0)  -->
<svg version="1.1" id="Layer_1" xmlns="http://www.w3.org/2000/svg" xmlns:xlink="http://www.w3.org/1999/xlink" x="0px" y="0px"
	 viewBox="0 0 180 134" style="enable-background:new 0 0 180 134;" xml:space="preserve">
<g>
	<path d="M47.4,103.5c-0.4-0.5-0.9-1-1.6-1.3c-0.7-0.4-1.5-0.6-2.4-0.8l-0.3-0.1l0.3-0.2c0.9-0.6,1.6-1.3,2.1-2.1
		c0.5-0.8,0.7-1.9,0.7-3.2c0-2.1-0.6-3.7-1.8-4.8c-1.2-1.1-3-1.7-5.3-1.7h-9.8v25.4h10.6c1.3,0,2.6-0.2,3.6-0.5
		c1.1-0.3,2-0.8,2.7-1.4s1.3-1.4,1.7-2.3s0.6-2,0.6-3.1c0-0.8-0.1-1.5-0.3-2.1C48.1,104.6,47.8,104,47.4,103.5z M35.7,94.2H37
		c2.2,0,3.3,0.9,3.3,2.6s-1.1,2.6-3.3,2.6h-1.3V94.2z M40.9,109.2c-0.7,0.4-2,0.7-3.7,0.7h-1.6v-5.7h1.6c1.7,0,2.9,0.2,3.7,0.7
		s1.2,1.2,1.2,2.2C42.1,108,41.7,108.7,40.9,109.2z" fill="currentColor"/>
	<rect x="53.6" y="89.4" width="6.4" height="25.4" fill="currentColor"/>
	<path d="M85.3,103.5c-0.4-0.5-0.9-1-1.6-1.3c-0.7-0.4-1.5-0.6-2.4-0.8l-0.3-0.1l0.3-0.2c0.9-0.6,1.6-1.3,2.1-2.1
		c0.5-0.8,0.7-1.9,0.7-3.2c0-2.1-0.6-3.7-1.8-4.8c-1.2-1.1-3-1.7-5.3-1.7h-9.8v25.4h10.6c1.3,0,2.6-0.2,3.6-0.5
		c1.1-0.3,2-0.8,2.7-1.4s1.3-1.4,1.7-2.3c0.4-0.9,0.6-2,0.6-3.1c0-0.8-0.1-1.5-0.3-2.1C86,104.6,85.7,104,85.3,103.5z M73.6,94.2
		h1.3c2.2,0,3.3,0.9,3.3,2.6s-1.1,2.6-3.3,2.6h-1.3V94.2z M78.8,109.2c-0.7,0.4-2,0.7-3.7,0.7h-1.6v-5.7h1.6c1.7,0,2.9,0.2,3.7,0.7
		c0.8,0.5,1.2,1.2,1.2,2.2C80,108,79.6,108.7,78.8,109.2z"/>
	<polygon points="97.9,89.4 91.5,89.4 91.5,114.8 105.9,114.8 105.9,109.4 97.9,109.4 	" fill="currentColor"/>
	<rect x="111.2" y="89.4" width="6.4" height="25.4" fill="currentColor"/>
	<path d="M149.7,96.8c-0.7-1.6-1.7-3.1-2.9-4.3c-1.2-1.2-2.7-2.2-4.5-2.8c-1.7-0.7-3.6-1-5.7-1c-2.1,0-4,0.3-5.7,1s-3.2,1.6-4.4,2.8
		c-1.2,1.2-2.2,2.6-2.9,4.3c-0.7,1.6-1,3.4-1,5.3s0.4,3.7,1,5.3c0.7,1.6,1.7,3.1,2.9,4.3c1.2,1.2,2.7,2.2,4.4,2.8
		c1.7,0.7,3.6,1,5.7,1c2,0,3.9-0.3,5.7-1c1.7-0.7,3.2-1.6,4.5-2.8c1.2-1.2,2.2-2.6,2.9-4.3c0.7-1.6,1-3.4,1-5.3
		C150.8,100.2,150.4,98.4,149.7,96.8z M143.4,104.9c-0.4,0.9-0.9,1.6-1.6,2.3c-0.7,0.6-1.5,1.1-2.4,1.5s-1.8,0.5-2.8,0.5
		s-1.9-0.2-2.8-0.5c-0.9-0.4-1.7-0.9-2.3-1.5c-0.7-0.6-1.2-1.4-1.6-2.3c-0.4-0.9-0.6-1.8-0.6-2.9c0-1,0.2-2,0.6-2.9
		c0.4-0.9,0.9-1.6,1.6-2.3c0.7-0.6,1.5-1.1,2.3-1.5c0.9-0.4,1.8-0.5,2.8-0.5s1.9,0.2,2.8,0.5c0.9,0.4,1.7,0.9,2.4,1.5
		s1.2,1.4,1.6,2.3c0.4,0.9,0.6,1.8,0.6,2.9S143.8,104.1,143.4,104.9z" fill="currentColor"/>
	<path d="M59.5,18.5c-3.3,0-5.9,0.4-5.9,0.9v48.7c0,0.5,2.7,0.9,5.9,0.9c3.3,0,5.9-0.4,5.9-0.9V19.4C65.5,18.9,62.8,18.5,59.5,18.5z
		" fill="currentColor"/>
	<path d="M97.9,68.1V23.8c0-0.5-2.2-0.9-4.9-0.9s-5,0.4-5,0.9v44.4c0,0.5,2.2,0.9,4.9,0.9S97.9,68.6,97.9,68.1z" fill="currentColor"/>
	<path d="M76.8,69c3.9,0,7-0.4,7-0.9V31.7c0-0.5-3.1-0.9-7-0.9s-7,0.4-7,0.9v36.4C69.8,68.6,72.9,69,76.8,69z" fill="currentColor"/>
	<path d="M123.4,65.8l-8.5-36.6c-0.1-0.5-3.4-0.1-7.4,0.8s-7.1,2-7,2.5l8.5,36.6c0.1,0.5,3.4,0.1,7.4-0.8S123.5,66.2,123.4,65.8z" fill="currentColor"/>
</g>
</svg>
