<?xml version="1.0" encoding="utf-8"?>
<!-- Generator: Adobe Illustrator 27.2.0, SVG Export Plug-In . SVG Version: 6.00 Build 0)  -->
<svg version="1.1" id="Layer_1" xmlns="http://www.w3.org/2000/svg" xmlns:xlink="http://www.w3.org/1999/xlink" x="0px" y="0px"
	 viewBox="0 0 405 270" style="enable-background:new 0 0 405 270;" xml:space="preserve">
<path d="M380.6,130.8c-23.9-34.6-47.9-69.2-71.8-103.7c-11.5-16.6-32.1-23.5-51.1-17.3c-19,6.3-31.5,24.3-30.8,44.5
	c0.1,3.2,0,6.3,0,9.5c-6.3-3.6-13.6-5.7-21.4-5.7c-9.2,0-17.7,2.9-24.8,7.8c-0.6-0.3-1.1-0.7-1.6-1.1c-0.3,0.1-0.6,0.3-0.9,0.4
	c0-3.8-0.1-7.7,0-11.5c0.9-28.6-25.4-51-53.4-45.4c-12.9,2.6-22.5,9.8-29.8,20.5C71.8,62.5,48.6,95.9,25.4,129.3
	C10.4,151,6,174.7,12.7,200.2c10.8,41.1,51,67.4,93.4,61.3c39.2-5.6,69.5-38.2,71.7-77.6c0.2-4.4,0.3-8.7,0.4-13.1
	c6.9,4.7,15.3,7.5,24.3,7.5c9.1,0,17.5-2.8,24.5-7.5c0,6.9,0.1,13.8,1.1,20.5c7,45.8,49.3,76.8,95.1,70.2
	C384.6,252.8,415.8,181.7,380.6,130.8z M93.6,237c-32.4-0.2-58.5-26.5-58.4-59c0.1-32.5,26.5-58.6,59.2-58.4
	c32.2,0.1,58.4,26.6,58.3,58.9C152.6,211,126.1,237.2,93.6,237z M202.5,155.7c-9.1,0-17-5.4-20.7-13.2c-0.8-1.8-1.5-3.7-1.8-5.8
	c-0.2-1.2-0.3-2.5-0.3-3.8c0-12.6,10.2-22.8,22.8-22.8s22.8,10.2,22.8,22.8c0,2.8-0.5,5.5-1.4,8c-0.2,0.6-0.5,1.1-0.7,1.7
	C219.5,150.3,211.6,155.7,202.5,155.7z M311,237c-32.5,0-58.8-26.4-58.7-58.9c0.1-32.4,26.5-58.6,58.9-58.5
	c32.4,0.1,58.6,26.4,58.6,58.8C369.7,210.8,343.5,237,311,237z"/>
</svg>
