<svg width="250" height="250" viewBox="0 0 250 250" fill="none" xmlns="http://www.w3.org/2000/svg">
<path d="M52.25 62.5C44 62.5 37.5 63.5 37.5 64.75V186.5C37.5 187.75 44.25 188.75 52.25 188.75C60.5 188.75 67 187.75 67 186.5V64.75C67.25 63.5 60.5 62.5 52.25 62.5Z" fill="#f1f1f1"/>
<path d="M148.25 186.5V75.7498C148.25 74.4998 142.75 73.4998 136 73.4998C129.25 73.4998 123.5 74.4998 123.5 75.7498V186.75C123.5 188 129 189 135.75 189C142.5 189 148.25 187.75 148.25 186.5Z" fill="#f1f1f1"/>
<path d="M95.499 188.75C105.249 188.75 112.999 187.75 112.999 186.5V95.5C112.999 94.25 105.249 93.25 95.499 93.25C85.749 93.25 77.999 94.25 77.999 95.5V186.5C77.999 187.75 85.749 188.75 95.499 188.75Z" fill="#f1f1f1"/>
<path d="M212 180.75L190.75 89.2501C190.5 88.0001 182.25 89.0001 172.25 91.2501C162.25 93.5001 154.5 96.2501 154.75 97.5001L176 189C176.25 190.25 184.5 189.25 194.5 187C204.5 184.75 212.25 181.75 212 180.75Z" fill="#f1f1f1"/>
</svg>
