<?xml version="1.0" encoding="utf-8"?>
<!-- Generator: Adobe Illustrator 27.2.0, SVG Export Plug-In . SVG Version: 6.00 Build 0)  -->
<svg version="1.1" id="Layer_1" xmlns="http://www.w3.org/2000/svg" xmlns:xlink="http://www.w3.org/1999/xlink" x="0px" y="0px"
	 viewBox="0 0 316.96 150.35" style="enable-background:new 0 0 316.96 150.35;" xml:space="preserve">
<g>
	<g>
		<g>
			<g>
				<g>
					<path d="M83.63,83.63c1.82,3.25,3.47,6.62,4.47,10.22c0.49,1.75,0.81,3.55,1.01,5.35c0.15,1.32,0.13,2.73-0.9,3.71
						c-1.14,1.09-2.45,0.95-3.89,0.73c-2.22-0.34-4.99-1.85-5.68-2.53c0,0,3.79-2.5,4.18-3.79c0.25-0.83,0.25-1.73-0.41-2.36
						c-1.24-1.18-3.19-1.21-4.78-1.14c-2,0.08-4.19,0.63-4.8,1.04c-0.61,0.41-1.38,1.43-0.76,2.55c0.62,1.13,3.91,3.68,3.91,3.68
						s-1.85,2.01-5.78,3.21c-2.37,0.72-4.47,0.35-5.98-1.04c-1.51-1.38-1.66-4.46-1.15-5.99c0.34-1.02,0.76-2.02,1.17-3.02
						c0.54-1.34,1.11-2.67,1.7-3.99c0.56-1.25,1.15-2.48,1.79-3.7c0.59-1.13,1.21-2.28,2.03-3.27c0.28-0.34,0.6-0.65,0.94-0.93
						c1.8-1.35,3.49-1.67,6.2-1.81C79.6,80.42,82.27,81.2,83.63,83.63 M82.15,107.5c-1.02,0.87-2.5,1.05-3.79,1.11
						c-1.6,0.08-3.22,0.01-4.8-0.25c-1.26-0.21-2.57-0.4-3.52-1.31c-0.04-0.04-0.68-0.79-0.67-0.8c0,0,1.35-0.59,2.8-1.25
						c1.46-0.66,3.65-1.57,5.65-1.42c3.23,0.25,6.15,1.79,6.15,1.79C83.44,106.13,82.86,106.9,82.15,107.5 M64.21,78.44
						c0.87-0.04,1.29,0.43,1.45,0.56c0.16,0.13,0.57,0.48,0.5,1.1c-0.07,0.62-0.97,1.65-1.73,1.64c-0.76,0-1.46,0-1.71-1.28
						C62.51,79.44,63.54,78.47,64.21,78.44 M64.04,75.72c1.2-0.06,2.28,0.1,2.28,0.1v1.44c0,0-1.75-0.01-2.48,0.03
						c-0.73,0.04-2.92,0.31-2.92,0.31C61.8,76.5,62.94,75.77,64.04,75.72 M62.74,59.19l-3.2-29.95c1.79-0.64,5.15-0.67,5.15-0.67
						l0.59,30.62H62.74z M105.42,90.77c-1.7-4.96-4.06-8.17-3.95-9.12c0.24-2.16,2.67-5.48,2.4-7.78c-0.27-2.3-1.76-3.62-1.76-3.62
						s3.33-4.56,2.64-7.11c-0.69-2.55-3.36-3.06-4.5-3.11c-1.14-0.05-7.8-0.47-7.8-0.47s1.84-19.17,2.46-25.92
						c0.63-6.76,0.26-7.42-0.06-8.34c-0.33-0.93-8.34-2.04-20.83-1.64c-12.5,0.4-21.89,2.98-22.44,3.81
						c-0.55,0.84-0.19,2.87,0.59,6.56c0.66,3.09,3.19,21.13,4,26.9c1.41,0.66,3.42,1.25,6.24,1.45c6.7,0.48,19.04,0.44,22.18,0.33
						l3.14-0.11c0,0-3.38,0.84-12.07,1.43c-8.69,0.6-15.29,0.18-17.51-0.32c-0.92-0.21-1.98-0.76-2.92-1.33
						c-2.18-0.57-6.81-1.63-8.98-0.93c-1.32,0.43-4.25,1.84-2.61,5.16s2.5,4.08,2.5,4.08s-1.09,2.03-0.6,4.01
						c0.63,2.51,2.8,4.22,2.4,7.04c0,0,0.43,0.25-1.88,5.31c-2.3,5.06-2.56,7.73-2.64,8.69c-0.08,0.96,0.02,1.35,0.02,1.35
						l2.12-0.69c0,0-0.98,4.97-0.84,7.89c0.14,2.92,1.22,5.03,2.28,6.33l1.79-1.42c0,0,2.8,5.82,5.46,7.71
						c2.66,1.89,2.38,1.46,2.38,1.46l1.67-2.7c0,0,7.96,7.18,12.15,8.96c4.2,1.78,4.71,2.11,6.48,2.09s3.88-1.16,6.84-3.2
						c2.95-2.04,5.7-4.95,5.7-4.95s0.83-3.47,1.27-5.95c0.61-3.44,1.04-12.2,1.04-12.2c0.29-6.34,0.44-11.1-0.09-15.77
						c-0.7,0.14-1.2,0.34-2.65,0.22c-1.32-0.11-2.64-0.62-3.7-1.41c-1.7-1.26-2.81-3.29-3.06-5.38c-0.71-5.82,5.7-9.64,10.7-6.93
						c1.5,0.81,2.71,2.18,3.26,3.8c0.97,2.89-0.11,6.33-2.17,8.47c-0.8,0.82-0.83,0.79-0.83,0.79s0.66,10.41,0.34,16.17
						c-0.32,5.76-1.48,15.06-1.48,15.06l-0.19,1.67l3.02,1.64c0,0,2.11-0.83,3.74-3.5c1.93-3.17,2.66-5.42,2.66-5.42l2.12,0.94
						c0,0,1.2-2.36,1.65-4.56c0.76-3.73-0.51-9.23-0.51-9.23l2.18,0.87C106.78,97.87,107.12,95.73,105.42,90.77"/>
					<path d="M93.86,75.86c-0.39-1.26-1.4-2.28-2.61-2.8c-0.83-0.35-1.65-0.49-2.41-0.44c-2.76,0.17-4.83,2.73-4.54,5.83
						c0.13,1.38,0.8,2.73,1.93,3.54c0.79,0.57,1.77,0.85,2.74,0.87c1.25,0.03,2.53-0.38,3.42-1.25c0.73-0.71,1.17-1.68,1.42-2.67
						C94.07,77.94,94.16,76.86,93.86,75.86"/>
				</g>
			</g>
		</g>
	</g>
	<g>
		<path d="M134.91,54.56h-9.34c-1.09,0-1.59,0.51-1.59,1.59v0.04V96.9v0.04c0,1.09,0.51,1.59,1.59,1.59h9.34
			c5.51,0,7.2-5.97,7.2-10.81v-4.92V70.29v-4.92C142.11,60.53,140.42,54.56,134.91,54.56z M133,91.61c-0.85,0-1.45-0.28-1.8-0.8
			c-0.01-0.02-0.03-0.03-0.04-0.05c-0.02-0.03-0.03-0.07-0.05-0.1c-0.16-0.32-0.24-0.72-0.22-1.19l-0.02-12.91l0.02-12.91
			c-0.02-0.47,0.06-0.87,0.22-1.19c0.02-0.03,0.03-0.07,0.05-0.1c0.01-0.02,0.03-0.03,0.04-0.05c0.35-0.53,0.95-0.8,1.8-0.8
			c2.18,0,2.14,2.93,2.14,4.33l0.03,10.73l-0.03,10.73C135.15,88.68,135.18,91.61,133,91.61z"/>
		<path d="M212.72,54.56h-9.34c-1.09,0-1.59,0.51-1.59,1.59v0.04V96.9v0.04c0,1.09,0.51,1.59,1.59,1.59h9.34
			c5.51,0,7.2-5.97,7.2-10.81v-4.92V70.29v-4.92C219.92,60.53,218.23,54.56,212.72,54.56z M210.81,91.61c-0.85,0-1.45-0.28-1.8-0.8
			c-0.01-0.02-0.03-0.03-0.04-0.05c-0.02-0.03-0.03-0.07-0.05-0.1c-0.16-0.32-0.24-0.72-0.22-1.19l-0.02-12.91l0.02-12.91
			c-0.02-0.47,0.06-0.87,0.22-1.19c0.02-0.03,0.03-0.07,0.05-0.1c0.01-0.02,0.03-0.03,0.04-0.05c0.35-0.53,0.95-0.8,1.8-0.8
			c2.18,0,2.14,2.93,2.14,4.33l0.03,10.73l-0.03,10.73C212.96,88.68,212.99,91.61,210.81,91.61z"/>
		<path d="M195.01,56.12c0-1.08-0.46-1.56-1.48-1.56h-3.55c-1.04,0-1.52,0.51-1.52,1.59v20.3c0,1.67-0.11,1.97-0.43,2
			c-0.3,0.03-0.47-0.14-0.86-1.94c-0.5-2.3-2.12-7.77-4.86-20.45c-0.22-1.01-0.89-1.5-2.05-1.5h-5.53c-1.09,0-1.59,0.51-1.59,1.59
			v40.78c0,1.1,0.47,1.59,1.52,1.59h3.55c1.02,0,1.48-0.49,1.48-1.59V73.37c0-1.99,0.12-2.2,0.43-2.23c0.02,0,0.03,0,0.05,0
			c0.28,0,0.44,0.27,0.81,2.19c0.5,2.62,2.12,9.08,4.86,23.46c0.23,1.2,0.89,1.76,2.08,1.76h5.53c1.06,0,1.56-0.49,1.56-1.56V56.12z
			"/>
		<path d="M232.98,56.2c0-1.11-0.51-1.63-1.59-1.63h-3.74c-1.09,0-1.59,0.52-1.59,1.63v40.75c0,1.09,0.51,1.59,1.59,1.59h3.74
			c1.09,0,1.59-0.51,1.59-1.59V56.2z"/>
		<path d="M252,93.21c0-1.09-0.49-1.59-1.56-1.59h-1.87c-1.43,0-2.18-0.74-2.18-2.14v-7.38c0-1.4,0.74-2.14,2.14-2.14
			c1.09,0,1.59-0.51,1.59-1.59v-3.74c0-1.09-0.51-1.59-1.59-1.59c-1.4,0-2.14-0.74-2.14-2.14v-7.21c0-1.43,0.75-2.18,2.18-2.18h1.83
			c1.09,0,1.59-0.51,1.59-1.59v-3.74c0-1.09-0.49-1.59-1.56-1.59h-9.38c-1.09,0-1.59,0.52-1.59,1.63v40.75
			c0,1.09,0.51,1.59,1.59,1.59h9.38c1.06,0,1.56-0.51,1.56-1.59V93.21z"/>
		<path d="M274.47,80.29c0-4.84-2.35-7.2-7.2-7.2h-1.87c-1.4,0-2.14-0.74-2.14-2.14v-7.35c0-1.38,0.74-2.1,2.14-2.1
			c1.4,0,2.14,0.74,2.14,2.14v3.54c0,1.11,0.49,1.63,1.56,1.63h3.77c1.09,0,1.59-0.51,1.59-1.59v-5.45c0-4.84-2.35-7.2-7.2-7.2
			h-3.74c-4.84,0-7.2,2.35-7.2,7.2v11.05c0,4.84,2.35,7.2,7.2,7.2h1.87c1.4,0,2.14,0.74,2.14,2.14v7.32c0,1.4-0.74,2.14-2.14,2.14
			c-1.4,0-2.14-0.74-2.14-2.14v-3.58c0-1.09-0.51-1.59-1.59-1.59h-3.74c-1.09,0-1.59,0.51-1.59,1.59v5.45c0,4.84,2.35,7.2,7.2,7.2
			h3.74c4.84,0,7.2-2.35,7.2-7.2V80.29z"/>
		<path d="M158.82,54.56h-3.05c-4.17,0-7.54,3.38-7.54,7.54V96.6c0,1.07,0.87,1.94,1.94,1.94h3.05c1.07,0,1.94-0.87,1.94-1.94v-9.84
			c0-0.34,0.21-0.64,0.53-0.75l3.01-1.06c0.36-0.13,0.75,0.14,0.75,0.53v4.45v6.66c0,1.07,0.87,1.94,1.94,1.94h3.05
			c1.07,0,1.94-0.87,1.94-1.94V62.11C166.37,57.94,162.99,54.56,158.82,54.56z M155.9,78c-0.35,0.12-0.71-0.14-0.71-0.5v-9.13
			l0-4.38c0-1.52,1.38-2.78,2.85-2.43c0.94,0.22,1.43,0.92,1.43,2.07l-0.04,12.62c0,0.3-0.19,0.57-0.48,0.67L155.9,78z"/>
	</g>
</g>
</svg>
