<svg width="136" height="24" fill="none" xmlns="http://www.w3.org/2000/svg" class="cursor-pointer" href="/nfts/top-projects"><path d="M35.21 19.736h2.487c.198 0 .33-.132.33-.33v-5.854h5.656v5.854c0 .198.132.33.33.33H46.5c.198 0 .33-.132.33-.33V4.66c0-.198-.132-.33-.33-.33h-2.487c-.198 0-.33.132-.33.33v6.118h-5.656V4.66c0-.198-.132-.33-.33-.33H35.21c-.198 0-.33.132-.33.33v14.746c0 .198.132.33.33.33ZM53.91 20c1.518 0 2.905-.44 3.83-1.364.197-.177.22-.33.11-.485l-.815-1.122c-.11-.154-.22-.176-.374-.088-.88.506-1.673.66-2.51.66-1.738 0-2.86-.748-3.19-2.113h6.558c.946 0 1.188-.594 1.188-1.65 0-2.73-1.892-5.15-5.172-5.15-3.323 0-5.546 2.443-5.546 5.612 0 3.257 2.377 5.7 5.92 5.7Zm-2.993-6.646c.264-1.431 1.298-2.157 2.64-2.157 1.299 0 2.267.726 2.443 2.157h-5.084ZM59.977 19.736h2.399c.198 0 .33-.132.33-.33V4.33c0-.198-.132-.33-.33-.33h-2.399c-.198 0-.33.132-.33.33v15.076c0 .198.132.33.33.33ZM64.55 19.736h2.4c.198 0 .33-.132.33-.33V4.33c0-.198-.132-.33-.33-.33h-2.4c-.197 0-.33.132-.33.33v15.076c0 .198.133.33.33.33ZM73.9 20c3.235 0 5.634-2.465 5.634-5.656S77.135 8.688 73.9 8.688c-3.257 0-5.656 2.465-5.656 5.656S70.643 20 73.9 20Zm-2.729-5.656c0-1.76 1.188-2.861 2.729-2.861 1.519 0 2.707 1.1 2.707 2.86 0 1.762-1.188 2.862-2.707 2.862-1.54 0-2.729-1.1-2.729-2.861ZM84.23 19.736h2.487c.198 0 .33-.132.33-.33v-9.178l.286.947 3.257 8.297c.066.176.22.264.397.264h2.2c.176 0 .33-.088.397-.264l3.257-8.297.286-.947v9.178c0 .198.132.33.33.33h2.487c.198 0 .33-.132.33-.33V4.66c0-.198-.132-.33-.33-.33H97.06c-.176 0-.308.066-.374.22l-4.6 11.555-4.6-11.555c-.066-.154-.198-.22-.374-.22H84.23c-.198 0-.33.132-.33.33v14.746c0 .198.132.33.33.33ZM107.093 20c3.235 0 5.634-2.465 5.634-5.656s-2.399-5.656-5.634-5.656c-3.257 0-5.656 2.465-5.656 5.656S103.836 20 107.093 20Zm-2.729-5.656c0-1.76 1.188-2.861 2.729-2.861 1.519 0 2.707 1.1 2.707 2.86 0 1.762-1.188 2.862-2.707 2.862-1.541 0-2.729-1.1-2.729-2.861ZM118.781 20c3.235 0 5.634-2.465 5.634-5.656s-2.399-5.656-5.634-5.656c-3.258 0-5.657 2.465-5.657 5.656S115.523 20 118.781 20Zm-2.729-5.656c0-1.76 1.188-2.861 2.729-2.861 1.518 0 2.707 1.1 2.707 2.86 0 1.762-1.189 2.862-2.707 2.862-1.541 0-2.729-1.1-2.729-2.861ZM125.692 19.736h2.377c.198 0 .33-.132.33-.33v-5.59c0-1.519.837-2.333 2.113-2.333 1.299 0 2.003.814 2.003 2.333v5.59c0 .198.132.33.33.33h2.355c.198 0 .352-.132.352-.33v-6.273c0-2.817-1.651-4.445-3.895-4.445-1.607 0-2.641.792-3.258 1.893l-.088-1.277c0-.264-.132-.352-.33-.352h-2.289c-.198 0-.33.132-.33.33v10.124c0 .198.132.33.33.33Z" fill="#E4E5E7"></path><g clip-path="url(#HelloMoon_svg__a)"><path d="M15.853 16.75H15.4v.448h.453v-.447Z" fill="#EAEAEA"></path><path d="M16.773 15.846h-.463v.444h.463v-.444ZM21.296 16.75v-.46h-.448v-.897h-.91v-.452h-.912v.905h-1.353v.905h-.45v.447h-.45v1.354h-.46v-.436h-.905v.436h-.906v1.362h-.452v.908h-.461v.447h-.45v-.447h-.91v1.354h-.902v.456h-.895v-.45h-.914v-.461H8.157v.91h.453v.453h-.453v.453H9.97v.452H14.5l.003-.456h1.36v-.444l.904-.004-.002-.453h.907v-.452h.907v-.453h.453v-.452h.906v-.453h-1.363v.456h-.451v.452h-.46v-.452h.46v-.456h-.902v-.908h-.45v.456h-.46v-.456h.46v-.449s2.264.01 2.255 0c-.01-.009 0 .903 0 .903h.448v-2.26h1.37v-.46h-.449v-.453h-.002v-.444h.901ZM15.4 19.915h-.447v-.449l.447-.002v.45Zm1.373.908v.456h.441v.904h-.44v-.904h-.462v-.456h.461ZM15.4 16.3v.452h-.447V16.3h.447Z" fill="#fff"></path><path d="M3.17 14.04H2.72v.448h-.907v-.904h1.354l.004.457Z" fill="#959595"></path><path d="M11.332 2.272v.459h-.458v.452h-.905v-.452H8.618v-.459h.901v-.448h1.36v.448h.453Z" fill="#fff"></path><path d="M13.142.458h-2.264v.461h2.264V.458Z" fill="#EAEAEA"></path><path d="M8.61 22.632h-.453v.453h.453v-.453ZM.454 14.488H.453Z" fill="#959595"></path><path d="M5.887 18.561v.451H3.624v-.452h-.452v-.903h-.453v-.907h-.454v-1.357h-.453v-.46H1.36v-.445h.007V12.68h.446v1.81h.907v.904h.453v1.81h.905v.454h.452v.451h.453v.453h.905ZM9.518 19.923h-.454v.448h.454v-.448Z" fill="#888"></path><path d="M8.163 20.822h-.909v.454h.91v-.454Z" fill="#ADADAD"></path><path d="M8.151 20.365h-.443v.458h.443v-.458Z" fill="#B4B4B4"></path><path d="M8.157 22.632H7.25v.452h.907v-.452Z" fill="#fff"></path><path d="m7.252 22.18-.002.453-.905-.003v-.452l.907.003ZM6.344 21.727h-.906v.453h.906v-.453ZM4.532 20.37h-.907v.453h.907v-.453ZM5.438 21.275h-.453v.453h.453v-.453Z" fill="#fff"></path><path d="M4.985 20.822h-.453v.454h.453v-.454ZM3.625 19.917h-.453v.454h.453v-.454ZM2.719 18.56h-.454v.453h.454v-.453ZM1.812 17.203H1.36v.453h.453v-.453ZM3.172 19.012h-.453v.905h.453v-.905Z" fill="#fff"></path><path d="M2.265 17.655h-.453v.905h.453v-.905ZM1.36 15.846H.905v1.357h.453v-1.357ZM.906 14.489H.454v1.357h.452v-1.357ZM.453 9.512H0v4.976h.453V9.512Z" fill="#fff"></path><path d="M9.518 20.37v.452h-.456v.899h-.905v.91H7.25l.002-.45-.907-.003v-.45h-.907v-.453h-.453v-.453h-.453v-.452h-.907v-.453h-.453v-.905h-.453v-.452h-.454v-.905h-.453v-.452H1.36v-1.357H.906v-1.357H.454v-.001H.453V9.512h.915v4.976h-.009v.445h.453v.46h.453v1.357h.454v.907h.453v.903h.452v.452h2.263v.453h1.821v1.357h-.454v.453h.91v-.453h.444v-.452h.91Z" fill="#959595"></path><path d="M11.327 20.37v.905h-.905v.446h-1.36v-.899h.456v-.452h1.809Z" fill="#888"></path><path d="M12.23 20.822v1.354h-.903v.456h-.895v-.45h-.914v-.461h.904v-.446h.905v-.453h.902Z" fill="#959595"></path><path d="M11.327 20.37v-2.254h-1.81v-.461h-.453v1.357h.905v.456h-.905v.455h.454v.447h1.809Z" fill="#7F7F7F"></path><path d="M9.518 19.012h-.454v.457h.454v-.457Z" fill="#C4C4C4"></path><path d="M9.969 19.012h-.451v.457h.451v-.457Z" fill="#ADADAD"></path><path d="M13.139 20.37v.452h-1.36v-1.354h.45v.448h.455v.454h.455Z" fill="#7F7F7F"></path><path d="M11.78 19.468h-.453v1.354h.453v-1.354Z" fill="#868686"></path><path d="M13.589 20.822h-.45v.448h.45v-.448Z" fill="#959595"></path><path d="M14.05 20.37v.452h-.911v-.452h-.455v-.454h-.455v-.448h-.902v-1.352h-1.81v-.461h-.453v-.453h-.457v-.45h.457v-1.81h.454v-.454h.451v3.167h.454v-2.26h.454v.453h.449v.445h.454v2.72h1.362v.9h.453v.457h.455Z" fill="#919191"></path><path d="M8.151 19.465h-.443v.9h.443v-.9ZM7.708 19.012h-.466v.454h.466v-.454ZM7.242 18.562H6.79v.45h.452v-.45Z" fill="#A6A6A6"></path><path d="M6.79 18.105h-.445v.458h.445v-.458Z" fill="#969696"></path><path d="M6.345 18.105h-.458v.457h.458v-.457Z" fill="#C9C9C9"></path><path d="M5.887 18.561v.904h1.355v-.453H6.79v-.45h-.903Z" fill="#7F7F7F"></path><path d="M9.064 20.37v-2.262h-.457v.905h-.444v-.453H7.71v.905h.442v1.357h.457v-.452h.456Z" fill="#fff"></path><path d="M8.607 18.561h-.444v.453h.444v-.453Z" fill="#C4C4C4"></path><path d="M8.607 18.108h-.444v.454h.444v-.454Z" fill="#B0B0B0"></path><path d="M9.064 17.202h-.457v.906h.457v-.906ZM7.709 18.56v-.452h.454v.454l-.454-.001Z" fill="#C4C4C4"></path><path d="M7.708 18.108h-.466v.904h.466v-.904Z" fill="#EAEAEA"></path><path d="M7.242 18.108H6.79v.455h.452v-.455Z" fill="#DFDFDF"></path><path d="M6.345 18.106v-.451s.426-.019.445 0c.02.019 0 .453 0 .453l-.445-.002Z" fill="#909090"></path><path d="M7.242 17.655H6.79v.453h.452v-.453Z" fill="#ADADAD"></path><path d="M7.708 17.655h-.466v.453h.466v-.453ZM8.163 17.655H7.71v.453h.454v-.453Z" fill="#B0B0B0"></path><path d="M9.518 14.488v.453h-.454v1.81h-.457v1.357h-.444v-.453H6.345v.45h-.458v.456h-.905v-.453H4.53v-.451h.456v-.455H4.53v-.906h-.906v-.901h-.45l-.454-.002v-1.352h.451l-.004-.457v-.005h.457V12.22h.46l-.008-.453h.459l-.005-.441h.914v-.458h-.458V9.512h.458v.903h.454V9.97l.9-.005v.454l.46-.004v.454h-.918v.903h-.442l-.01 2.265h2.27v-.453h.45v.453l.455.004v.447h.456Z" fill="#7F7F7F"></path><path d="M4.985 13.133H4.53v.45h.455v-.45Z" fill="#969696"></path><path d="M6.79 14.945H5.436v.45H6.79v-.45Z" fill="#909090"></path><path d="M7.25 14.488h-.46v.459h.46v-.459Z" fill="#969696"></path><path d="M7.709 14.488h-.46v.459h.46v-.459Z" fill="#C9C9C9"></path><path d="M8.158 14.488h-.45v.459h.45v-.459Z" fill="#969696"></path><path d="M8.607 14.488h-.45v.459h.45v-.459ZM3.172 15.393v.454h.45v-.452l-.45-.002Z" fill="#C9C9C9"></path><path d="M4.985 15.846H4.53v.45h.456v-.45Z" fill="#969696"></path><path d="M4.985 15.395H4.53v.452h.456v-.452Z" fill="#919191"></path><path d="M3.172 17.202h.905v.454h.908v-.454H4.53v-.906H3.172v.906Z" fill="#B6B6B6"></path><path d="M13.142 19.014v-.462h-.467v.461h.467Z" fill="#DFDFDF"></path><path d="M12.675 18.552h-.442v-.436h-.454v.897h.896v-.462Z" fill="#D4D4D4"></path><path d="M13.142 18.116h-.467v.436h.467v-.436ZM14.502 18.552v.911h-.452v.45h-.908v-1.361h.447v.46h.461v-.46h.452Z" fill="#D4D4D4"></path><path d="M14.05 19.914h-.455v.457h.455v-.457ZM14.502 19.463h-.452v.452h.452v-.452Z" fill="#DFDFDF"></path><path d="M12.675 18.116h-.442v.436h.442v-.436ZM14.502 17.655H11.78v.461h2.723v-.461Z" fill="#EAEAEA"></path><path d="M16.773 17.198v.918h-1.365v.436h-2.266v-.436h1.36v-.461h.45v-.904h.448v.447h1.373Z" fill="#DFDFDF"></path><path d="M14.05 18.552h-.462v.461h.462v-.462Z" fill="#DFDFDF"></path><path d="M12.227 16.293h-.447v1.362h.447v-1.362Z" fill="#D4D4D4"></path><path d="M14.953 17.198h-2.726v.458h2.726v-.458Z" fill="#fff"></path><path d="M11.78 15.848h-.454v.446h.454v-.446Z" fill="#7F7F7F"></path><path d="M16.31 15.846v.443h.463v.462h-.92v-.45h-1.35v-.449h1.35v-.459h.92v.453h-.463Z" fill="#DFDFDF"></path><path d="M14.953 16.3v.898h-.45v-.447h-.453v-.899h.452v.448h.45Z" fill="#E6E6E6"></path><path d="M15.853 16.3H15.4v.452h.453V16.3ZM16.773 16.75h-.92v.448h.92v-.447Z" fill="#fff"></path><path d="M16.773 18.116h-.46v.436h.46v-.436Z" fill="#EAEAEA"></path><path d="M17.223 15.393h-.45v.453h.45v-.453Z" fill="#fff"></path><path d="M17.673 15.846h-.9v.905h.9v-.905Z" fill="#DFDFDF"></path><path d="M17.223 16.75h-.45v.448h.45v-.447Z" fill="#DFDFDF"></path><path d="M14.05 15.852v.899h.452v.447h-2.275v-.905h-.447v-.445h-.903v-.454h-.454v-1.358h1.357v1.357h.456v.452l1.814.007Z" fill="#EAEAEA"></path><path d="M12.236 14.036h-.457v1.357h.457v-1.357Z" fill="#D1D1D1"></path><path d="M7.257 11.323h-.46v.447h.46v-.447Z" fill="#D4D4D4"></path><path d="m14.501 15.393.001.46h1.351v-.46h-1.352Z" fill="#EAEAEA"></path><path d="M14.95 14.945H14.5v.449h.449v-.449Z" fill="#EAEAEA"></path><path d="M3.623 15.846h-.45v.45h.45v-.45Z" fill="#969696"></path><path d="M18.126 12.679h-.454v.448h.454v-.448Z" fill="#fff"></path><path d="M18.578 12.679h-.452v.448h.452v-.448Z" fill="#EAEAEA"></path><path d="M18.582 13.127h-.456v.448h.456v-.448Z" fill="#fff"></path><path d="M8.157 12.226h-.456v.457h.456v-.457ZM9.97 17.655h.453v-2.71H9.97v2.71Z" fill="#D1D1D1"></path><path d="M13.142 14.945h-.906v.449h.906v-.449ZM13.592 14.036h-1.357v.453h1.357v-.453Z" fill="#DFDFDF"></path><path d="M13.592 14.488h-1.357v.459h1.357v-.459Z" fill="#EAEAEA"></path><path d="M12.236 15.393h.453v.455l-.454-.002v-.453Z" fill="#D1D1D1"></path><path d="M12.689 15.848v-.455h.453v.456h-.453Z" fill="#EAEAEA"></path><path d="M13.142 15.393v.456l.45.002v-.458h-.45Z" fill="#DFDFDF"></path><path d="M13.592 14.945h-.45v.449h.45v-.449ZM13.592 15.393h.91v.46l-.91-.002v-.458Z" fill="#fff"></path><path d="M14.05 14.945h-.458v.449h.458v-.449Z" fill="#EAEAEA"></path><path d="M14.501 14.945h-.45v.449h.45v-.449Z" fill="#E6E6E6"></path><path d="M14.95 14.488h-1.358v.459h1.358v-.459Z" fill="#DFDFDF"></path><path d="M13.592 14.036v.452h.458v-2.265h-.458v-.453h-.45v-.447h-.91v.452h.458v.908h-.457v-.452h-.458v.9h.46v.905h1.357Z" fill="#EAEAEA"></path><path d="M6.339 10.869h.918v.454h-.46v.895H6.34v.915h1.358v.448h.46v.455h-2.27v-2.264h.452v-.903Z" fill="#919191"></path><path d="M7.257 13.133h-.463v.45h.463v-.45Z" fill="#7F7F7F"></path><path d="M9.06 13.584h-.453v.457h.453v-.457ZM9.06 14.04h.458v.449h-.456l-.002-.448Z" fill="#919191"></path><path d="M7.257 13.133v-.45h.9v.45h1.815v.908h.45v.904H9.97v-.457h-.451v-.447H9.06v-.457H7.698v-.451h-.441Z" fill="#B6B6B6"></path><path d="M10.423 14.041v-.457h1.813v.453l-1.813.004Z" fill="#DFDFDF"></path><path d="M12.235 13.13h-.46v.455h.46v-.454Z" fill="#D1D1D1"></path><path d="M11.775 13.584v-.453h-.446V11.77H9.968v.452h-.45v.461H9.06v-.913h-.903v-.447h.45v-.454h-.914v.454h-.436v.447h-.46v.448h.46v.465H7.7v-.457h.456v.907h1.815v.908h.45v-.457h1.353Z" fill="#EAEAEA"></path><path d="M7.257 12.683v-.465h-.918v.915h.918v-.45ZM7.693 10.869h-.436v.454h.436v-.454Z" fill="#D4D4D4"></path><path d="M13.142 11.323h.908v-.454h.446v-.907h.462v.907h1.365v.454h.89v-.452h.455v-.907h.461v1.359h.442v.443h.462v.913H14.05v-.456h-.458v-.453h-.45v-.447Z" fill="#E6E6E6"></path><path d="M14.496 12.68v-.453h1.366v.457l-1.366-.005Z" fill="#DFDFDF"></path><path d="M15.862 12.684v-.457h.918v.452l-.918.005Z" fill="#EAEAEA"></path><path d="M18.578 12.227h-.458v.452h.458v-.452Z" fill="#DFDFDF"></path><path d="M18.12 12.227h-.448v-.458h1.36v.91h-.454v-.452h-.458Z" fill="#EAEAEA"></path><path d="M15.853 14.945h-.903v.449h.903v-.449Z" fill="#DFDFDF"></path><path d="M14.95 12.679h-.9v.895h.9v-.895ZM14.95 14.036h-.9v.453h.9v-.453Z" fill="#E6E6E6"></path><path d="M14.95 14.036v.452h.452v-.914H14.05v.462h.9Z" fill="#fff"></path><path d="M16.773 14.946v.447h-.92v-.905h.46v.458h.46Z" fill="#EAEAEA"></path><path d="M14.95 14.946h.903v-.458h.46v-.452h-.911v.452h-.452v.458Z" fill="#E6E6E6"></path><path d="M15.402 12.679h-.452v.448h.452v-.448Z" fill="#DFDFDF"></path><path d="M15.402 13.127h-.452v.448h.452v-.448Z" fill="#EAEAEA"></path><path d="M15.862 12.679h-.46v.448h.46v-.448Z" fill="#E6E6E6"></path><path d="M15.862 13.574h-.46v.463h.46v-.463Z" fill="#EAEAEA"></path><path d="M16.313 14.036v-.91h.46v-.447h-.911v.447h-.46v.448h.46v.462h.451Z" fill="#DFDFDF"></path><path d="M17.224 12.679h-.45v.448h.45v-.448Z" fill="#E6E6E6"></path><path d="M16.773 13.127h-.46v.448h.46v-.448Z" fill="#EAEAEA"></path><path d="M17.224 13.574h-.91v.463h.91v-.463Z" fill="#E6E6E6"></path><path d="M19.938 14.488v.453h-.912v.905h-1.353v-.453h-.9v-.447h-.46v-.91h.455v.452h.904v-.452h-.448v-.462h-.45v-.447h.45v-.448h.448v.447h.454v.448h.456v.462h.444v.452h.912Z" fill="#DFDFDF"></path><path d="M17.224 14.036h-.456v.453h.456v-.453Z" fill="#EAEAEA"></path><path d="M17.672 14.036h-.449v.453h.45v-.453Z" fill="#fff"></path><path d="M17.672 14.488h-.449v.453h.45v-.453Z" fill="#E6E6E6"></path><path d="M17.673 15.393h-.45v.454h.45v-.454Z" fill="#EAEAEA"></path><path d="M18.58 14.946h-.454v.448h.453v-.448Z" fill="#fff"></path><path d="M19.033 12.679h-.455v.895h.455v-.895Z" fill="#DFDFDF"></path><path d="M18.578 13.574h.455v.463h-.45l-.005-.463ZM19.487 14.036h-.454v.453h.454v-.453Z" fill="#fff"></path><path d="M19.487 13.574h-.454v.463h.454v-.463Z" fill="#DFDFDF"></path><path d="M18.13 9.964h.448v.904h.455v.452h.451v.45h.454v-.45h.91v.907h-1.815v-.458h-.462v-.446h-.442V9.964Z" fill="#A6A6A6"></path><path d="M20.848 11.773h-.454v.455h.454v-.455Z" fill="#909090"></path><path d="M19.033 12.227h1.36v1.81h-.455v.451h-.451v-.914h-.454v-1.347Z" fill="#E6E6E6"></path><path d="M20.393 14.036h-.455v.453h.456v-.453Z" fill="#fff"></path><path d="M20.393 14.488h-.455v.459h.456v-.459Z" fill="#EAEAEA"></path><path d="M20.848 11.32h-.91v.45h-.454v-.45h-.452v-.453h-.454v-.903h-.91V9.51s1.82-.008 1.82 0v.453h.451v-.457h.909v.457h.449v.453h.456v.907h-.456v.448h-.45v-.452Z" fill="#909090"></path><path d="M20.848 9.507h-.909v.458h.909v-.458ZM21.296 9.964h-.448v.452h.448v-.452Z" fill="#868686"></path><path d="M19.488 9.964V9.05h.451v-.446h.909v.446h.905v1.367h-.457v-.453h-.448v-.457h-.909v.457h-.45ZM18.13 6.807h-.462v1.348h.461V6.807Z" fill="#E6E6E6"></path><path d="M17.668 5.893h-.447v.914h.447v-.914Z" fill="#D1D1D1"></path><path d="M17.221 6.346h-2.267v.461h2.267v-.46Z" fill="#fff"></path><path d="M15.858 6.807v-.46h-.45v-.454h-.915v-.45h-.45V4.99h-.449v-.46h.451v-.455h1.363v.91h.898v.457h.456v1.364h-.904Z" fill="#868686"></path><path d="M21.753 6.348v.902h-.463v-.443H19.94v-.46h-.453v.46H18.13v-.46h.452V5.9h.456v-.457h1.356v.45h.454v.455h.906Z" fill="#9E9E9E"></path><path d="M9.968 11.776h-.45v.447h.45v-.447ZM9.518 10.869H9.06v.454h.458v-.454Z" fill="#7F7F7F"></path><path d="M10.876 10.869H9.518v.454h1.358v-.454Z" fill="#EAEAEA"></path><path d="M9.06 11.323v1.36h.458v-.907h.45v-.453H9.06Z" fill="#8F8F8F"></path><path d="M9.968 11.777v-.454h.455v.447l-.455.007Z" fill="#7F7F7F"></path><path d="M7.693 10.869h.914v.454h-.45v.447h.903v-.901h1.816v-.457H9.06v-.9h-.454v.905h-.913v.452Z" fill="#D4D4D4"></path><path d="M10.876 10.869v.454h-.453v.447h.906v1.36h.446v-.899h.915v-.456h-.457v-.906h-1.357Z" fill="#D4D4D4"></path><path d="M12.69 12.231h-.457v.453h.457v-.453Z" fill="#BEBEBE"></path><path d="M10.876 10.869v-.905h1.36v.452h.454v.453h.449v.454h-.906v-.454h-1.357Z" fill="#E6E6E6"></path><path d="M12.237 9.964h-1.361v.449h1.36v-.449Z" fill="#EAEAEA"></path><path d="M10.876 10.412v-.448h.9v-.452H9.517v.452h.45v.448h.908Z" fill="#B6B6B6"></path><path d="M9.06 9.512v.9h.908v-.448h-.45v-.452H9.06Z" fill="#EAEAEA"></path><path d="M12.237 9.512h-.462v.453h.462v-.453ZM12.237 9.964v.453h.453v-.455l-.453.002Z" fill="#fff"></path><path d="M12.237 9.964h.453v.905h.449v.454h.911v-.454h-.452v-.457h-.456v-.448h-.452v-.452h-.453v.452Z" fill="#B6B6B6"></path><path d="M9.518 9.512v-.456H9.06v-.45h.454v-.453h.454v.894h3.174v.46h.908v-.443h1.803v.9h1.368v.448h-2.263v-.45h-.462v.456h-.446v-.454h-1.36v-.452H9.517Z" fill="#8F8F8F"></path><path d="M13.142 9.964h.908v.904h-.452v-.456h-.456v-.448Z" fill="#A6A6A6"></path><path d="M14.496 10.418h-.446v.451h.446v-.451ZM14.958 10.412h2.71v.459h-.455v.452h-.89v-.454h-1.365v-.457Z" fill="#B6B6B6"></path><path d="M17.668 9.964h-.447v.449h.447v-.449Z" fill="#A6A6A6"></path><path d="M17.668 9.511h-.447v.454h.447v-.454Z" fill="#8F8F8F"></path><path d="M17.668 9.511v-.907h-1.355v-.439h-.454V7.7h-1.35v.465h-2.727V7.7h-.908v-.45h-.45v.441h-.459V9.047h3.177v.46h.908v-.443h1.803v.9h1.368v-.453h.447Z" fill="#868686"></path><path d="M17.668 9.511v-.907h.461v.903l-.461.004Z" fill="#A6A6A6"></path><path d="M18.13 8.604v-.45h.451v.453h.452v.45h.455v.454H18.13v-.907Z" fill="#fff"></path><path d="M20.847 8.604v-.459h.906V6.807h.444v.898h.471v.899h.44v.458h-.448l.002.902h-.91V9.05h-.905v-.446Z" fill="#CACACA"></path><path d="M20.847 12.227h-.454v.9h.454v-.9Z" fill="#EAEAEA"></path><path d="M21.296 11.773h-.449v.455h.45v-.455Z" fill="#EAEAEA"></path><path d="M21.296 11.773v-.449h.457v1.36h-.457v.443h-.449v-.9h.45v-.454Z" fill="#DFDFDF"></path><path d="M21.753 10.418v.906h.91v-.453h-.465v-.456l-.445.003Z" fill="#D4D4D4"></path><path d="M22.663 10.87v-.452h.902v.906h-.902v-.453Z" fill="#CACACA"></path><path d="M22.663 10.415h-.465v.457h.465v-.457Z" fill="#E6E6E6"></path><path d="M21.753 9.964v.454h.91v-.454h-.91Z" fill="#959595"></path><path d="M22.2 13.127v.447h-.447v.462h-.457v.91h-.449v.447h-.91v-.447h.456v-1.82h.454v.448h.45v-.447h.904Z" fill="#DFDFDF"></path><path d="M21.296 13.127h-.449v.448h.45v-.448Z" fill="#EAEAEA"></path><path d="M22.663 12.683H22.2v.444h.462v-.444Z" fill="#DFDFDF"></path><path d="M22.663 12.227H22.2v.456h.462v-.456Z" fill="#959595"></path><path d="M23.114 11.773v3.173h-.451v-.458h-.91v-.452h.448v-.462h.462v-1.801h.45Z" fill="#CACACA"></path><path d="M22.663 13.127H22.2v.448h.462v-.448Z" fill="#EAEAEA"></path><path d="M22.2 13.574h-.447v.463h.448v-.463ZM21.753 14.036h-.457v.453h.457v-.453Z" fill="#fff"></path><path d="M22.663 14.488v.458H22.2v.447h-.905v-.447h.457v-.458h.91Z" fill="#DFDFDF"></path><path d="M21.753 14.488h-.457v.459h.457v-.459Z" fill="#EAEAEA"></path><path d="M21.296 14.946h-.449v.448h.45v-.448Z" fill="#fff"></path><path d="M22.663 14.946v1.344h-1.816v-.897h1.354v-.447h.462Z" fill="#DFDFDF"></path><path d="M22.663 14.946v.9h-1.367v-.453h.905v-.447h.462ZM22.2 16.29v1.365h-.445v.905h-.459v.453h-.45v.904h-.454v.453h-.458v.452h-.907v-.454h.449v-1.812h.463v-.448h.907v-.46h-.449v-.453h.449v-.444h.45v-.461h.905Z" fill="#CACACA"></path><path d="M20.846 16.75h-.45v.445h.45v-.444ZM19.94 18.108h-.464v.449h.463v-.449Z" fill="#EAEAEA"></path><path d="M22.658 17.195h-.457v.461h.457v-.461ZM22.2 17.655h-.445v.905h.446v-.905Z" fill="#7F7F7F"></path><path d="M21.755 18.56v.453h-.459v-.453h.46ZM21.296 19.013h-.45v.904h.45v-.904ZM20.393 20.37h-.459v.453h.459v-.453ZM20.846 19.918v.453h-.453v-.453h.453Z" fill="#7F7F7F"></path><path d="M15.4 19.463v.452h-.447v-.45l.447-.002Z" fill="#D1D1D1"></path><path d="M19.027 20.368v.454h-1.804v-.908h-.45v-.449s2.264.01 2.255 0c-.01-.009 0 .903 0 .903Z" fill="#DFDFDF"></path><path d="M18.576 19.918h-.451v1.36h.45v-1.36Z" fill="#EAEAEA"></path><path d="M16.773 19.914h-.46v.457h.46v-.457ZM16.773 20.822h-.46v.456h.46v-.456ZM17.214 21.278h-.44v.904h.44v-.904Z" fill="#DFDFDF"></path><path d="M18.125 21.278h-.46v.453h.46v-.453Z" fill="#EAEAEA"></path><path d="M18.581 8.155v.452h.452v.45h.906v-.453h.909v-.459h.905V7.25h-.905v.457h-.454v.448h-1.367V7.7h-.446v-.893h-.452v1.348h.452Z" fill="#8F8F8F"></path><path d="M18.581 6.807h.907v-.46h.453v.46h1.349v.443h-.442v.457h-.454v.448h-1.367V7.7h-.446v-.893ZM18.13 8.155h-.462v.45h.461v-.45Z" fill="#868686"></path><path d="M14.954 7.7v-.45h1.367v.45h.454v.455h.893v.449h-1.355v-.439h-.454V7.7h-.905Z" fill="#8F8F8F"></path><path d="M14.954 7.25v-.453l2.714.01v1.348h-.893V7.7h-.454v-.45h-1.367Z" fill="#959595"></path><path d="M17.668 7.251h-.447v.45h.447v-.45Z" fill="#868686"></path><path d="M18.581 6.348v.46h.449v-.462l-.449.002Z" fill="#D4D4D4"></path><path d="M21.298 5.893h-.45v.455h.45v-.455Z" fill="#CACACA"></path><path d="M18.581 5.443v.905h-.452v.459h-.461V5.443h.913Z" fill="#EAEAEA"></path><path d="M19.037 5.443h-.456V5.9h.456v-.458Z" fill="#D1D1D1"></path><path d="M9.06 9.059v.453h-.454v.906h-.913v-.454h.454v-.452H7.25v-.905H6.8V7.7h.904v.466h.444v.441h.465v.452h.448Z" fill="#EAEAEA"></path><path d="M9.518 9.058H9.06v.455h.458v-.455Z" fill="#B6B6B6"></path><path d="M8.147 9.512h-.454v.453h.454v-.453Z" fill="#919191"></path><path d="M5.892 8.607v.452h-.454l.005.453h-.458V9.06h.453v-.452h.454Z" fill="#959595"></path><path d="M7.693 9.512h-.436v.453h.436v-.453Z" fill="#7F7F7F"></path><path d="M7.693 9.964v.905h-.436v-.45h-.46v-.45h-.9v.446h-.454l-.005-1.356h.908v-.452h.91v1.357h.437Z" fill="#919191"></path><path d="M6.798 9.512H6.34v.458h.458v-.458Z" fill="#D1D1D1"></path><path d="M5.443 10.869h-.458v.459h.458v-.46Z" fill="#C9C9C9"></path><path d="M14.954 6.346h-.46v.452h.46v-.452Z" fill="#D4D4D4"></path><path d="M14.954 6.797h-.908v.454h.909v-.454Z" fill="#EAEAEA"></path><path d="M1.81 10.418v.905h.44v.908h-.438v.448h-.444V9.512h1.35v.906H1.81ZM3.623 12.679h-1.81v.905h1.81v-.905Z" fill="#D4D4D4"></path><path d="M3.623 12.227H3.18v.453h.442v-.453ZM4.985 9.97v1.357H4.53v.44h-.455v.454l-.452.006v-.906h.453v-.903h.452V9.97h.457Z" fill="#919191"></path><path d="M4.076 10.418h-.453v.451h.453v-.451Z" fill="#7F7F7F"></path><path d="M2.719 11.327v.443h.462v.909H1.812v-.448h.437v-.908h-.44v-.905h.91v.45h.462v.459H2.72Z" fill="#EAEAEA"></path><path d="M4.985 9.059v.91h-.457v.449h-.905v.45h.453v.453h-.453v.906H3.18v-.457H2.72v-.443h.462v-.458H2.72v-.451h.462v-.906h.442V9.06h1.362Z" fill="#D4D4D4"></path><path d="M.907 8.154H.453v1.358h.454V8.154Z" fill="#fff"></path><path d="M1.81 8.607h-.442v.905h.441v-.905Z" fill="#959595"></path><path d="M2.719 6.795v1.36h-.455v1.357h-.455V7.7h.453v-.904h.457ZM4.985 9.059h-.458v-.894h1.365v.442h-.454v.452h-.453Z" fill="#D4D4D4"></path><path d="M4.527 8.607h-.45v.452h.45v-.452Z" fill="#EAEAEA"></path><path d="M10.42 4.538v.45h-.45v.454h-.91v.45h-.45v.452H6.797V6.8h-.452v.45h-.457v.45h-.902v.467h-.458v.441h-.45v.452h-.901v-.905h.456v-.455h.444v-.451h.46v-.45h.446V6.34h1.355v-.456H6.8v-.44h.903v-.461h.457v-.451h.447v-.451h.913v.456h.9Z" fill="#909090"></path><path d="M3.623 9.06v.452H3.18v.906H2.72v-.906h-.455V8.154h.912v.905h.447Z" fill="#EAEAEA"></path><path d="M5.439 5.893v.448h-.457v.456h-.446v.45h-.46V7.7h-.444v.455H2.72V7.7h.457v-.45h.448v-.893h.454v-.463h1.36Z" fill="#9E9E9E"></path><path d="M8.16 4.082v.902h-.458v.46H6.8v.441h-.462v.456H5.44v-.448h-.91v-.457h.454v-.448h.456v-.452h.9v-.454h.459v-.446h.905v.446h.456Z" fill="#868686"></path><path d="M6.798 3.636v.446h-.459v.454h-.9v.452h-.456v.448H4.53v.457h-.45v-.905h.45v-.452h.447v-.454h.463v-.446h1.359Z" fill="#A6A6A6"></path><path d="M6.798 3.184h-.454v.453h.454v-.453Z" fill="#909090"></path><path d="M8.614 4.082h-.455v.452h.455v-.452ZM9.067 3.636h-.453v.446h.453v-.446Z" fill="#9E9E9E"></path><path d="M9.52 3.636v.448l-.453-.002v-.446h.452Z" fill="#868686"></path><path d="M9.97 3.183v.899h-.45v-.446h-.906v.446h-.911v-.446h-.905v-.452h.454v-.453h2.264v.452h.454Z" fill="#B6B6B6"></path><path d="M9.52 4.082v.456h.9v-.902h-.45v.446h-.45Z" fill="#868686"></path><path d="M6.346 8.607V7.7h.453v-.901h-.455v.45h-.457v.45h-.902v.467h.907v.441h.454Z" fill="#EAEAEA"></path><path d="M6.346 8.607h-.454v.452h.454v-.452Z" fill="#7F7F7F"></path><path d="M6.799 7.7h-.453v.907h.453V7.7Z" fill="#D1D1D1"></path><path d="M6.796 6.344 6.8 7.7h.904v.466h.444v.441h.465v.452h.448V7.25h.905v-.451H9.52v-.455h-.46v-.451h-.448v.451H6.796Z" fill="#D4D4D4"></path><path d="M7.25 6.8h.454v-.455H7.25V6.8Z" fill="#fff"></path><path d="M9.06 8.607v-.454h-.453v.455h.453Z" fill="#E6E6E6"></path><path d="M9.514 8.153H9.06v.454h.454v-.454Z" fill="#B6B6B6"></path><path d="M9.514 7.25H9.06v.45h.454v-.45Z" fill="#E6E6E6"></path><path d="M9.514 7.7H9.06v.454h.454V7.7Z" fill="#B2B2B2"></path><path d="M9.514 8.153V7.25h.451v-.451h1.362v.451h-.903v.441h-.459v.462h-.451Z" fill="#A6A6A6"></path><path d="M9.52 5.442h-.46v.902h.46v-.902ZM12.237 5.893v.451h-.45V6.8H9.52v-.455h1.359v-.451h1.36Z" fill="#EAEAEA"></path><path d="M10.874 7.25h1.363v-.451h.453v.9h.904v.466h-1.812V7.7h-.908v-.45Z" fill="#8F8F8F"></path><path d="M11.327 7.25v-.451h.46v-.455h1.355v.906h-.452v-.451h-.453v.451h-.91Z" fill="#B6B6B6"></path><path d="M14.508 8.165V7.7h.447v-.45h-.904v.458h-.457V7.25h-.904v.45l.904.008v.457h.914Z" fill="#A6A6A6"></path><path d="M14.046 6.797h-.904v.454h.905v-.454Z" fill="#E6E6E6"></path><path d="M14.05 7.25h-.456v.458h.456V7.25Z" fill="#EAEAEA"></path><path d="m11.777 5.442-.004.45h-.895v.452H9.519v-.902h2.258Z" fill="#D4D4D4"></path><path d="M11.777 4.987h-.899v.455h.899v-.455ZM11.777 5.442h.46v.452h-.464l.004-.452ZM12.69 5.893h-.453v.452h.453v-.452Z" fill="#D1D1D1"></path><path d="M13.139 5.893h-.45v.452h.45v-.452Z" fill="#EAEAEA"></path><path d="M13.139 5.893v.904h.908v-.453h-.453v-.451h-.455Z" fill="#D4D4D4"></path><path d="M13.594 5.893h.9v.904h-.447v-.453h-.453v-.451Z" fill="#E6E6E6"></path><path d="M13.594 4.991h.449v.452h.45v.45h.915v.453h-.915v-.453h-.45v-.45h-.45l.001-.452Z" fill="#909090"></path><path d="M14.044 5.443h-.451v.45h.45v-.45Z" fill="#D4D4D4"></path><path d="M9.97 2.731h-.454v.453h.453v-.453ZM17.223 3.183v.9h-.461v-.45h-.904v-.45h-.903v.45h-.452v.443h-.458v.455h-.452v1.362h-.454V5.44h-.45v.452h-.452v-.451h-.46v-.455h-.899v.455H9.97v-.455h.45v-.454h.45v-.446h-.45v-.45h-.45v-.454h.904v-.452h.458v-.459h.446v.459h.462v.452h-.462v.45h-.45v.899h.908v-.45h.454v-.45h.906v-.454h.45v-.45h.91v-.456h.906v.453h.452v.458h.91Z" fill="#EAEAEA"></path><path d="M13.139 5.44h-.45v.453h.45v-.452ZM10.87 4.087h-.45v.447h.45v-.447Z" fill="#D1D1D1"></path><path d="M17.221 6.346v-.453h.447V4.99h-.445V4.53H15.408v.456h.898v.457h.456v.903h.46Z" fill="#909090"></path><path d="M15.409 3.183h-.454v.45h.454v-.45Z" fill="#C5C5C5"></path><path d="M15.858 3.183h-.45v.45h.45v-.45Z" fill="#CDCDCD"></path><path d="M16.314 3.632v.451l-1.81-.006v-.445h1.81Z" fill="#B6B6B6"></path><path d="M15.408 4.076v.454h1.354v-.898h-.448v.45l-.906-.006Z" fill="#9E9E9E"></path><path d="M17.223 4.083h-.461v.448h.461v-.448Z" fill="#C5C5C5"></path><path d="M18.581 4.986v.457h-.913V4.99h-.445V4.53h.902v.456h.456Z" fill="#D1D1D1"></path><path d="M12.69 3.633v.45h-.454l-.002-.45h.456Z" fill="#D4D4D4"></path><path d="M16.317 1.371v.459h-1.362v.897h-.909v.45h-.45v.456h-.906l.004-.45h.448v-.452h.454v-.913h-.908v-.447h-.907v.453H8.618V1.37h.907V.918h5.431v.453h1.36ZM12.236 4.082h-.46v.456h.46v-.456Z" fill="#D4D4D4"></path><path d="M13.596 1.818v.913h-.454v.452h-.448v.45h-.457v.45h-.46v.455h-.448v-.905h.45v-.45h.46v-.452h-.46v-.459h-.9v-.448h.902V1.37h.907v.447h.908Z" fill="#DFDFDF"></path><path d="M12.685 2.272h-.445v.46h.445v-.46Z" fill="#EAEAEA"></path><path d="M19.5 3.632v.451h-2.277c-.016 0 0-.9 0-.9h-.91v-.458h-.45v-.453h-.908V1.83h1.362v.442h.445v.459h1.367v.901H19.5Z" fill="#DFDFDF"></path><path d="M20.393 5.441v.002H18.58v-.457h-.456V4.53h-.902v-.447H19.5v.447h.437v.911h.456Z" fill="#EAEAEA"></path><path d="M24.019 9.96v4.529h-.454v1.356h-.445v.906h-.462v.444h-.457v-.905h.462v-1.344h.45v-3.622h.452v-.906h-.902l-.003-1.356h.447v-.458h-.439v-.899h-.47v-.898h-.445v-.46h-.455v-.454h-.905V5.44h-.456V4.53H19.5V2.727h.446v.45h.446v.453l.452.001v.452h.452v.897h.464v.46h.448l.002.898h.448v.897h.462v.923h.437V9.96h.462Z" fill="#E6E6E6"></path><path d="M21.753 11.324v1.36h-.457v.443h.905v-.9h.462v-.454h.45v-.449h-1.36Z" fill="#EAEAEA"></path><path d="M16.317 1.83h.906v.442h.438v.459h-.9v-.459h-.444V1.83ZM18.13 2.731h.443v.452h.927v.45h-1.37V2.73Z" fill="#D4D4D4"></path><path d="M19.5 2.727v.456h-.927v-.452h-.912v-.459h-.438V1.83h-.906V1.37h-1.36V.918h-1.815v-.46h-2.264v.46H9.525v.453h-.907v.453h-.45v.448h-1.37v.459h-.893v.452H4.99v.453h-.46v.446h-.452v.45H3.62v.903h-.9v.906h-.455V7.7h-.455v.907h-.441v.905H.907V7.25h.452v-.904h.452V5.44h.456v-.45h.45v-.91h.455v-.45h.451v-.455h.454v-.45h.91v-.451h.451v-.458h.907V1.37h.905V.916h.907V.464h1.36V.01H14.5v.453h1.36v.452h1.36v.453h.453v.452h.906l-.002.452h.455v.453h.467Z" fill="#E6E6E6"></path><path d="M9.52 1.824v.448h-.902v.459H7.252v.453h-.908v.452H5.44v.446h-.463v.454H4.53v.452h-.45v1.368h-.455v.894h-.448v.45h-.457v-.905h-.455V6.34h.455v-.906h.9v-.902h.46v-.451h.45v-.446h.46v-.453h.916v-.452h.893v-.459h1.37v-.448h1.351Z" fill="#EAEAEA"></path></g><defs><clipPath id="HelloMoon_svg__a"><path fill="#fff" d="M0 0h24v24H0z"></path></clipPath></defs></svg>