<svg width="125" height="125" viewBox="0 0 125 125" fill="none" xmlns="http://www.w3.org/2000/svg">
<mask id="mask0_711_1029" style="mask-type:luminance" maskUnits="userSpaceOnUse" x="0" y="0" width="125" height="125">
<path d="M125 0H0V125H125V0Z" fill="white"/>
</mask>
<g mask="url(#mask0_711_1029)">
<path d="M82.5675 87.248H80.2078V89.5781H82.5675V87.248Z" fill="#EAEAEA"/>
<path d="M87.3623 82.5293H84.9495V84.8426H87.3623V82.5293Z" fill="white"/>
<path d="M110.916 87.2448V84.8417H108.58V80.1741H103.843V77.8179H99.0945V82.5304H92.0477V87.2448H89.7023V89.5714H87.3594V96.623H84.9613V94.3534H80.2473V96.623H75.5312V103.719H73.1773V108.45H70.775V110.777H68.4316V108.45H63.6941V115.502H58.993V117.875H54.332V115.527H49.5715V113.129H42.4824V117.875H44.8426V120.232H42.4824V122.588H51.925L51.923 124.943L75.527 124.946L75.5395 122.571H82.6242V120.257L87.332 120.234L87.3234 117.875L92.0477 117.877L92.0504 115.521L96.7687 115.519L96.7707 113.163H99.1285V110.807H103.851V108.45H96.7473V110.821H94.4V113.178H92.0055V110.821H94.4V108.45H89.7023V103.719H87.3594V106.094H84.9594V103.719H87.3594V101.382C87.3594 101.382 99.1477 101.428 99.1008 101.382C99.0547 101.335 99.1008 106.083 99.1008 106.083H101.436V94.3132H108.571V91.9148H106.234V89.5565H106.224V87.2448H110.916ZM80.2094 103.719H77.8785V101.382L80.2094 101.371V103.719ZM87.3594 108.45V110.821H89.6562V115.533H87.3594V110.821H84.9594V108.45H87.3594Z" fill="white"/>
<path d="M80.209 84.9022V87.2499H77.8789V84.8999L80.209 84.9022Z" fill="white"/>
<path d="M16.5152 73.1265H14.1637V75.4577H9.44336V70.7495H16.4941L16.5152 73.1265Z" fill="#959595"/>
<path d="M59.0115 11.8333V14.2235H56.6275V16.5798H51.9158V14.2235H44.8779V11.8333H49.5705V9.49854H56.649V11.8333H59.0115Z" fill="white"/>
<path d="M68.4423 2.38428H56.6521V4.78701H68.4423V2.38428Z" fill="#EAEAEA"/>
<path d="M44.8426 117.88H42.4824V120.24H44.8426V117.88Z" fill="#959595"/>
<path d="M30.6586 96.6768V99.0264H18.8746V96.6701H16.5187V91.9643H14.1609V87.2436H11.7984V80.1768H9.43828V77.7807H7.07812V75.4627H7.11406V66.04H9.43828V75.4627H14.1586V80.1768H16.5211V89.5979H21.2328V91.9643H23.5887V94.3186H25.9488V96.6768H30.6586Z" fill="#888888"/>
<path d="M49.5656 103.768H47.2012V106.098H49.5656V103.768Z" fill="#888888"/>
<path d="M42.5159 108.454H37.7808V110.814H42.5159V108.454Z" fill="#ADADAD"/>
<path d="M42.4586 106.069H40.1516V108.457H42.4586V106.069Z" fill="#B4B4B4"/>
<path d="M42.4876 117.88H37.7673V120.236H42.4876V117.88Z" fill="white"/>
<path d="M37.7617 115.524L37.7555 117.878L33.0371 117.864L33.0394 115.511L37.7617 115.524Z" fill="white"/>
<path d="M33.0426 113.163H28.3223V115.524H33.0426V113.163Z" fill="white"/>
<path d="M23.5977 106.09H18.875V108.45H23.5977V106.09Z" fill="white"/>
<path d="M28.3152 110.808H25.9551V113.168H28.3152V110.808Z" fill="white"/>
<path d="M25.9673 108.454H23.6072V110.814H25.9673V108.454Z" fill="white"/>
<path d="M18.8836 103.735H16.5234V106.097H18.8836V103.735Z" fill="white"/>
<path d="M14.1534 96.6719H11.7932V99.032H14.1534V96.6719Z" fill="white"/>
<path d="M9.43828 89.5996H7.07812V91.9594H9.43828V89.5996Z" fill="white"/>
<path d="M16.5184 99.0259H14.1582V103.738H16.5184V99.0259Z" fill="white"/>
<path d="M11.8035 91.9531H9.44336V96.6656H11.8035V91.9531Z" fill="white"/>
<path d="M7.07369 82.5293H4.71313V89.5981H7.07369V82.5293Z" fill="white"/>
<path d="M4.7228 75.4644H2.36694V82.5327H4.7228V75.4644Z" fill="white"/>
<path d="M2.3582 49.5415H-0.00195312V75.4591H2.3582V49.5415Z" fill="white"/>
<path d="M49.5773 106.092V108.448H47.2023V113.126H42.4883V117.872H37.768L37.7742 115.522L33.0516 115.51L33.0477 113.16H28.3273V110.804H25.9672V108.448H23.607V106.092H18.8844V103.733H16.5242V99.0208H14.1641V96.6646H11.8039V91.9521H9.44375V89.5966H7.0836V82.5278H4.72344V75.4591H2.36758L2.36328 75.4548V49.5415H7.12813V75.4591H7.0836V77.7751H9.44375V80.1716H11.8039V87.238H14.166V91.9591H16.5242V96.6646H18.8801V99.0208H30.6641V101.377H40.1535V108.448H37.7867V110.804H42.5219V108.448H44.8398V106.092H49.5773Z" fill="#959595"/>
<path d="M58.9877 106.09V110.802H54.2745V113.125H47.1917V108.447H49.5666V106.09H58.9877Z" fill="#888888"/>
<path d="M63.6908 108.454V115.505H58.9896V117.879H54.3287V115.531H49.5681V113.132H54.2755V110.81H58.9896V108.454H63.6908Z" fill="#959595"/>
<path d="M58.9871 106.094V94.3555H49.5656V91.9531H47.2012V99.0238H51.9152V101.397H47.2012V103.768H49.5656V106.094H58.9871Z" fill="#7F7F7F"/>
<path d="M49.5656 99.0259H47.2012V101.403H49.5656V99.0259Z" fill="#C4C4C4"/>
<path d="M51.9173 99.0259H49.5681V101.403H51.9173V99.0259Z" fill="#ADADAD"/>
<path d="M68.4284 106.098V108.454H61.3479V101.4H63.6909V103.735H66.0596V106.098H68.4284Z" fill="#7F7F7F"/>
<path d="M61.3578 101.4H59V108.454H61.3578V101.4Z" fill="#868686"/>
<path d="M70.7709 108.454H68.428V110.784H70.7709V108.454Z" fill="#959595"/>
<path d="M73.1704 106.099V108.455H68.4247V106.099H66.056V103.736H63.6872V101.401H58.986V94.3601H49.5642V91.9573H47.2001V89.6011H44.8228V87.2534H47.2001V77.8245H49.5642V75.4644H51.9161V91.9573H54.2806V80.1851H56.645V82.5456H58.9821V84.8651H61.3439V99.03H68.4392V103.723H70.7978V106.099H73.1704Z" fill="#919191"/>
<path d="M42.4586 101.379H40.1516V106.067H42.4586V101.379Z" fill="#A6A6A6"/>
<path d="M40.1479 99.0259H37.7178V101.386H40.1479V99.0259Z" fill="#A6A6A6"/>
<path d="M37.7123 96.6777H35.3604V99.0258H37.7123V96.6777Z" fill="#A6A6A6"/>
<path d="M35.3594 94.2993H33.0371V96.6825H35.3594V94.2993Z" fill="#969696"/>
<path d="M33.0403 94.2993H30.6548V96.6782H33.0403V94.2993Z" fill="#C9C9C9"/>
<path d="M30.6548 96.6758V101.382H37.7138V99.0258H35.3622V96.6805L30.6548 96.6758Z" fill="#7F7F7F"/>
<path d="M47.209 106.093V94.3091H44.8317V99.0239H42.518V96.6653H40.1516V99.0216V101.378H42.4567V108.449H44.836V106.093H47.209Z" fill="white"/>
<path d="M44.8361 96.6758H42.5225V99.032H44.8361V96.6758Z" fill="#C4C4C4"/>
<path d="M44.8361 94.3091H42.5225V96.6759H44.8361V94.3091Z" fill="#B0B0B0"/>
<path d="M47.2001 89.5977H44.8228V94.3117H47.2001V89.5977Z" fill="#C4C4C4"/>
<path d="M40.1516 96.6696V94.3091H42.518V96.6759L40.1516 96.6696Z" fill="#C4C4C4"/>
<path d="M40.1479 94.3091H37.7178V99.0216H40.1479V94.3091Z" fill="#EAEAEA"/>
<path d="M37.7123 94.3091H35.3604V96.6821H37.7123V94.3091Z" fill="#DFDFDF"/>
<path d="M33.0371 94.3059V91.9567C33.0371 91.9567 35.2598 91.8586 35.3594 91.9567C35.4566 92.0539 35.3594 94.3184 35.3594 94.3184L33.0371 94.3059Z" fill="#909090"/>
<path d="M37.7123 91.9531H35.3604V94.3156H37.7123V91.9531Z" fill="#ADADAD"/>
<path d="M40.1479 91.9531H37.7178V94.3156H40.1479V91.9531Z" fill="#B0B0B0"/>
<path d="M42.518 91.9531H40.1516V94.3156H42.518V91.9531Z" fill="#B0B0B0"/>
<path d="M49.5715 75.4567V77.8173H47.207V87.2466H44.8297V94.3083H42.5164V91.9501H33.0437V94.2958H30.6582V96.6708H25.9484V94.3126H23.5883V91.9591H25.9633V89.5938H23.5883V84.8735H18.868V80.1798L16.5207 80.1755L14.1582 80.1716V73.1263H16.5098L16.4887 70.7489V70.7192H18.868V63.6505H21.2664L21.2219 61.288H23.6117L23.5906 58.9911H28.3469V56.6052H25.9633V49.5415H28.3469V54.2427H30.7156V51.9231L35.4039 51.9017V54.2642L37.7937 54.2427V56.6052H33.0141V61.3095H30.7156L30.6582 73.1052H42.4844V70.7489H44.8297V73.1052L47.1965 73.1263V75.4567H49.5715Z" fill="#7F7F7F"/>
<path d="M25.9556 68.3994H23.5825V70.7385H25.9556V68.3994Z" fill="#969696"/>
<path d="M35.3721 77.8428H28.3088V80.1861H35.3721V77.8428Z" fill="#909090"/>
<path d="M37.7525 75.4644H35.3604V77.8518H37.7525V75.4644Z" fill="#969696"/>
<path d="M40.1555 75.4644H37.7637V77.8518H40.1555V75.4644Z" fill="#C9C9C9"/>
<path d="M42.4883 75.4644H40.1516V77.8518H42.4883V75.4644Z" fill="#969696"/>
<path d="M44.8273 75.4644H42.4844V77.8518H44.8273V75.4644Z" fill="#C9C9C9"/>
<path d="M16.5254 80.1733V82.5335H18.8727V80.1819L16.5254 80.1733Z" fill="#C9C9C9"/>
<path d="M25.9556 82.5293H23.5806V84.8785H25.9556V82.5293Z" fill="#969696"/>
<path d="M25.9556 80.1812H23.5806V82.5327H25.9556V80.1812Z" fill="#919191"/>
<path d="M16.5254 89.593H21.2371V91.9602H23.593H25.968V89.5953H23.593V84.875H16.5254V89.593Z" fill="#B6B6B6"/>
<path d="M68.453 99.0292V96.6226H66.0229V99.0272L68.453 99.0292Z" fill="#DFDFDF"/>
<path d="M66.0135 96.6244H63.7104V94.3545H61.3479V99.0268H66.0135V96.6244Z" fill="#D4D4D4"/>
<path d="M68.453 94.3545H66.0229V96.6279H68.453V94.3545Z" fill="#D4D4D4"/>
<path d="M75.5242 96.6226V101.371H73.1707V103.718H68.4395V96.6226H70.766V99.023H73.1707V96.6226H75.5242Z" fill="#D4D4D4"/>
<path d="M73.1758 103.722H70.8027V106.101H73.1758V103.722Z" fill="#DFDFDF"/>
<path d="M75.5327 101.375H73.1792V103.727H75.5327V101.375Z" fill="#DFDFDF"/>
<path d="M66.0182 94.3545H63.7151V96.6279H66.0182V94.3545Z" fill="#EAEAEA"/>
<path d="M75.528 91.9531H61.3479V94.3578H75.528V91.9531Z" fill="#EAEAEA"/>
<path d="M87.3531 89.5746V94.3566H80.2406V96.6262H68.4395V94.3566H75.5242V91.9559H77.8719V87.248H80.2023V89.5746H87.3531Z" fill="#DFDFDF"/>
<path d="M73.1845 96.6226H70.7798V99.0272H73.1845V96.6226Z" fill="#DFDFDF"/>
<path d="M63.6807 84.8638H61.3479V91.9575H63.6807V84.8638Z" fill="#D4D4D4"/>
<path d="M77.8713 89.5708H63.6768V91.9583H77.8713V89.5708Z" fill="white"/>
<path d="M61.3435 82.5444H58.981V84.869H61.3435V82.5444Z" fill="#7F7F7F"/>
<path d="M84.9538 82.5296V84.839H87.3667V87.2437H82.5745V84.9022L80.2292 84.9003H80.2163L77.8858 84.8983L75.5386 84.896V82.5632H82.5745V80.1733H87.3667V82.5296H84.9538Z" fill="#DFDFDF"/>
<path d="M77.8804 84.8943V89.5689H75.5327V87.2424H73.1792V82.5615H75.5327V84.8943H77.8804Z" fill="#E6E6E6"/>
<path d="M82.5656 84.9019H80.2078V87.2491H82.5656V84.9019Z" fill="white"/>
<path d="M87.3636 87.248H82.571V89.5781H87.3636V87.248Z" fill="white"/>
<path d="M87.3594 94.3545H84.9609V96.6279H87.3594V94.3545Z" fill="#EAEAEA"/>
<path d="M89.6981 80.1733H87.3547V82.5331H89.6981V80.1733Z" fill="white"/>
<path d="M92.0434 82.5293H87.3547V87.2438H92.0434V82.5293Z" fill="#DFDFDF"/>
<path d="M89.6981 87.248H87.3547V89.5781H89.6981V87.248Z" fill="#DFDFDF"/>
<path d="M73.1711 82.5659V87.2487H75.525V89.5753H63.6777V84.8647H61.3449V82.5444H58.9824H56.6453V80.1839H54.2812V77.8448L54.2793 73.1089H61.3449V80.1776H63.7199V82.5319L73.1711 82.5659Z" fill="#EAEAEA"/>
<path d="M63.7229 73.1089H61.3479V80.1776H63.7229V73.1089Z" fill="#D1D1D1"/>
<path d="M37.7941 58.9697H35.4043V61.3021H37.7941V58.9697Z" fill="#D4D4D4"/>
<path d="M75.5195 80.1733L75.5242 82.5671L82.5602 82.5647V80.1733H75.5195Z" fill="#EAEAEA"/>
<path d="M77.8543 77.8428H75.5195V80.1779H77.8543V77.8428Z" fill="#EAEAEA"/>
<path d="M18.8727 82.5293H16.5254V84.8785H18.8727V82.5293Z" fill="#969696"/>
<path d="M94.4027 66.0381H92.043V68.3728H94.4027V66.0381Z" fill="white"/>
<path d="M96.7634 66.0381H94.408V68.3728H96.7634V66.0381Z" fill="#EAEAEA"/>
<path d="M96.7849 68.3672H94.408V70.7019H96.7849V68.3672Z" fill="white"/>
<path d="M42.4827 63.6826H40.1057V66.0639H42.4827V63.6826Z" fill="#D1D1D1"/>
<path d="M51.9275 91.9545H54.2916V80.1818V77.8428H51.9275V91.9545Z" fill="#D1D1D1"/>
<path d="M68.4449 77.8428H63.7246V80.1771H68.4449V77.8428Z" fill="#DFDFDF"/>
<path d="M70.7879 73.1104H63.7246V75.4682H70.7879V73.1104Z" fill="#DFDFDF"/>
<path d="M70.7879 75.4644H63.7246V77.8518H70.7879V75.4644Z" fill="#EAEAEA"/>
<path d="M63.7246 80.1733H66.0844V82.5421L63.7246 82.5335V80.1733Z" fill="#D1D1D1"/>
<path d="M66.0896 82.5421V80.1733H68.4502V82.5483L66.0896 82.5421Z" fill="#EAEAEA"/>
<path d="M68.4395 80.1733V82.5483L70.7828 82.5565V80.1733H68.4395Z" fill="#DFDFDF"/>
<path d="M70.7828 77.8428H68.4395V80.1771H70.7828V77.8428Z" fill="white"/>
<path d="M70.7932 80.1733H75.5303L75.5346 82.5675L70.7932 82.5565V80.1733Z" fill="white"/>
<path d="M73.1807 77.8428H70.7932V80.1771H73.1807V77.8428Z" fill="#EAEAEA"/>
<path d="M75.5288 77.8428H73.1792V80.1771H75.5288V77.8428Z" fill="#E6E6E6"/>
<path d="M77.8651 75.4644H70.7932V77.8518H77.8651V75.4644Z" fill="#DFDFDF"/>
<path d="M70.7925 73.1025V75.4561H73.18V73.1025V70.6951V63.6568H70.7925V61.3006H68.4492V58.9697H63.714V61.3232H66.0953V66.0553H63.714V63.701H61.3328V68.3857H63.7289V73.1025H70.7925Z" fill="#EAEAEA"/>
<path d="M33.0089 56.6104H37.7886V58.9752H35.3988V63.6385H33.0089V68.4037H37.7886H40.0874V70.7365H42.4792V73.108H30.6531V61.3143H33.0089V56.6104Z" fill="#919191"/>
<path d="M37.7979 68.3994H35.387V70.7447H37.7979V68.3994Z" fill="#7F7F7F"/>
<path d="M47.1786 70.7495H44.8228V73.1308H47.1786V70.7495Z" fill="#919191"/>
<path d="M47.1841 73.126H49.5696V75.4608H47.1946L47.1841 73.126Z" fill="#919191"/>
<path d="M37.7903 68.4048V66.061H42.4809V68.4048H51.9344V73.1321H54.2817V77.8446H51.9196V75.4626H49.568V73.1321H47.1821V70.7548H40.0891V68.4048H37.7903Z" fill="#B6B6B6"/>
<path d="M54.2793 73.1308V70.7495H63.7199V73.1073L54.2793 73.1308Z" fill="#DFDFDF"/>
<path d="M63.7269 68.3896H61.3328V70.7561H63.7269V68.3896Z" fill="#D1D1D1"/>
<path d="M61.3281 70.7537V68.3912H59.0039V61.3037H51.9129V63.66H49.5695V66.0603H47.184V61.3037H42.4828V58.9752H44.8281V56.6104H40.0676V58.9752H37.7922V61.3037H35.4023V63.6385H37.7922V66.0603H40.1059V63.6807H42.4828V66.0603V68.4037H51.9363V73.1307H54.2836V70.7537H61.3281Z" fill="#EAEAEA"/>
<path d="M37.7958 66.0567V63.6348H33.0161V68.4H37.7958V66.0567Z" fill="#D4D4D4"/>
<path d="M40.0657 56.6104H37.7903V58.9787H40.0657V56.6104Z" fill="#D4D4D4"/>
<path d="M68.4395 58.9713H73.1707V56.6061H75.4926V51.8857H77.8973V56.6061H85.0078V58.9713H89.643V56.617H92.0117V51.8963H94.4164V58.9713H96.7172V61.2787H99.1219V63.6451V66.0334H92.0375H87.3422H75.4926H73.1707V63.6584H70.7828V61.3022H68.4395V58.9713Z" fill="#E6E6E6"/>
<path d="M75.5005 66.0404V63.6865H82.6126V66.0635L75.5005 66.0404Z" fill="#DFDFDF"/>
<path d="M82.6187 66.0635V63.6865H87.4003V66.0404L82.6187 66.0635Z" fill="#EAEAEA"/>
<path d="M96.7531 63.6865H94.3718V66.0404H96.7531V63.6865Z" fill="#DFDFDF"/>
<path d="M94.3758 63.6882H92.043V61.3022H96.7231H99.1277V63.6503V66.0382H96.759V63.6882H94.3758Z" fill="#EAEAEA"/>
<path d="M82.5731 77.8428H77.8657V80.1779H82.5731V77.8428Z" fill="#DFDFDF"/>
<path d="M77.8636 66.0381H73.1792V70.7014H77.8636V66.0381Z" fill="#E6E6E6"/>
<path d="M77.8636 73.1089H73.1792V75.4675H77.8636V73.1089Z" fill="#E6E6E6"/>
<path d="M77.8636 73.1083V75.4626H80.2171V70.7017H73.1792V73.1083H77.8636Z" fill="white"/>
<path d="M87.3636 77.8479V80.1788H82.571V75.4644H84.9675V77.8479H87.3636Z" fill="#EAEAEA"/>
<path d="M77.8674 77.8479H82.5725V75.4639H84.969V73.1104H80.2209V75.4639H77.8674V77.8479Z" fill="#E6E6E6"/>
<path d="M80.2209 66.0381H77.8674V68.3728H80.2209V66.0381Z" fill="#DFDFDF"/>
<path d="M80.2209 68.3672H77.8674V70.7019H80.2209V68.3672Z" fill="#EAEAEA"/>
<path d="M82.6078 66.0381H80.2117V68.3728H82.6078V66.0381Z" fill="#E6E6E6"/>
<path d="M82.6078 70.7017H80.2117V73.1106H82.6078V70.7017Z" fill="#EAEAEA"/>
<path d="M84.9593 73.1088V68.3709H87.3558V66.0381H82.6078V68.3709H80.2117V70.7014H82.6078V73.1088H84.9593Z" fill="#DFDFDF"/>
<path d="M89.7 66.0381H87.3547V68.3728H89.7V66.0381Z" fill="#E6E6E6"/>
<path d="M87.3594 68.3672H84.9629V70.7019H87.3594V68.3672Z" fill="#EAEAEA"/>
<path d="M89.7047 70.7017H84.9629V73.1106H89.7047V70.7017Z" fill="#E6E6E6"/>
<path d="M103.842 75.4627V77.8205H99.0941V82.533H92.0477V80.1768H87.3594V77.8463H84.9629V73.1088H87.3336V75.4627H92.0438V73.1088H89.7047V70.7033H87.3594V68.3705H89.7047V66.04H92.0438V68.3705H94.4035V70.7033H96.7805V73.1088H99.0941V75.4627H103.842Z" fill="#DFDFDF"/>
<path d="M89.7064 73.1104H87.3357V75.4682H89.7064V73.1104Z" fill="#EAEAEA"/>
<path d="M92.0473 73.1104H89.7083V75.4682H92.0473V73.1104Z" fill="white"/>
<path d="M92.0473 75.4644H89.7083V77.8245H92.0473V75.4644Z" fill="#E6E6E6"/>
<path d="M92.0536 80.1733H89.7083V82.5335H92.0536V80.1733Z" fill="#EAEAEA"/>
<path d="M96.7705 77.8447H94.408V80.1799H96.7705V77.8447Z" fill="white"/>
<path d="M99.1229 66.0381H96.7542V70.7014H99.1229V66.0381Z" fill="#DFDFDF"/>
<path d="M96.7542 70.7017H99.1229V73.113H96.7756L96.7542 70.7017Z" fill="white"/>
<path d="M101.491 73.1104H99.1267V75.4682H101.491V73.1104Z" fill="white"/>
<path d="M101.491 70.7017H99.1267V73.1106H101.491V70.7017Z" fill="#DFDFDF"/>
<path d="M94.4233 51.9009H96.7601V56.6067H99.1284V58.963H101.48V61.3028H103.842V58.963H108.58V63.688H99.1284V61.3028H96.7237V58.9763H94.4233V51.9009Z" fill="#A6A6A6"/>
<path d="M108.576 61.3154H106.211V63.6885H108.576V61.3154Z" fill="#909090"/>
<path d="M99.1267 63.6865H106.213V73.1072H103.841V75.4615H101.491V73.1072V70.6998H99.1267V63.6865Z" fill="#E6E6E6"/>
<path d="M106.211 73.1104H103.838V75.4682H106.211V73.1104Z" fill="white"/>
<path d="M106.211 75.4644H103.838V77.8522H106.211V75.4644Z" fill="#EAEAEA"/>
<path d="M108.585 58.9643H103.848V61.3041H101.484V58.9643H99.1317V56.6061H96.7634V51.8998H94.4286H92.0239V49.5396C92.0239 49.5396 101.507 49.4994 101.507 49.5396C101.507 49.5799 101.507 51.8998 101.507 51.8998H103.855V49.5205H108.588V51.8998H110.924V54.2607H113.304V58.9838H110.924V61.3186H108.585V58.9643Z" fill="#909090"/>
<path d="M108.575 49.5225H103.842V51.9057H108.575V49.5225Z" fill="#868686"/>
<path d="M110.917 51.9009H108.58V54.2548H110.917V51.9009Z" fill="#868686"/>
<path d="M101.501 51.8951V47.1322H103.849V44.8096H108.58V47.1322H113.296V54.2557H110.916V51.8951H108.58V49.5158H103.849V51.8951H101.501Z" fill="#E6E6E6"/>
<path d="M94.4286 35.4556H92.0239V42.4774H94.4286V35.4556Z" fill="#E6E6E6"/>
<path d="M92.0249 30.6948H89.7007V35.4534H92.0249V30.6948Z" fill="#D1D1D1"/>
<path d="M89.6935 33.0542H77.8865V35.4546H89.6935V33.0542Z" fill="white"/>
<path d="M82.5934 35.4543V33.0578H80.248V30.6953H75.4852V28.352H73.1398V26H70.8027V23.6016H73.1527V21.2305H80.2524V25.9727H84.9258V28.352H87.3008V35.4543H82.5934Z" fill="#868686"/>
<path d="M113.296 33.0616V37.7612H110.883V35.4515H103.86V33.0616H101.501V35.4515H94.4233V33.0616H96.7768V30.7308H99.1476V28.3491H106.211V30.6929H108.58V33.0616H113.296Z" fill="#9E9E9E"/>
<path d="M51.9111 61.3364H49.5681V63.6665H51.9111V61.3364Z" fill="#7F7F7F"/>
<path d="M49.5696 56.6104H47.1841V58.9791H49.5696V56.6104Z" fill="#7F7F7F"/>
<path d="M56.6404 56.6104H49.5681V58.9791H56.6404V56.6104Z" fill="#EAEAEA"/>
<path d="M47.1841 58.9697V66.0553H49.5696V63.6545V61.3303H51.913V58.9697H47.1841Z" fill="#8F8F8F"/>
<path d="M51.9219 61.3342V58.9697H54.293V61.3025L51.9219 61.3342Z" fill="#7F7F7F"/>
<path d="M40.062 56.6056H44.8226V58.9704H42.4773V61.2989H47.1784V56.6056H56.6358V54.2282H51.9073H47.1784V49.5415H44.8159V54.2556H40.062V56.6056Z" fill="#D4D4D4"/>
<path d="M56.6371 56.6104V58.9752H54.2793V61.3037H58.9996V68.3912H61.3234V63.7064H63.7047H66.0867V61.3291H63.7047V58.9752V56.6104H56.6371Z" fill="#D4D4D4"/>
<path d="M66.0963 63.7017H63.7151V66.0599H66.0963V63.7017Z" fill="#BEBEBE"/>
<path d="M56.6426 56.6114V51.9009H63.7316V54.2552H66.0922V56.6114H68.4312V58.9763H63.7102V56.6114H56.6426Z" fill="#E6E6E6"/>
<path d="M63.7316 51.9009H56.6426V54.238H63.7316V51.9009Z" fill="#EAEAEA"/>
<path d="M56.64 54.2282V51.8954H61.3267V49.5415H49.5681V51.8954H51.9111V54.2282H56.64Z" fill="#B6B6B6"/>
<path d="M47.1841 49.5415V54.2282H51.913V51.8954H49.5696V49.5415H47.1841Z" fill="#EAEAEA"/>
<path d="M63.7351 49.5415H61.3328V51.8993H63.7351V49.5415Z" fill="white"/>
<path d="M63.7302 51.8963V54.2545H66.0908V51.8857L63.7302 51.8963Z" fill="white"/>
<path d="M63.7302 51.8954H66.0908V56.6056H68.4298V58.9704H73.1751V56.6056H70.8193V54.2282H68.4443V51.8954H66.0908V49.5415H63.7302V51.8954Z" fill="#B6B6B6"/>
<path d="M49.5696 49.5496V47.1723H47.1841V44.8309H49.5485V42.4707H51.913V47.1258H68.4446V49.5242H73.1759V47.2168H82.5634V51.9039H89.6923V54.2367H77.9024V51.8934H75.4978V54.2637H73.1759V51.9039H66.0907V49.5496H63.731H49.5696Z" fill="#8F8F8F"/>
<path d="M68.4395 51.9009H73.1707V54.261V56.611H70.8145V54.2333H68.4395V51.9009Z" fill="#A6A6A6"/>
<path d="M75.5011 54.2583H73.1792V56.6122H75.5011V54.2583Z" fill="#B6B6B6"/>
<path d="M77.8979 54.2314H89.6882H92.012V56.6189H89.6437V58.9729H85.0077V56.6084H77.8979V54.2314Z" fill="#B6B6B6"/>
<path d="M92.0249 51.9009H89.7007V54.2376H92.0249V51.9009Z" fill="#A6A6A6"/>
<path d="M92.0249 49.5376H89.7007V51.9017H92.0249V49.5376Z" fill="#8F8F8F"/>
<path d="M92.0138 49.5344V44.8094H84.9563V42.5254H82.5923V40.0992H75.5579V42.5254H61.361V40.0992H56.6282V37.7578H54.2849V40.057H51.897V42.5254V47.1168H68.4419V49.5156H73.1724V47.2078H82.5606V51.8949H89.6895V49.5344H92.0138Z" fill="#868686"/>
<path d="M92.0239 49.5346V44.8096H94.4286V49.5154L92.0239 49.5346Z" fill="#A6A6A6"/>
<path d="M94.4233 44.8156V42.4766H96.7768V44.8328H99.1288V47.1781H101.501V49.5387H94.4233V44.8156Z" fill="white"/>
<path d="M108.58 44.8169V42.4286H113.296V35.4556H115.609V40.136H118.063V44.8169H120.349V47.2048H118.02L118.031 51.9021H113.296V47.1392H108.58V44.8169Z" fill="#CACACA"/>
<path d="M108.577 63.6865H106.213V68.3674H108.577V63.6865Z" fill="#EAEAEA"/>
<path d="M110.917 61.3154H108.58V63.6885H110.917V61.3154Z" fill="#EAEAEA"/>
<path d="M110.917 61.3185V58.9829H113.296V66.0599H110.917V68.37H108.58V63.6872H110.917V61.3185Z" fill="#DFDFDF"/>
<path d="M113.293 54.261V58.9837H118.032V56.6212H115.613V54.2505L113.293 54.261Z" fill="#D4D4D4"/>
<path d="M118.038 56.6188V54.2583H122.735V58.9813H118.038V56.6188Z" fill="#CACACA"/>
<path d="M118.031 54.2505H115.612V56.6255H118.031V54.2505Z" fill="#E6E6E6"/>
<path d="M113.293 51.9009V54.2657H118.032L118.034 51.9009H113.293Z" fill="#959595"/>
<path d="M115.624 68.3672V70.7H113.291V73.1047H110.912V77.8422H108.575V80.1734H103.838V77.8422H106.211V68.3672H108.575V70.7H110.912V68.3672H115.624Z" fill="#DFDFDF"/>
<path d="M110.917 68.3672H108.58V70.7016H110.917V68.3672Z" fill="#EAEAEA"/>
<path d="M118.029 66.061H115.622V68.3747H118.029V66.061Z" fill="#DFDFDF"/>
<path d="M118.029 63.6865H115.622V66.0615H118.029V63.6865Z" fill="#959595"/>
<path d="M120.379 61.3154V77.8428H118.032V75.4592H113.293V73.1053H115.625V70.7006H118.032V61.3154H120.379Z" fill="#CACACA"/>
<path d="M118.029 68.3672H115.622V70.7016H118.029V68.3672Z" fill="#EAEAEA"/>
<path d="M115.625 70.7017H113.293V73.1106H115.625V70.7017Z" fill="white"/>
<path d="M113.294 73.1104H110.914V75.4682H113.294V73.1104Z" fill="white"/>
<path d="M118.033 75.4644V77.8479H115.626V80.1788H110.914V77.8479H113.294V75.4644H118.033Z" fill="#DFDFDF"/>
<path d="M113.294 75.4644H110.914V77.8518H113.294V75.4644Z" fill="#EAEAEA"/>
<path d="M110.917 77.8447H108.58V80.1799H110.917V77.8447Z" fill="white"/>
<path d="M118.035 77.8447V84.844H108.58V80.1756H115.628V77.8447H118.035Z" fill="#DFDFDF"/>
<path d="M118.031 77.8447V82.5318H110.912V80.1756H115.624V77.8447H118.031Z" fill="#CACACA"/>
<path d="M115.634 84.8428V91.9557H113.314V96.6682H110.922V99.0264H108.576V103.737H106.214V106.095H103.828V108.451H99.106V106.084H101.441V96.6471H103.854V94.3139H108.576V91.9154H106.239V89.5572H108.576V87.2451H110.922V84.8428H115.634Z" fill="#CACACA"/>
<path d="M108.566 87.248H106.218V89.5637H108.566V87.248Z" fill="#EAEAEA"/>
<path d="M103.85 94.3105H101.437V96.6469H103.85V94.3105Z" fill="#EAEAEA"/>
<path d="M118.006 89.5596H115.622V91.9623H118.006V89.5596Z" fill="#7F7F7F"/>
<path d="M115.622 91.9551H113.302V96.6695H115.622V91.9551Z" fill="#7F7F7F"/>
<path d="M113.306 96.6738V99.0316H110.914V96.6719L113.306 96.6738Z" fill="#7F7F7F"/>
<path d="M110.92 99.0259H108.574V103.738H110.92V99.0259Z" fill="#7F7F7F"/>
<path d="M106.211 106.09H103.823V108.45H106.211V106.09Z" fill="#7F7F7F"/>
<path d="M108.569 103.737V106.097H106.209L106.207 103.737H108.569Z" fill="#7F7F7F"/>
<path d="M80.209 101.375V103.727H77.8789V101.386L80.209 101.375Z" fill="#D1D1D1"/>
<path d="M99.0965 106.084V108.45H89.6981V103.719H87.3547V101.382C87.3547 101.382 99.1426 101.429 99.0965 101.382C99.0496 101.335 99.0965 106.084 99.0965 106.084Z" fill="#DFDFDF"/>
<path d="M96.7535 103.737H94.4062V110.82H96.7535V103.737Z" fill="#EAEAEA"/>
<path d="M87.3613 103.722H84.9609V106.101H87.3613V103.722Z" fill="#DFDFDF"/>
<path d="M87.3613 108.454H84.9609V110.829H87.3613V108.454Z" fill="#DFDFDF"/>
<path d="M89.6512 110.819H87.3547V115.531H89.6512V110.819Z" fill="#DFDFDF"/>
<path d="M94.3928 110.819H91.999V113.179H94.3928V110.819Z" fill="#EAEAEA"/>
<path d="M96.7768 42.4774V44.8337H99.1288V47.1794H101.501H103.849V44.8169H108.58V42.4286H113.296V37.7649H108.58V40.1466H106.216V42.4774H99.0991V40.1063H96.7768V35.4556H94.4233V42.4774H96.7768Z" fill="#8F8F8F"/>
<path d="M96.7827 35.4503H101.507V33.0601H103.866V35.4503H110.888V37.7597H108.586V40.1413H106.221V42.4722H99.1046V40.1011H96.7827V35.4503Z" fill="#868686"/>
<path d="M94.4286 42.4766H92.0239V44.8219H94.4286V42.4766Z" fill="#868686"/>
<path d="M77.8865 40.0992V37.7578H85.0044V40.0992H87.3693V42.4703H92.0177V44.8094H84.9603V42.5254H82.5959V40.0992H77.8865Z" fill="#8F8F8F"/>
<path d="M77.8865 37.7609V35.4023L92.0177 35.4512V37.7672V42.473H87.3693V40.1023H85.0044V37.7609H77.8865Z" fill="#959595"/>
<path d="M92.0249 37.771H89.7007V40.1101H92.0249V37.771Z" fill="#868686"/>
<path d="M96.7827 33.0604V35.4546H99.1194V33.0542L96.7827 33.0604Z" fill="#D4D4D4"/>
<path d="M110.925 30.6948H108.58V33.0675H110.925V30.6948Z" fill="#CACACA"/>
<path d="M96.7829 28.3491V33.0616H94.4286V35.4515H92.0239V28.3491H96.7829Z" fill="#EAEAEA"/>
<path d="M99.1534 28.3491H96.7827V30.7347H99.1534V28.3491Z" fill="#D1D1D1"/>
<path d="M47.1833 47.181V49.5435H44.8208V54.2603H40.0665V51.8978H42.4267V49.5435H37.7638V44.829H35.408V40.1021H40.1173V42.5302H42.4267V44.829H44.8505V47.181H47.1833Z" fill="#EAEAEA"/>
<path d="M49.5696 47.1802H47.1841V49.5466H49.5696V47.1802Z" fill="#B6B6B6"/>
<path d="M42.4222 49.5415H40.062V51.8993H42.4222V49.5415Z" fill="#919191"/>
<path d="M30.6797 44.8301V47.182H28.3172L28.3406 49.5445H25.957V47.182H28.3172V44.8301H30.6797Z" fill="#959595"/>
<path d="M40.0657 49.5415H37.7903V51.8993H40.0657V49.5415Z" fill="#7F7F7F"/>
<path d="M40.068 51.8988V56.609H37.7926V54.2672H35.4027V51.9262H30.7141V54.2465H28.3457L28.3223 47.182H33.0488V44.8301H37.7926V51.8988H40.068Z" fill="#919191"/>
<path d="M35.4036 49.5415H33.0181V51.9271H35.4036V49.5415Z" fill="#D1D1D1"/>
<path d="M28.3406 56.6084H25.957V58.9986H28.3406V56.6084Z" fill="#C9C9C9"/>
<path d="M77.889 33.0542H75.489V35.4058H77.889V33.0542Z" fill="#D4D4D4"/>
<path d="M77.8926 35.4023H73.1641V37.7648H77.8926V35.4023Z" fill="#EAEAEA"/>
<path d="M9.42676 54.2583V58.9724H11.7174V63.702H9.4416V66.0349H7.12598V49.5415H14.1619V54.2583H9.42676Z" fill="#D4D4D4"/>
<path d="M18.8734 66.04H9.44336V70.7541H18.8734V66.04Z" fill="#D4D4D4"/>
<path d="M18.8603 63.6846H16.5615V66.0443H18.8603V63.6846Z" fill="#919191"/>
<path d="M25.9608 51.9219V58.9906H23.5877V61.2875H21.2194V63.65L18.8655 63.6777V58.959H21.2276V54.257H23.5815V51.9219H25.9608Z" fill="#919191"/>
<path d="M21.2276 54.2603H18.8655V56.6118H21.2276V54.2603Z" fill="#7F7F7F"/>
<path d="M14.1517 58.9935V61.3013H16.563V66.0368H9.43135V63.704H11.7067V58.9747H9.4165V54.2603H14.1517V56.6079H16.563V58.9935H14.1517Z" fill="#EAEAEA"/>
<path d="M25.9633 47.1821V51.9263H23.584V54.261H18.868V56.6091H21.2305V58.963H18.868V63.6817H16.5691V61.3021H14.1582V58.995H16.5691V56.6091H14.1582V54.261H16.5691V49.5446H18.868V47.1821H25.9633Z" fill="#D4D4D4"/>
<path d="M4.72774 42.4727H2.36328V49.5457H4.72774V42.4727Z" fill="white"/>
<path d="M9.42676 44.8301H7.12598V49.5445H9.42676V44.8301Z" fill="#959595"/>
<path d="M14.1517 35.3926V42.4738H11.7833V49.5469H9.4165V40.1051H11.7728V35.3926H14.1517Z" fill="#D4D4D4"/>
<path d="M25.9579 47.1849H23.5747V42.5317H30.6806V44.8329H28.3181V47.1849H25.9579Z" fill="#D4D4D4"/>
<path d="M23.5823 44.8301H21.2327V47.1859H23.5823V44.8301Z" fill="#EAEAEA"/>
<path d="M54.2671 23.6386V25.98H51.928V28.3464H47.1866V30.6964H44.8476V33.0483H35.3964L35.4007 35.4151H33.0405V37.7647H30.6589V40.1061H25.9644V42.5343H23.5808V44.8335H21.2312V47.1855L18.8687 47.1874L16.5405 47.1897V42.471H18.9175V40.1061H21.2312V37.7542H23.623V35.4065H25.9495V33.0315H33.0065V30.6581H35.4112V28.3612H40.1167V25.9608H42.496V23.6132H44.8222V21.2632H49.5784V23.6386H54.2671Z" fill="#909090"/>
<path d="M18.8659 47.1871V49.5473H16.567V54.2641H14.1561V49.5473H11.7874V42.4746H16.5374V47.1891L18.8659 47.1871Z" fill="#EAEAEA"/>
<path d="M28.3258 30.6948V33.0296H25.9484V35.405H23.6223V37.7526H21.2305V40.1046H18.9168V42.4733H14.1582V40.1046H16.5395V37.7632H18.8766V33.1058H21.241V30.6948H28.3258Z" fill="#9E9E9E"/>
<path d="M42.4876 21.2622V25.9599H40.1083V28.3603H35.4028V30.6571H32.9981V33.0302H28.3181V30.6954H23.5806V28.3161H25.9474V25.9853H28.3181V23.629H33.0087V21.2622H35.3962V18.9419H40.1103V21.2622H42.4876Z" fill="#868686"/>
<path d="M35.4035 18.9419V21.2622H33.0156V23.629H28.325V25.9853H25.9543V28.3161H23.5875V30.6954H21.2402V25.9853H23.5875V23.629H25.916V21.2622H28.325V18.9419H35.4035Z" fill="#A6A6A6"/>
<path d="M35.3996 16.5806H33.0371V18.9388H35.3996V16.5806Z" fill="#909090"/>
<path d="M44.8607 21.2632H42.4919V23.6171H44.8607V21.2632Z" fill="#9E9E9E"/>
<path d="M47.2206 18.9419H44.8628V21.2661H47.2206V18.9419Z" fill="#9E9E9E"/>
<path d="M49.5823 18.9419V21.2724L47.2261 21.2661V18.9419H49.5823Z" fill="#868686"/>
<path d="M51.9254 16.581V21.2595H49.5781V18.9396H44.8641V21.2595H40.118V18.9396H35.4043V16.5853H37.7727V14.2251H49.5609V16.581H51.9254Z" fill="#B6B6B6"/>
<path d="M49.574 21.2622V23.6372H54.2623V18.9419H51.9193V21.2622H49.574Z" fill="#868686"/>
<path d="M33.0441 44.8281V40.1012H35.4043V35.4102H33.0332V37.7598H30.652V40.1012H25.957V42.5293L30.6797 42.527V44.8281H33.0441Z" fill="#EAEAEA"/>
<path d="M33.0537 44.8301H30.6892V47.1859H33.0537V44.8301Z" fill="#7F7F7F"/>
<path d="M35.4183 40.1021H33.0581V44.829H35.4183V40.1021Z" fill="#D1D1D1"/>
<path d="M35.3965 33.0468L35.4113 40.1046H40.1211V42.5327H42.4305V44.8319H44.8543V47.1839H47.1867V44.8276V42.4671V40.1046V37.7632H51.9027V35.4136H49.5789V33.0468H47.1867V30.6948H44.848V33.0468H35.3965Z" fill="#D4D4D4"/>
<path d="M37.7693 35.4176H40.1275V33.0488H37.7673L37.7693 35.4176Z" fill="white"/>
<path d="M47.179 44.8348V42.4707H44.8208V44.8391L47.179 44.8348Z" fill="#E6E6E6"/>
<path d="M49.5485 42.4707H47.1841V44.8348H49.5485V42.4707Z" fill="#B6B6B6"/>
<path d="M49.5485 37.7578H47.1841V40.1031H49.5485V37.7578Z" fill="#E6E6E6"/>
<path d="M49.5485 40.1021H47.1841V42.4708H49.5485V40.1021Z" fill="#B2B2B2"/>
<path d="M49.553 42.4637V37.7598H51.9049V35.4102H58.9959V37.7598H54.2928V40.059H51.9049V42.4637H49.553Z" fill="#A6A6A6"/>
<path d="M49.5759 28.3452H47.1841V33.0472H49.5759V28.3452Z" fill="#EAEAEA"/>
<path d="M63.7306 30.6948V33.0468H61.39V35.4136H49.574V33.0468H56.6505V30.6948H63.7306Z" fill="#EAEAEA"/>
<path d="M56.635 37.7598H63.7366V35.4102H66.0944V40.1012H70.8045V42.5273H61.3678V40.1012H56.635V37.7598Z" fill="#8F8F8F"/>
<path d="M59 37.7637V35.4137H61.4004V33.0469H63.7418H68.4531V37.7637H66.0996V35.4137H63.7418V37.7637H59Z" fill="#B6B6B6"/>
<path d="M75.5658 42.5254V40.0992H77.8904V37.7578H73.1826V40.1414H70.8052V37.7578H66.0955V40.0992L70.8052 40.1414V42.5254H75.5658Z" fill="#A6A6A6"/>
<path d="M73.1516 35.4023H68.4395V37.7648H73.1516V35.4023Z" fill="#E6E6E6"/>
<path d="M73.1777 37.7578H70.8027V40.1457H73.1777V37.7578Z" fill="#EAEAEA"/>
<path d="M61.3326 28.3452L61.3115 30.6952H56.6505V33.0472H49.574V28.3452H61.3326Z" fill="#D4D4D4"/>
<path d="M61.3318 25.9741H56.6521V28.3448H61.3318V25.9741Z" fill="#D1D1D1"/>
<path d="M61.3428 28.3452H63.7408V30.6991H61.3213L61.3428 28.3452Z" fill="#D1D1D1"/>
<path d="M66.09 30.6948H63.7322V33.0507H66.09V30.6948Z" fill="#D1D1D1"/>
<path d="M68.4345 30.6948H66.0955V33.0487H68.4345V30.6948Z" fill="#EAEAEA"/>
<path d="M68.428 30.6948V35.405H73.1549V33.0468H70.7987V30.6948H68.428Z" fill="#D4D4D4"/>
<path d="M70.8027 30.6948H75.4852V35.405H73.159V33.0468H70.8027V30.6948Z" fill="#E6E6E6"/>
<path d="M70.8042 25.999H73.1405V28.351H75.4858V30.6943H80.2491V33.0568H75.4858V30.6943H73.1448L73.1405 28.351H70.7952L70.8042 25.999Z" fill="#909090"/>
<path d="M73.1448 28.3491H70.7952V30.6968H73.1448V28.3491Z" fill="#D4D4D4"/>
<path d="M51.9227 14.2251H49.5605V16.5853H51.9227V14.2251Z" fill="#EAEAEA"/>
<path d="M89.7072 16.5811V21.2682H87.3044V18.9182H82.599V16.5811H77.8958V18.9182H75.5415V21.2299H73.156V23.601H70.7978V30.6928H68.4357V28.3408H66.0966V30.6928H63.7388V28.3432H61.3404V25.9764H56.6603V28.3432H51.9314V25.9764H54.2708V23.6096H56.6181V21.2873H54.2708V18.9393H51.9275V16.5811H56.6388V14.2248H59.0228V11.835H61.349V14.2248H63.7513V16.5811H61.349V18.9225H59.0076V23.6053H63.7322V21.2639H66.0947V18.9225H70.8169V16.5514H73.1603V14.2061H77.8958V11.835H82.6201V14.1932H84.9716V16.5811H89.7072Z" fill="#EAEAEA"/>
<path d="M68.4345 28.3433H66.0955V30.6991H68.4345V28.3433Z" fill="#D1D1D1"/>
<path d="M56.6114 21.2915H54.2642V23.6181H56.6114V21.2915Z" fill="#D1D1D1"/>
<path d="M89.6986 33.0543V30.6918H92.0232V28.3484V25.9965H89.7076V23.5938H87.3048H80.2517V25.9687H84.9298V28.3484H87.3048V33.0543H89.6986Z" fill="#909090"/>
<path d="M80.2509 16.5786H77.8884V18.9196H80.2509V16.5786Z" fill="#C5C5C5"/>
<path d="M82.5966 16.5786H80.2556V18.9196H82.5966V16.5786Z" fill="#CDCDCD"/>
<path d="M84.9765 18.9189V21.2686L75.5444 21.2346V18.9189H84.9765Z" fill="#B6B6B6"/>
<path d="M80.2537 21.2287V23.5955H87.3029V18.9189H84.972V21.2646L80.2537 21.2287Z" fill="#9E9E9E"/>
<path d="M89.6978 21.269H87.2954V23.5995H89.6978V21.269Z" fill="#C5C5C5"/>
<path d="M96.7812 25.9711V28.3484H92.0222V25.9965H89.7065V23.5938H94.4015V25.9711H96.7812Z" fill="#D1D1D1"/>
<path d="M66.0914 18.9229V21.2682H63.7289L63.7207 18.9229H66.0914Z" fill="#D4D4D4"/>
<path d="M84.9756 7.14385V9.53369H77.8846V14.2079H73.149V16.5536H70.8057V18.9247H66.0834L66.1068 16.5833H68.4389V14.2271H70.8057V9.47237H66.0748V7.14385H61.3506V9.50206H44.8779V7.14385H49.6025V4.78564H77.8885V7.14385H84.9756Z" fill="#D4D4D4"/>
<path d="M63.7286 21.2651H61.3364V23.6401H63.7286V21.2651Z" fill="#D4D4D4"/>
<path d="M70.8091 9.47002V14.2247H68.4423V16.5806H66.1095V18.922H63.7302V21.2634H61.3318V23.6345H58.9998V18.922H61.3408V16.5806H63.7427V14.2247H61.3408V11.8345H56.6521V9.49932H61.3533V7.14111H66.0779V9.47002H70.8091Z" fill="#DFDFDF"/>
<path d="M66.0573 11.835H63.7397V14.2291H66.0573V11.835Z" fill="#EAEAEA"/>
<path d="M101.56 18.9176V21.2676H89.6998C89.615 21.2676 89.6998 16.5805 89.6998 16.5805H84.965V14.1926H82.6126V11.8344H77.8884V9.53125H84.9794V11.8344H87.297V14.2242H94.4201V18.9176H101.56Z" fill="#DFDFDF"/>
<path d="M106.215 28.3417V28.3503H96.7812V25.973H94.4015V23.5956H89.7065V21.269H101.567V23.5956H103.842V28.3417H106.215Z" fill="#EAEAEA"/>
<path d="M125.097 51.8791V75.4682L122.734 75.4709V82.5326H120.417V87.2494L118.012 87.2475V89.5608H115.629V84.8467H118.036V77.8479H120.383V58.9857H122.732V54.2631H118.036L118.02 47.2049H120.349V44.819H118.062V40.1361H115.609V35.4557H113.296V33.0658H110.927V30.6967H106.211V28.3447H103.838V23.5986H101.562V14.21H103.883V16.5533H106.207L106.211 18.9115L108.562 18.9182V21.2721H110.917V25.942H113.332V28.3428H115.667L115.675 33.015H118.01V37.6869H120.417V42.4924H122.69V51.8791H125.097Z" fill="#E6E6E6"/>
<path d="M113.292 58.9829V66.0599H110.912V68.3692H115.624V63.6864H118.031V61.3177H120.378V58.9829H113.292Z" fill="#EAEAEA"/>
<path d="M84.978 9.5293H89.6983V11.8328H91.978V14.2227H87.2956V11.8328H84.978V9.5293Z" fill="#D4D4D4"/>
<path d="M94.4233 14.2251H96.7327V16.581H101.563V18.9181H94.4233V14.2251Z" fill="#D4D4D4"/>
<path d="M101.558 14.2044V16.5817H96.7277V14.2255H91.9777V11.8356H89.698V9.53213H84.9777V7.14228H77.8906V4.78369H68.4418V2.38525H56.6512V4.78369H49.6047V7.14228H44.8801V9.50049H42.5324V11.8356H35.3992V14.2255H30.7488V16.5817H25.9816V18.9399H23.5832V21.2603H21.2359V23.6099H18.8441V28.3075H14.1531V33.0282H11.7848V40.1032H9.41796V44.8306H7.11719V49.545H4.7168V37.7556H7.07266V33.0497H9.4289V28.3329H11.8016V25.9872H14.1449V21.254H16.5137V18.906H18.8652V16.5396H21.2273V14.1915H25.9668V11.8438H28.3184V9.46026H33.041L33.0367 7.12939H37.757V4.77315H42.4773V2.41729H49.5578V0.0610352H75.5219V2.41729H82.6027V4.77315H89.6828V7.12939H92.0453L92.0434 9.48565L96.7637 9.4876L96.7551 11.8419H99.1254V14.1981L101.558 14.2044Z" fill="#E6E6E6"/>
<path d="M49.5752 9.49854V11.8333H44.8827V14.2235H37.7702V16.5837H33.0393V18.938H28.3233V21.2579H25.9143V23.6247H23.5862V25.981H21.2385V33.1024H18.8741V37.7599H16.5374V40.1013H14.1561V35.3888H11.7874V33.0263H14.1561V28.3056H18.8467V23.6079H21.2385V21.2579H23.5862V18.938H25.9842V16.5798H30.7514V14.2235H35.4018V11.8333H42.535V9.49854H49.5752Z" fill="#EAEAEA"/>
</g>
</svg>
