<svg width="176" height="64" viewBox="0 0 176 64" fill="none" xmlns="http://www.w3.org/2000/svg">
<rect width="176" height="64" fill="#17181A"/>
<path d="M57.21 31.7359H59.6969C59.895 31.7359 60.0271 31.6039 60.0271 31.4058V25.5516H65.6832V31.4058C65.6832 31.6039 65.8152 31.7359 66.0133 31.7359H68.5002C68.6983 31.7359 68.8304 31.6039 68.8304 31.4058V16.6602C68.8304 16.4621 68.6983 16.3301 68.5002 16.3301H66.0133C65.8152 16.3301 65.6832 16.4621 65.6832 16.6602V22.7785H60.0271V16.6602C60.0271 16.4621 59.895 16.3301 59.6969 16.3301H57.21C57.0119 16.3301 56.8799 16.4621 56.8799 16.6602V31.4058C56.8799 31.6039 57.0119 31.7359 57.21 31.7359Z" fill="#F4F4F4"/>
<path d="M75.9095 32C77.4281 32 78.8146 31.5598 79.739 30.6355C79.937 30.4594 79.9591 30.3054 79.849 30.1513L79.0347 29.0289C78.9247 28.8748 78.8146 28.8528 78.6606 28.9409C77.7802 29.447 76.9879 29.6011 76.1516 29.6011C74.413 29.6011 73.2906 28.8528 72.9604 27.4883H79.5189C80.4652 27.4883 80.7073 26.8941 80.7073 25.8377C80.7073 23.1087 78.8146 20.6877 75.5354 20.6877C72.2121 20.6877 69.9893 23.1307 69.9893 26.2999C69.9893 29.5571 72.3662 32 75.9095 32ZM72.9164 25.3535C73.1805 23.923 74.2149 23.1967 75.5574 23.1967C76.8559 23.1967 77.8243 23.923 78.0003 25.3535H72.9164Z" fill="#F4F4F4"/>
<path d="M81.9771 31.7359H84.376C84.5741 31.7359 84.7062 31.6039 84.7062 31.4058V16.3301C84.7062 16.1321 84.5741 16 84.376 16H81.9771C81.7791 16 81.647 16.1321 81.647 16.3301V31.4058C81.647 31.6039 81.7791 31.7359 81.9771 31.7359Z" fill="#F4F4F4"/>
<path d="M87.5508 31.7359H89.9497C90.1478 31.7359 90.2799 31.6039 90.2799 31.4058V16.3301C90.2799 16.1321 90.1478 16 89.9497 16H87.5508C87.3528 16 87.2207 16.1321 87.2207 16.3301V31.4058C87.2207 31.6039 87.3528 31.7359 87.5508 31.7359Z" fill="#F4F4F4"/>
<path d="M96.9002 32C100.135 32 102.534 29.5351 102.534 26.3439C102.534 23.1527 100.135 20.6877 96.9002 20.6877C93.643 20.6877 91.2441 23.1527 91.2441 26.3439C91.2441 29.5351 93.643 32 96.9002 32ZM94.1712 26.3439C94.1712 24.5832 95.3596 23.4828 96.9002 23.4828C98.4188 23.4828 99.6072 24.5832 99.6072 26.3439C99.6072 28.1045 98.4188 29.205 96.9002 29.205C95.3596 29.205 94.1712 28.1045 94.1712 26.3439Z" fill="#F4F4F4"/>
<path d="M107.23 31.7359H109.717C109.915 31.7359 110.047 31.6039 110.047 31.4058V22.2283L110.333 23.1747L113.59 31.4718C113.656 31.6479 113.811 31.7359 113.987 31.7359H116.187C116.364 31.7359 116.518 31.6479 116.584 31.4718L119.841 23.1747L120.127 22.2283V31.4058C120.127 31.6039 120.259 31.7359 120.457 31.7359H122.944C123.142 31.7359 123.274 31.6039 123.274 31.4058V16.6602C123.274 16.4621 123.142 16.3301 122.944 16.3301H120.061C119.885 16.3301 119.753 16.3961 119.687 16.5502L115.087 28.1045L110.487 16.5502C110.421 16.3961 110.289 16.3301 110.113 16.3301H107.23C107.032 16.3301 106.9 16.4621 106.9 16.6602V31.4058C106.9 31.6039 107.032 31.7359 107.23 31.7359Z" fill="#F4F4F4"/>
<path d="M130.093 32C133.328 32 135.727 29.5351 135.727 26.3439C135.727 23.1527 133.328 20.6877 130.093 20.6877C126.836 20.6877 124.437 23.1527 124.437 26.3439C124.437 29.5351 126.836 32 130.093 32ZM127.364 26.3439C127.364 24.5832 128.552 23.4828 130.093 23.4828C131.612 23.4828 132.8 24.5832 132.8 26.3439C132.8 28.1045 131.612 29.205 130.093 29.205C128.552 29.205 127.364 28.1045 127.364 26.3439Z" fill="#F4F4F4"/>
<path d="M141.781 32C145.016 32 147.415 29.5351 147.415 26.3439C147.415 23.1527 145.016 20.6877 141.781 20.6877C138.523 20.6877 136.124 23.1527 136.124 26.3439C136.124 29.5351 138.523 32 141.781 32ZM139.052 26.3439C139.052 24.5832 140.24 23.4828 141.781 23.4828C143.299 23.4828 144.488 24.5832 144.488 26.3439C144.488 28.1045 143.299 29.205 141.781 29.205C140.24 29.205 139.052 28.1045 139.052 26.3439Z" fill="#F4F4F4"/>
<path d="M148.692 31.7359H151.069C151.267 31.7359 151.399 31.6039 151.399 31.4058V25.8157C151.399 24.2971 152.236 23.4828 153.512 23.4828C154.811 23.4828 155.515 24.2971 155.515 25.8157V31.4058C155.515 31.6039 155.647 31.7359 155.845 31.7359H158.2C158.398 31.7359 158.552 31.6039 158.552 31.4058V25.1334C158.552 22.3164 156.901 20.6877 154.657 20.6877C153.05 20.6877 152.016 21.48 151.399 22.5805L151.311 21.304C151.311 21.0399 151.179 20.9518 150.981 20.9518H148.692C148.494 20.9518 148.362 21.0839 148.362 21.282V31.4058C148.362 31.6039 148.494 31.7359 148.692 31.7359Z" fill="#F4F4F4"/>
<path d="M59.616 47H60.168C60.264 47 60.304 46.944 60.248 46.856L58.912 44.856C59.776 44.664 60.216 44.016 60.216 43.16C60.216 42.128 59.576 41.4 58.336 41.4H56.768C56.696 41.4 56.648 41.44 56.648 41.512V46.888C56.648 46.96 56.696 47 56.768 47H57.288C57.36 47 57.4 46.96 57.4 46.888V44.92H58.168L59.472 46.92C59.504 46.976 59.552 47 59.616 47ZM57.4 44.256V42.064H58.288C58.952 42.064 59.488 42.344 59.488 43.16C59.488 43.976 58.952 44.256 58.288 44.256H57.4ZM62.4877 47H63.0077C63.0797 47 63.1197 46.96 63.1197 46.888V44.92H64.0557C65.2957 44.92 65.9357 44.192 65.9357 43.16C65.9357 42.128 65.2957 41.4 64.0557 41.4H62.4877C62.4157 41.4 62.3677 41.44 62.3677 41.512V46.888C62.3677 46.96 62.4157 47 62.4877 47ZM63.1197 44.256V42.064H64.0077C64.6717 42.064 65.2077 42.344 65.2077 43.16C65.2077 43.976 64.6717 44.256 64.0077 44.256H63.1197ZM70.7287 47.104C71.5127 47.104 72.1447 46.816 72.6407 46.352C72.6967 46.296 72.7207 46.24 72.6567 46.176L72.3367 45.824C72.2887 45.776 72.2327 45.768 72.1687 45.832C71.7767 46.168 71.3127 46.376 70.7367 46.376C69.5367 46.376 68.6327 45.464 68.6327 44.224C68.6327 42.984 69.5367 42.064 70.7367 42.064C71.3127 42.064 71.7767 42.272 72.1687 42.608C72.2327 42.664 72.2887 42.664 72.3367 42.608L72.6567 42.264C72.7127 42.192 72.6967 42.136 72.6407 42.08C72.1447 41.624 71.5127 41.336 70.7287 41.336C69.0887 41.336 67.8727 42.6 67.8727 44.224C67.8727 45.848 69.0887 47.104 70.7287 47.104ZM74.4545 42.896V43.12C75.0465 43.136 75.5585 42.632 75.5585 41.992C75.5585 41.52 75.2785 41.256 74.9665 41.256C74.6865 41.256 74.4625 41.464 74.4625 41.744C74.4625 42.024 74.6705 42.232 74.9665 42.224C75.2145 42.224 74.9985 42.888 74.4545 42.896ZM77.9282 47.096C78.6562 47.096 79.2962 46.696 79.2962 45.952C79.3042 45.344 78.8962 45.032 78.3922 44.824L77.9602 44.648C77.6082 44.512 77.3682 44.384 77.3682 44.056C77.3682 43.744 77.6322 43.576 77.9602 43.576C78.2322 43.576 78.4802 43.688 78.7282 43.936C78.8002 44.008 78.8562 44.016 78.9202 43.936L79.1122 43.712C79.1522 43.664 79.1682 43.6 79.1202 43.544C78.8242 43.176 78.3922 42.984 77.9282 42.984C77.2562 42.984 76.6802 43.392 76.6802 44.072C76.6802 44.624 77.0722 44.928 77.5522 45.128L78.0242 45.328C78.3762 45.472 78.5842 45.616 78.5842 45.936C78.5842 46.296 78.3042 46.472 77.8962 46.472C77.5042 46.472 77.2162 46.304 76.9522 46.048C76.8882 45.984 76.8162 45.984 76.7602 46.056L76.6002 46.28C76.5522 46.36 76.5442 46.424 76.6002 46.488C76.8482 46.792 77.2882 47.096 77.9282 47.096ZM84.1564 47H84.6764C84.7484 47 84.7884 46.96 84.7884 46.888V44.408H86.7084C86.7804 44.408 86.8284 44.368 86.8284 44.296V43.856C86.8284 43.784 86.7804 43.744 86.7084 43.744H84.7884V42.064H86.8124C86.8844 42.064 86.9324 42.024 86.9324 41.952V41.512C86.9324 41.44 86.8844 41.4 86.8124 41.4H84.1564C84.0844 41.4 84.0364 41.44 84.0364 41.512V46.888C84.0364 46.96 84.0844 47 84.1564 47ZM91.7025 47.104C93.3025 47.104 94.5665 45.84 94.5665 44.224C94.5665 42.6 93.3025 41.336 91.7025 41.336C90.0945 41.336 88.8305 42.6 88.8305 44.224C88.8305 45.84 90.0945 47.104 91.7025 47.104ZM89.5905 44.224C89.5905 42.992 90.5025 42.064 91.7025 42.064C92.9025 42.064 93.8145 42.992 93.8145 44.224C93.8145 45.448 92.9025 46.376 91.7025 46.376C90.5025 46.376 89.5905 45.448 89.5905 44.224ZM99.7172 47H100.269C100.365 47 100.405 46.944 100.349 46.856L99.0132 44.856C99.8772 44.664 100.317 44.016 100.317 43.16C100.317 42.128 99.6772 41.4 98.4372 41.4H96.8692C96.7972 41.4 96.7492 41.44 96.7492 41.512V46.888C96.7492 46.96 96.7972 47 96.8692 47H97.3892C97.4612 47 97.5012 46.96 97.5012 46.888V44.92H98.2692L99.5732 46.92C99.6052 46.976 99.6532 47 99.7172 47ZM97.5012 44.256V42.064H98.3892C99.0532 42.064 99.5892 42.344 99.5892 43.16C99.5892 43.976 99.0532 44.256 98.3892 44.256H97.5012ZM105.223 47H106.559C108.487 47 109.407 45.792 109.407 44.2C109.407 42.608 108.487 41.4 106.559 41.4H105.223C105.151 41.4 105.103 41.44 105.103 41.512V46.888C105.103 46.96 105.151 47 105.223 47ZM105.855 46.328V42.064H106.543C107.991 42.064 108.647 42.864 108.647 44.2C108.647 45.536 107.991 46.328 106.543 46.328H105.855ZM111.661 47H114.389C114.461 47 114.501 46.96 114.501 46.888V46.448C114.501 46.376 114.461 46.328 114.389 46.328H112.293V44.456H114.277C114.349 44.456 114.389 44.416 114.389 44.344V43.904C114.389 43.832 114.349 43.792 114.277 43.792H112.293V42.064H114.381C114.453 42.064 114.501 42.024 114.501 41.952V41.512C114.501 41.44 114.453 41.4 114.381 41.4H111.661C111.589 41.4 111.541 41.44 111.541 41.512V46.888C111.541 46.96 111.589 47 111.661 47ZM118.49 47H119.074C119.138 47 119.202 46.968 119.226 46.904L121.146 41.536C121.178 41.456 121.138 41.4 121.05 41.4H120.506C120.442 41.4 120.402 41.424 120.378 41.496L118.786 46.088L117.194 41.496C117.17 41.424 117.13 41.4 117.058 41.4H116.514C116.426 41.4 116.394 41.456 116.426 41.536L118.346 46.904C118.37 46.968 118.426 47 118.49 47ZM123.257 47H125.985C126.057 47 126.097 46.96 126.097 46.888V46.448C126.097 46.376 126.057 46.328 125.985 46.328H123.889V44.456H125.873C125.945 44.456 125.985 44.416 125.985 44.344V43.904C125.985 43.832 125.945 43.792 125.873 43.792H123.889V42.064H125.977C126.049 42.064 126.097 42.024 126.097 41.952V41.512C126.097 41.44 126.049 41.4 125.977 41.4H123.257C123.185 41.4 123.137 41.44 123.137 41.512V46.888C123.137 46.96 123.185 47 123.257 47ZM128.484 47H131.06C131.132 47 131.18 46.952 131.18 46.88V46.448C131.18 46.376 131.132 46.328 131.06 46.328H129.116V41.512C129.116 41.44 129.076 41.4 129.004 41.4H128.484C128.412 41.4 128.364 41.44 128.364 41.512V46.888C128.364 46.96 128.412 47 128.484 47ZM135.593 47.104C137.193 47.104 138.457 45.84 138.457 44.224C138.457 42.6 137.193 41.336 135.593 41.336C133.985 41.336 132.721 42.6 132.721 44.224C132.721 45.84 133.985 47.104 135.593 47.104ZM133.481 44.224C133.481 42.992 134.393 42.064 135.593 42.064C136.793 42.064 137.705 42.992 137.705 44.224C137.705 45.448 136.793 46.376 135.593 46.376C134.393 46.376 133.481 45.448 133.481 44.224ZM140.76 47H141.28C141.352 47 141.392 46.96 141.392 46.888V44.92H142.328C143.568 44.92 144.208 44.192 144.208 43.16C144.208 42.128 143.568 41.4 142.328 41.4H140.76C140.688 41.4 140.64 41.44 140.64 41.512V46.888C140.64 46.96 140.688 47 140.76 47ZM141.392 44.256V42.064H142.28C142.944 42.064 143.48 42.344 143.48 43.16C143.48 43.976 142.944 44.256 142.28 44.256H141.392ZM146.425 47H149.153C149.225 47 149.265 46.96 149.265 46.888V46.448C149.265 46.376 149.225 46.328 149.153 46.328H147.057V44.456H149.041C149.113 44.456 149.153 44.416 149.153 44.344V43.904C149.153 43.832 149.113 43.792 149.041 43.792H147.057V42.064H149.145C149.217 42.064 149.265 42.024 149.265 41.952V41.512C149.265 41.44 149.217 41.4 149.145 41.4H146.425C146.353 41.4 146.305 41.44 146.305 41.512V46.888C146.305 46.96 146.353 47 146.425 47ZM154.5 47H155.052C155.148 47 155.188 46.944 155.132 46.856L153.796 44.856C154.66 44.664 155.1 44.016 155.1 43.16C155.1 42.128 154.46 41.4 153.22 41.4H151.652C151.58 41.4 151.532 41.44 151.532 41.512V46.888C151.532 46.96 151.58 47 151.652 47H152.172C152.244 47 152.284 46.96 152.284 46.888V44.92H153.052L154.356 46.92C154.388 46.976 154.436 47 154.5 47ZM152.284 44.256V42.064H153.172C153.836 42.064 154.372 42.344 154.372 43.16C154.372 43.976 153.836 44.256 153.172 44.256H152.284ZM158.522 47.096C159.514 47.096 160.29 46.536 160.29 45.536C160.29 44.624 159.658 44.24 159.01 43.928L158.378 43.624C157.898 43.392 157.666 43.168 157.666 42.776C157.666 42.288 158.05 42.024 158.562 42.024C158.994 42.024 159.314 42.208 159.634 42.544C159.698 42.608 159.762 42.608 159.818 42.536L160.074 42.24C160.122 42.176 160.138 42.128 160.066 42.056C159.69 41.608 159.186 41.336 158.538 41.336C157.65 41.336 156.938 41.88 156.938 42.784C156.938 43.496 157.37 43.92 157.962 44.192L158.642 44.52C159.162 44.768 159.562 44.992 159.562 45.536C159.562 46.072 159.17 46.408 158.514 46.408C157.954 46.408 157.586 46.16 157.282 45.784C157.226 45.728 157.154 45.712 157.098 45.776L156.834 46.08C156.778 46.144 156.778 46.192 156.818 46.256C157.13 46.704 157.69 47.096 158.522 47.096Z" fill="#F4F4F4"/>
<mask id="mask0_1989_684" style="mask-type:luminance" maskUnits="userSpaceOnUse" x="16" y="16" width="32" height="32">
<path d="M48 16H16V48H48V16Z" fill="white"/>
</mask>
<g mask="url(#mask0_1989_684)">
<path d="M37.1373 38.335H36.5332V38.9315H37.1373V38.335Z" fill="#EAEAEA"/>
<path d="M38.3648 37.127H37.7471V37.7192H38.3648V37.127Z" fill="white"/>
<path d="M44.3946 38.3347V37.7195H43.7965V36.5246H42.5837V35.9214H41.3682V37.1278H39.5642V38.3347H38.9638V38.9303H38.364V40.7355H37.7501V40.1545H36.5433V40.7355H35.336V42.5521H34.7334V43.7633H34.1184V44.3589H33.5185V43.7633H32.3057V45.5686H31.1022V46.1761H29.909V45.575H28.6903V44.961H26.8755V46.1761H27.4797V46.7793H26.8755V47.3825H29.2928L29.2923 47.9855L35.3349 47.9861L35.3381 47.3781H37.1518V46.7857L38.357 46.7798L38.3548 46.1761L39.5642 46.1766L39.5649 45.5734L40.7728 45.5729L40.7733 44.9697H41.3769V44.3665H42.5858V43.7633H40.7673V44.3703H40.1664V44.9735H39.5534V44.3703H40.1664V43.7633H38.9638V42.5521H38.364V43.1602H37.7496V42.5521H38.364V41.9538C38.364 41.9538 41.3818 41.9657 41.3698 41.9538C41.358 41.9419 41.3698 43.1574 41.3698 43.1574H41.9676V40.1442H43.7942V39.5302H43.196V38.9265H43.1933V38.3347H44.3946ZM36.5336 42.5521H35.9369V41.9538L36.5336 41.9511V42.5521ZM38.364 43.7633V44.3703H38.952V45.5766H38.364V44.3703H37.7496V43.7633H38.364Z" fill="white"/>
<path d="M36.5335 37.7347V38.3357H35.937V37.7341L36.5335 37.7347Z" fill="white"/>
<path d="M20.2279 34.7201H19.6259V35.3169H18.4175V34.1116H20.2225L20.2279 34.7201Z" fill="#959595"/>
<path d="M31.107 19.0289V19.6408H30.4967V20.244H29.2905V19.6408H27.4888V19.0289H28.6901V18.4312H30.5022V19.0289H31.107Z" fill="white"/>
<path d="M33.5212 16.6101H30.5029V17.2252H33.5212V16.6101Z" fill="#EAEAEA"/>
<path d="M27.4797 46.177H26.8755V46.7813H27.4797V46.177Z" fill="#959595"/>
<path d="M23.8486 40.7488V41.3503H20.8319V40.7471H20.2288V39.5424H19.6252V38.3339H19.0204V36.5248H18.4162V35.9114H17.812V35.318H17.8212V32.9058H18.4162V35.318H19.6246V36.5248H20.2294V38.9366H21.4356V39.5424H22.0387V40.1451H22.6429V40.7488H23.8486Z" fill="#888888"/>
<path d="M28.6888 42.564H28.0835V43.1605H28.6888V42.564Z" fill="#888888"/>
<path d="M26.8841 43.7639H25.6719V44.3682H26.8841V43.7639Z" fill="#ADADAD"/>
<path d="M26.8694 43.1538H26.2788V43.765H26.8694V43.1538Z" fill="#B4B4B4"/>
<path d="M26.8769 46.177H25.6685V46.7801H26.8769V46.177Z" fill="white"/>
<path d="M25.667 45.5741L25.6654 46.1767L24.4575 46.1733L24.4581 45.5708L25.667 45.5741Z" fill="white"/>
<path d="M24.4589 44.9695H23.2505V45.5738H24.4589V44.9695Z" fill="white"/>
<path d="M22.041 43.1592H20.832V43.7633H22.041V43.1592Z" fill="white"/>
<path d="M23.2487 44.3667H22.6445V44.971H23.2487V44.3667Z" fill="white"/>
<path d="M22.6477 43.7639H22.0435V44.3682H22.6477V43.7639Z" fill="white"/>
<path d="M20.8342 42.5559H20.23V43.1606H20.8342V42.5559Z" fill="white"/>
<path d="M19.6232 40.7476H19.019V41.3518H19.6232V40.7476Z" fill="white"/>
<path d="M18.4162 38.9373H17.812V39.5414H18.4162V38.9373Z" fill="white"/>
<path d="M20.2287 41.3503H19.6245V42.5567H20.2287V41.3503Z" fill="white"/>
<path d="M19.0217 39.54H18.4175V40.7464H19.0217V39.54Z" fill="white"/>
<path d="M17.8108 37.127H17.2065V38.9366H17.8108V37.127Z" fill="white"/>
<path d="M17.2091 35.3186H16.606V37.1281H17.2091V35.3186Z" fill="white"/>
<path d="M16.6037 28.6824H15.9995V35.3173H16.6037V28.6824Z" fill="white"/>
<path d="M28.6918 43.1593V43.7625H28.0838V44.9601H26.877V46.1751H25.6686L25.6702 45.5735L24.4612 45.5703L24.4602 44.9687H23.2518V44.3655H22.6476V43.7625H22.0434V43.1593H20.8344V42.5555H20.2302V41.3491H19.626V40.7459H19.0218V39.5395H18.4176V38.9365H17.8134V37.1269H17.2092V35.3173H16.6061L16.605 35.3162V28.6824H17.8248V35.3173H17.8134V35.9102H18.4176V36.5237H19.0218V38.3327H19.6265V39.5413H20.2302V40.7459H20.8333V41.3491H23.85V41.9523H26.2793V43.7625H25.6734V44.3655H26.8856V43.7625H27.479V43.1593H28.6918Z" fill="#959595"/>
<path d="M31.1009 43.1592V44.3654H29.8943V44.96H28.0811V43.7624H28.6891V43.1592H31.1009Z" fill="#888888"/>
<path d="M32.3049 43.7639V45.5691H31.1014V46.1767H29.9082V45.5757H28.6895V44.9616H29.8946V44.3671H31.1014V43.7639H32.3049Z" fill="#959595"/>
<path d="M31.1007 43.1597V40.1546H28.6888V39.5396H28.0835V41.3497H29.2903V41.9572H28.0835V42.5641H28.6888V43.1597H31.1007Z" fill="#7F7F7F"/>
<path d="M28.6888 41.3503H28.0835V41.9589H28.6888V41.3503Z" fill="#C4C4C4"/>
<path d="M29.2909 41.3503H28.6895V41.9589H29.2909V41.3503Z" fill="#ADADAD"/>
<path d="M33.5177 43.1608V43.764H31.7051V41.9583H32.3049V42.556H32.9113V43.1608H33.5177Z" fill="#7F7F7F"/>
<path d="M31.7076 41.9583H31.104V43.764H31.7076V41.9583Z" fill="#868686"/>
<path d="M34.1174 43.7639H33.5176V44.3604H34.1174V43.7639Z" fill="#959595"/>
<path d="M34.7316 43.1608V43.764H33.5167V43.1608H32.9103V42.556H32.3039V41.9582H31.1004V40.1557H28.6884V39.5406H28.0832V38.9374H27.4746V38.3364H28.0832V35.9226H28.6884V35.3184H29.2905V39.5406H29.8958V36.5269H30.5011V37.1312H31.0994V37.725H31.704V41.3512H33.5204V42.5526H34.1242V43.1608H34.7316Z" fill="#919191"/>
<path d="M26.8694 41.9531H26.2788V43.153H26.8694V41.9531Z" fill="#A6A6A6"/>
<path d="M26.2779 41.3503H25.6558V41.9546H26.2779V41.3503Z" fill="#A6A6A6"/>
<path d="M25.6543 40.7495H25.0522V41.3506H25.6543V40.7495Z" fill="#A6A6A6"/>
<path d="M25.052 40.1404H24.4575V40.7505H25.052V40.1404Z" fill="#969696"/>
<path d="M24.4584 40.1404H23.8477V40.7494H24.4584V40.1404Z" fill="#C9C9C9"/>
<path d="M23.8477 40.7488V41.9536H25.6548V41.3504H25.0528V40.75L23.8477 40.7488Z" fill="#7F7F7F"/>
<path d="M28.0855 43.1594V40.1428H27.4769V41.3498H26.8846V40.746H26.2788V41.3492V41.9524H26.8689V43.7626H27.478V43.1594H28.0855Z" fill="white"/>
<path d="M27.478 40.7488H26.8857V41.352H27.478V40.7488Z" fill="#C4C4C4"/>
<path d="M27.478 40.1428H26.8857V40.7487H27.478V40.1428Z" fill="#B0B0B0"/>
<path d="M28.0832 38.9368H27.4746V40.1436H28.0832V38.9368Z" fill="#C4C4C4"/>
<path d="M26.2788 40.7471V40.1428H26.8846V40.7487L26.2788 40.7471Z" fill="#C4C4C4"/>
<path d="M26.2779 40.1428H25.6558V41.3492H26.2779V40.1428Z" fill="#EAEAEA"/>
<path d="M25.6543 40.1428H25.0522V40.7503H25.6543V40.1428Z" fill="#DFDFDF"/>
<path d="M24.4575 40.1421V39.5407C24.4575 39.5407 25.0265 39.5156 25.052 39.5407C25.0769 39.5656 25.052 40.1453 25.052 40.1453L24.4575 40.1421Z" fill="#909090"/>
<path d="M25.6543 39.5396H25.0522V40.1444H25.6543V39.5396Z" fill="#ADADAD"/>
<path d="M26.2779 39.5396H25.6558V40.1444H26.2779V39.5396Z" fill="#B0B0B0"/>
<path d="M26.8846 39.5396H26.2788V40.1444H26.8846V39.5396Z" fill="#B0B0B0"/>
<path d="M28.6903 35.3167V35.921H28.085V38.3349H27.4764V40.1427H26.8842V39.539H24.4592V40.1395H23.8485V40.7475H22.6428V40.1438H22.0386V39.5413H22.6466V38.9358H22.0386V37.7274H20.8302V36.5258L20.2293 36.5247L19.6245 36.5237V34.7201H20.2265L20.2211 34.1115V34.1039H20.8302V32.2943H21.4442L21.4328 31.6895H22.0446L22.0392 31.1015H23.2568V30.4907H22.6466V28.6824H23.2568V29.8859H23.8632V29.2921L25.0634 29.2866V29.8914L25.6752 29.8859V30.4907H24.4516V31.695H23.8632L23.8485 34.7147H26.876V34.1115H27.4764V34.7147L28.0823 34.7201V35.3167H28.6903Z" fill="#7F7F7F"/>
<path d="M22.6446 33.51H22.0371V34.1088H22.6446V33.51Z" fill="#969696"/>
<path d="M25.0553 35.9277H23.2471V36.5276H25.0553V35.9277Z" fill="#909090"/>
<path d="M25.6646 35.3184H25.0522V35.9296H25.6646V35.3184Z" fill="#969696"/>
<path d="M26.2798 35.3184H25.6675V35.9296H26.2798V35.3184Z" fill="#C9C9C9"/>
<path d="M26.877 35.3184H26.2788V35.9296H26.877V35.3184Z" fill="#969696"/>
<path d="M27.4758 35.3184H26.876V35.9296H27.4758V35.3184Z" fill="#C9C9C9"/>
<path d="M20.2305 36.5242V37.1284H20.8314V36.5264L20.2305 36.5242Z" fill="#C9C9C9"/>
<path d="M22.6446 37.127H22.0366V37.7284H22.6446V37.127Z" fill="#969696"/>
<path d="M22.6446 36.5259H22.0366V37.1279H22.6446V36.5259Z" fill="#919191"/>
<path d="M20.2305 38.9356H21.4367V39.5416H22.0398H22.6478V38.9362H22.0398V37.7278H20.2305V38.9356Z" fill="#B6B6B6"/>
<path d="M33.524 41.3512V40.7351H32.9019V41.3507L33.524 41.3512Z" fill="#DFDFDF"/>
<path d="M32.8995 40.7359H32.3099V40.1548H31.7051V41.3509H32.8995V40.7359Z" fill="#D4D4D4"/>
<path d="M33.524 40.1548H32.9019V40.7368H33.524V40.1548Z" fill="#D4D4D4"/>
<path d="M35.3342 40.7351V41.9507H34.7317V42.5516H33.5205V40.7351H34.1161V41.3496H34.7317V40.7351H35.3342Z" fill="#D4D4D4"/>
<path d="M34.733 42.5525H34.1255V43.1616H34.733V42.5525Z" fill="#DFDFDF"/>
<path d="M35.3364 41.9517H34.7339V42.5537H35.3364V41.9517Z" fill="#DFDFDF"/>
<path d="M32.9006 40.1548H32.311V40.7368H32.9006V40.1548Z" fill="#EAEAEA"/>
<path d="M35.3352 39.5396H31.7051V40.1552H35.3352V39.5396Z" fill="#EAEAEA"/>
<path d="M38.3624 38.9306V40.1548H36.5416V40.7358H33.5205V40.1548H35.3342V39.5402H35.9352V38.335H36.5318V38.9306H38.3624Z" fill="#DFDFDF"/>
<path d="M34.7352 40.7351H34.1196V41.3507H34.7352V40.7351Z" fill="#DFDFDF"/>
<path d="M32.3023 37.7249H31.7051V39.5409H32.3023V37.7249Z" fill="#D4D4D4"/>
<path d="M35.9351 38.9299H32.3013V39.5411H35.9351V38.9299Z" fill="white"/>
<path d="M31.7039 37.1311H31.0991V37.7262H31.7039V37.1311Z" fill="#7F7F7F"/>
<path d="M37.7482 37.1274V37.7186H38.3659V38.3342H37.1391V37.7348L36.5387 37.7343H36.5354L35.9388 37.7338L35.3379 37.7332V37.136H37.1391V36.5242H38.3659V37.1274H37.7482Z" fill="#DFDFDF"/>
<path d="M35.9374 37.7327V38.9294H35.3364V38.3338H34.7339V37.1355H35.3364V37.7327H35.9374Z" fill="#E6E6E6"/>
<path d="M37.1368 37.7344H36.5332V38.3353H37.1368V37.7344Z" fill="white"/>
<path d="M38.3651 38.335H37.1382V38.9315H38.3651V38.335Z" fill="white"/>
<path d="M38.364 40.1548H37.75V40.7368H38.364V40.1548Z" fill="#EAEAEA"/>
<path d="M38.9627 36.5242H38.3628V37.1283H38.9627V36.5242Z" fill="white"/>
<path d="M39.5631 37.127H38.3628V38.3339H39.5631V37.127Z" fill="#DFDFDF"/>
<path d="M38.9627 38.335H38.3628V38.9315H38.9627V38.335Z" fill="#DFDFDF"/>
<path d="M34.7318 37.1368V38.3356H35.3344V38.9312H32.3015V37.7253H31.7043V37.1313H31.0995H30.5012V36.527H29.896V35.9282L29.8955 34.7158H31.7043V36.5254H32.3123V37.1281L34.7318 37.1368Z" fill="#EAEAEA"/>
<path d="M32.3131 34.7158H31.7051V36.5254H32.3131V34.7158Z" fill="#D1D1D1"/>
<path d="M25.6753 31.0962H25.0635V31.6933H25.6753V31.0962Z" fill="#D4D4D4"/>
<path d="M35.333 36.5242L35.3342 37.137L37.1354 37.1364V36.5242H35.333Z" fill="#EAEAEA"/>
<path d="M35.9307 35.9277H35.333V36.5255H35.9307V35.9277Z" fill="#EAEAEA"/>
<path d="M20.8314 37.127H20.2305V37.7284H20.8314V37.127Z" fill="#969696"/>
<path d="M40.1671 32.9053H39.563V33.503H40.1671V32.9053Z" fill="white"/>
<path d="M40.7715 32.9053H40.1685V33.503H40.7715V32.9053Z" fill="#EAEAEA"/>
<path d="M40.777 33.5017H40.1685V34.0994H40.777V33.5017Z" fill="white"/>
<path d="M26.8756 32.3025H26.2671V32.9121H26.8756V32.3025Z" fill="#D1D1D1"/>
<path d="M29.2935 39.5403H29.8987V36.5265V35.9277H29.2935V39.5403Z" fill="#D1D1D1"/>
<path d="M33.5219 35.9277H32.3135V36.5253H33.5219V35.9277Z" fill="#DFDFDF"/>
<path d="M34.1217 34.7161H32.3135V35.3197H34.1217V34.7161Z" fill="#DFDFDF"/>
<path d="M34.1217 35.3184H32.3135V35.9296H34.1217V35.3184Z" fill="#EAEAEA"/>
<path d="M32.3135 36.5242H32.9176V37.1306L32.3135 37.1284V36.5242Z" fill="#D1D1D1"/>
<path d="M32.9189 37.1306V36.5242H33.5232V37.1322L32.9189 37.1306Z" fill="#EAEAEA"/>
<path d="M33.5205 36.5242V37.1322L34.1204 37.1343V36.5242H33.5205Z" fill="#DFDFDF"/>
<path d="M34.1204 35.9277H33.5205V36.5253H34.1204V35.9277Z" fill="white"/>
<path d="M34.123 36.5242H35.3357L35.3368 37.1371L34.123 37.1343V36.5242Z" fill="white"/>
<path d="M34.7342 35.9277H34.123V36.5253H34.7342V35.9277Z" fill="#EAEAEA"/>
<path d="M35.3354 35.9277H34.7339V36.5253H35.3354V35.9277Z" fill="#E6E6E6"/>
<path d="M35.9334 35.3184H34.123V35.9296H35.9334V35.3184Z" fill="#DFDFDF"/>
<path d="M34.1229 34.7142V35.3167H34.7341V34.7142V34.0979V32.2961H34.1229V31.6929H33.523V31.0962H32.3108V31.6987H32.9204V32.9101H32.3108V32.3074H31.7012V33.5067H32.3146V34.7142H34.1229Z" fill="#EAEAEA"/>
<path d="M24.4503 30.4919H25.6739V31.0973H25.0621V32.2911H24.4503V33.511H25.6739H26.2624V34.1082H26.8747V34.7153H23.8472V31.6961H24.4503V30.4919Z" fill="#919191"/>
<path d="M25.6763 33.51H25.0591V34.1104H25.6763V33.51Z" fill="#7F7F7F"/>
<path d="M28.0777 34.1116H27.4746V34.7212H28.0777V34.1116Z" fill="#919191"/>
<path d="M28.0791 34.7202H28.6898V35.3179H28.0818L28.0791 34.7202Z" fill="#919191"/>
<path d="M25.6743 33.5116V32.9116H26.8751V33.5116H29.2952V34.7218H29.8961V35.9282H29.2914V35.3184H28.6894V34.7218H28.0786V34.1132H26.2628V33.5116H25.6743Z" fill="#B6B6B6"/>
<path d="M29.8955 34.7212V34.1116H32.3123V34.7152L29.8955 34.7212Z" fill="#DFDFDF"/>
<path d="M32.3141 33.5076H31.7012V34.1134H32.3141V33.5076Z" fill="#D1D1D1"/>
<path d="M31.7 34.1126V33.5078H31.105V31.6934H29.2897V32.2966H28.6898V32.9111H28.0791V31.6934H26.8756V31.0973H27.476V30.4919H26.2573V31.0973H25.6748V31.6934H25.063V32.2911H25.6748V32.9111H26.2671V32.3019H26.8756V32.9111V33.511H29.2957V34.7211H29.8966V34.1126H31.7Z" fill="#EAEAEA"/>
<path d="M25.6757 32.9103V32.2903H24.4521V33.5102H25.6757V32.9103Z" fill="#D4D4D4"/>
<path d="M26.2568 30.4919H25.6743V31.0982H26.2568V30.4919Z" fill="#D4D4D4"/>
<path d="M33.5205 31.0966H34.7317V30.4911H35.3261V29.2827H35.9417V30.4911H37.762V31.0966H38.9486V30.4939H39.555V29.2854H40.1706V31.0966H40.7596V31.6873H41.3752V32.2931V32.9045H39.5616H38.3596H35.3261H34.7317V32.2965H34.1204V31.6933H33.5205V31.0966Z" fill="#E6E6E6"/>
<path d="M35.3281 32.9061V32.3035H37.1488V32.912L35.3281 32.9061Z" fill="#DFDFDF"/>
<path d="M37.1504 32.912V32.3035H38.3745V32.9061L37.1504 32.912Z" fill="#EAEAEA"/>
<path d="M40.7688 32.3035H40.1592V32.9061H40.7688V32.3035Z" fill="#DFDFDF"/>
<path d="M40.1602 32.3039H39.563V31.6931H40.7611H41.3767V32.2942V32.9055H40.7703V32.3039H40.1602Z" fill="#EAEAEA"/>
<path d="M37.1387 35.9277H35.9336V36.5255H37.1387V35.9277Z" fill="#DFDFDF"/>
<path d="M35.9331 32.9053H34.7339V34.0991H35.9331V32.9053Z" fill="#E6E6E6"/>
<path d="M35.9331 34.7158H34.7339V35.3196H35.9331V34.7158Z" fill="#E6E6E6"/>
<path d="M35.9331 34.7157V35.3184H36.5356V34.0996H34.7339V34.7157H35.9331Z" fill="white"/>
<path d="M38.3651 35.9286V36.5253H37.1382V35.3184H37.7517V35.9286H38.3651Z" fill="#EAEAEA"/>
<path d="M35.9341 35.9289H37.1386V35.3186H37.7521V34.7161H36.5366V35.3186H35.9341V35.9289Z" fill="#E6E6E6"/>
<path d="M36.5366 32.9053H35.9341V33.503H36.5366V32.9053Z" fill="#DFDFDF"/>
<path d="M36.5366 33.5017H35.9341V34.0994H36.5366V33.5017Z" fill="#EAEAEA"/>
<path d="M37.1476 32.9053H36.5342V33.503H37.1476V32.9053Z" fill="#E6E6E6"/>
<path d="M37.1476 34.0996H36.5342V34.7163H37.1476V34.0996Z" fill="#EAEAEA"/>
<path d="M37.7496 34.7154V33.5025H38.3631V32.9053H37.1476V33.5025H36.5342V34.0991H37.1476V34.7154H37.7496Z" fill="#DFDFDF"/>
<path d="M38.9632 32.9053H38.3628V33.503H38.9632V32.9053Z" fill="#E6E6E6"/>
<path d="M38.364 33.5017H37.7505V34.0994H38.364V33.5017Z" fill="#EAEAEA"/>
<path d="M38.9644 34.0996H37.7505V34.7163H38.9644V34.0996Z" fill="#E6E6E6"/>
<path d="M42.5836 35.318V35.9216H41.3681V37.128H39.5642V36.5248H38.364V35.9282H37.7505V34.7154H38.3574V35.318H39.5632V34.7154H38.9644V34.0996H38.364V33.5024H38.9644V32.9058H39.5632V33.5024H40.1673V34.0996H40.7758V34.7154H41.3681V35.318H42.5836Z" fill="#DFDFDF"/>
<path d="M38.9648 34.7161H38.3579V35.3197H38.9648V34.7161Z" fill="#EAEAEA"/>
<path d="M39.5641 34.7161H38.9653V35.3197H39.5641V34.7161Z" fill="white"/>
<path d="M39.5641 35.3184H38.9653V35.9226H39.5641V35.3184Z" fill="#E6E6E6"/>
<path d="M39.5657 36.5242H38.9653V37.1284H39.5657V36.5242Z" fill="#EAEAEA"/>
<path d="M40.7733 35.9282H40.1685V36.526H40.7733V35.9282Z" fill="white"/>
<path d="M41.3754 32.9053H40.769V34.0991H41.3754V32.9053Z" fill="#DFDFDF"/>
<path d="M40.769 34.0996H41.3754V34.7169H40.7745L40.769 34.0996Z" fill="white"/>
<path d="M41.9818 34.7161H41.3765V35.3197H41.9818V34.7161Z" fill="white"/>
<path d="M41.9818 34.0996H41.3765V34.7163H41.9818V34.0996Z" fill="#DFDFDF"/>
<path d="M40.1724 29.2866H40.7706V30.4913H41.3769V31.0945H41.979V31.6935H42.5837V31.0945H43.7965V32.3041H41.3769V31.6935H40.7613V31.0979H40.1724V29.2866Z" fill="#A6A6A6"/>
<path d="M43.7953 31.6965H43.1899V32.304H43.7953V31.6965Z" fill="#909090"/>
<path d="M41.3765 32.3035H43.1907V34.7152H42.5833V35.3179H41.9818V34.7152V34.0989H41.3765V32.3035Z" fill="#E6E6E6"/>
<path d="M43.19 34.7161H42.5825V35.3197H43.19V34.7161Z" fill="white"/>
<path d="M43.19 35.3184H42.5825V35.9297H43.19V35.3184Z" fill="#EAEAEA"/>
<path d="M43.7978 31.0946H42.585V31.6936H41.9798V31.0946H41.3777V30.4909H40.7714V29.2861H40.1737H39.5581V28.6819C39.5581 28.6819 41.9857 28.6716 41.9857 28.6819C41.9857 28.6922 41.9857 29.2861 41.9857 29.2861H42.5868V28.677H43.7984V29.2861H44.3966V29.8905H45.0057V31.0996H44.3966V31.6973H43.7978V31.0946Z" fill="#909090"/>
<path d="M43.7951 28.6775H42.5835V29.2876H43.7951V28.6775Z" fill="#868686"/>
<path d="M44.3947 29.2866H43.7964V29.8892H44.3947V29.2866Z" fill="#868686"/>
<path d="M41.9844 29.2848V28.0655H42.5853V27.4709H43.7965V28.0655H45.0037V29.8891H44.3946V29.2848H43.7965V28.6757H42.5853V29.2848H41.9844Z" fill="#E6E6E6"/>
<path d="M40.1737 25.0762H39.5581V26.8738H40.1737V25.0762Z" fill="#E6E6E6"/>
<path d="M39.5584 23.8577H38.9634V25.0759H39.5584V23.8577Z" fill="#D1D1D1"/>
<path d="M38.9616 24.4619H35.939V25.0764H38.9616V24.4619Z" fill="white"/>
<path d="M37.1439 25.0761V24.4626H36.5435V23.8578H35.3242V23.2579H34.7238V22.6558H34.1255V22.0418H34.7271V21.4348H36.5446V22.6488H37.741V23.2579H38.349V25.0761H37.1439Z" fill="#868686"/>
<path d="M45.0038 24.4637V25.6668H44.3861V25.0755H42.5881V24.4637H41.9844V25.0755H40.1724V24.4637H40.7749V23.867H41.3818V23.2573H43.1901V23.8573H43.7965V24.4637H45.0038Z" fill="#9E9E9E"/>
<path d="M29.2893 31.7017H28.6895V32.2982H29.2893V31.7017Z" fill="#7F7F7F"/>
<path d="M28.6898 30.4919H28.0791V31.0983H28.6898V30.4919Z" fill="#7F7F7F"/>
<path d="M30.5 30.4919H28.6895V31.0983H30.5V30.4919Z" fill="#EAEAEA"/>
<path d="M28.0791 31.0962V32.9101H28.6898V32.2955V31.7005H29.2897V31.0962H28.0791Z" fill="#8F8F8F"/>
<path d="M29.292 31.7015V31.0962H29.899V31.6934L29.292 31.7015Z" fill="#7F7F7F"/>
<path d="M26.2559 30.4908H27.4746V31.0962H26.8742V31.6923H28.0777V30.4908H30.4988V29.8822H29.2883H28.0777V28.6824H27.4729V29.8892H26.2559V30.4908Z" fill="#D4D4D4"/>
<path d="M30.4991 30.4919V31.0973H29.8955V31.6934H31.1039V33.5078H31.6988V32.3085H32.3084H32.9182V31.6999H32.3084V31.0973V30.4919H30.4991Z" fill="#D4D4D4"/>
<path d="M32.9206 32.3074H32.311V32.9111H32.9206V32.3074Z" fill="#BEBEBE"/>
<path d="M30.5005 30.4925V29.2866H32.3153V29.8893H32.9196V30.4925H33.5184V31.0979H32.3098V30.4925H30.5005Z" fill="#E6E6E6"/>
<path d="M32.3153 29.2866H30.5005V29.8849H32.3153V29.2866Z" fill="#EAEAEA"/>
<path d="M30.4999 29.8822V29.285H31.6997V28.6824H28.6895V29.285H29.2893V29.8822H30.4999Z" fill="#B6B6B6"/>
<path d="M28.0791 28.6824V29.8822H29.2897V29.285H28.6898V28.6824H28.0791Z" fill="#EAEAEA"/>
<path d="M32.3162 28.6824H31.7012V29.286H32.3162V28.6824Z" fill="white"/>
<path d="M32.3149 29.2854V29.8891H32.9192V29.2827L32.3149 29.2854Z" fill="white"/>
<path d="M32.3149 29.285H32.9192V30.4908H33.518V31.0962H34.7328V30.4908H34.1297V29.8822H33.5217V29.285H32.9192V28.6824H32.3149V29.285Z" fill="#B6B6B6"/>
<path d="M28.6898 28.6843V28.0757H28.0791V27.4763H28.6844V26.8721H29.2897V28.0638H33.5218V28.6778H34.733V28.0871H37.1362V29.287H38.9612V29.8842H35.943V29.2843H35.3274V29.8911H34.733V29.287H32.9192V28.6843H32.3151H28.6898Z" fill="#8F8F8F"/>
<path d="M33.5205 29.2866H34.7317V29.8908V30.4924H34.1285V29.8837H33.5205V29.2866Z" fill="#A6A6A6"/>
<path d="M35.3283 29.8901H34.7339V30.4927H35.3283V29.8901Z" fill="#B6B6B6"/>
<path d="M35.9419 29.8831H38.9602H39.5551V30.4943H38.9488V31.0969H37.762V30.4916H35.9419V29.8831Z" fill="#B6B6B6"/>
<path d="M39.5584 29.2866H38.9634V29.8848H39.5584V29.2866Z" fill="#A6A6A6"/>
<path d="M39.5584 28.6812H38.9634V29.2864H39.5584V28.6812Z" fill="#8F8F8F"/>
<path d="M39.5555 28.6808V27.4712H37.7488V26.8865H37.1436V26.2654H35.3428V26.8865H31.7084V26.2654H30.4968V25.666H29.8969V26.2546H29.2856V26.8865V28.0619H33.5211V28.676H34.7321V28.0852H37.1355V29.2851H38.9605V28.6808H39.5555Z" fill="#868686"/>
<path d="M39.5581 28.6808V27.4712H40.1737V28.6759L39.5581 28.6808Z" fill="#A6A6A6"/>
<path d="M40.1724 27.4726V26.8738H40.7749V27.477H41.377V28.0774H41.9844V28.6817H40.1724V27.4726Z" fill="white"/>
<path d="M43.7964 27.4727V26.8613H45.0037V25.0762H45.596V26.2744H46.2241V27.4727H46.8093V28.084H46.2132L46.216 29.2865H45.0037V28.0672H43.7964V27.4727Z" fill="#CACACA"/>
<path d="M43.7956 32.3037H43.1904V33.502H43.7956V32.3037Z" fill="#EAEAEA"/>
<path d="M44.3947 31.6965H43.7964V32.304H44.3947V31.6965Z" fill="#EAEAEA"/>
<path d="M44.3947 31.6975V31.0996H45.0037V32.9113H44.3947V33.5027H43.7964V32.3039H44.3947V31.6975Z" fill="#DFDFDF"/>
<path d="M45.0029 29.8909V31.0999H46.2161V30.4951H45.5968V29.8882L45.0029 29.8909Z" fill="#D4D4D4"/>
<path d="M46.2178 30.4944V29.8901H47.4202V31.0992H46.2178V30.4944Z" fill="#CACACA"/>
<path d="M46.216 29.8882H45.5967V30.4962H46.216V29.8882Z" fill="#E6E6E6"/>
<path d="M45.0029 29.2866V29.892H46.2161L46.2167 29.2866H45.0029Z" fill="#959595"/>
<path d="M45.5997 33.5017V34.0989H45.0025V34.7145H44.3935V35.9273H43.7952V36.5241H42.5825V35.9273H43.19V33.5017H43.7952V34.0989H44.3935V33.5017H45.5997Z" fill="#DFDFDF"/>
<path d="M44.3947 33.5017H43.7964V34.0993H44.3947V33.5017Z" fill="#EAEAEA"/>
<path d="M46.2153 32.9116H45.5991V33.5039H46.2153V32.9116Z" fill="#DFDFDF"/>
<path d="M46.2153 32.3037H45.5991V32.9117H46.2153V32.3037Z" fill="#959595"/>
<path d="M46.8171 31.6965V35.9275H46.2161V35.3173H45.0029V34.7147H45.6V34.0991H46.2161V31.6965H46.8171Z" fill="#CACACA"/>
<path d="M46.2153 33.5017H45.5991V34.0993H46.2153V33.5017Z" fill="#EAEAEA"/>
<path d="M45.6 34.0996H45.0029V34.7163H45.6V34.0996Z" fill="white"/>
<path d="M45.0031 34.7161H44.394V35.3197H45.0031V34.7161Z" fill="white"/>
<path d="M46.2163 35.3184V35.9286H45.6002V36.5253H44.394V35.9286H45.0031V35.3184H46.2163Z" fill="#DFDFDF"/>
<path d="M45.0031 35.3184H44.394V35.9296H45.0031V35.3184Z" fill="#EAEAEA"/>
<path d="M44.3947 35.9282H43.7964V36.526H44.3947V35.9282Z" fill="white"/>
<path d="M46.2171 35.9282V37.72H43.7964V36.5249H45.6009V35.9282H46.2171Z" fill="#DFDFDF"/>
<path d="M46.216 35.9282V37.1281H44.3936V36.5249H45.5998V35.9282H46.216Z" fill="#CACACA"/>
<path d="M45.6022 37.7195V39.5404H45.0083V40.7468H44.3959V41.3505H43.7955V42.5563H43.1907V43.16H42.58V43.7632H41.3711V43.1573H41.9688V40.7414H42.5866V40.1441H43.7955V39.5301H43.1972V38.9264H43.7955V38.3345H44.3959V37.7195H45.6022Z" fill="#CACACA"/>
<path d="M43.793 38.335H43.1919V38.9278H43.793V38.335Z" fill="#EAEAEA"/>
<path d="M42.5856 40.1433H41.9678V40.7414H42.5856V40.1433Z" fill="#EAEAEA"/>
<path d="M46.2094 38.9272H45.5991V39.5423H46.2094V38.9272Z" fill="#7F7F7F"/>
<path d="M45.5992 39.5403H45.0054V40.7472H45.5992V39.5403Z" fill="#7F7F7F"/>
<path d="M45.0063 40.7483V41.3519H44.394V40.7478L45.0063 40.7483Z" fill="#7F7F7F"/>
<path d="M44.3955 41.3506H43.7949V42.557H44.3955V41.3506Z" fill="#7F7F7F"/>
<path d="M43.1899 43.1592H42.5786V43.7634H43.1899V43.1592Z" fill="#7F7F7F"/>
<path d="M43.7938 42.5562V43.1604H43.1895L43.189 42.5562H43.7938Z" fill="#7F7F7F"/>
<path d="M36.5335 41.9517V42.5537H35.937V41.9543L36.5335 41.9517Z" fill="#D1D1D1"/>
<path d="M41.3687 43.1574V43.7633H38.9627V42.5521H38.3628V41.9537C38.3628 41.9537 41.3805 41.9657 41.3687 41.9537C41.3567 41.9418 41.3687 43.1574 41.3687 43.1574Z" fill="#DFDFDF"/>
<path d="M40.7689 42.5562H40.168V44.3695H40.7689V42.5562Z" fill="#EAEAEA"/>
<path d="M38.3645 42.5527H37.75V43.1618H38.3645V42.5527Z" fill="#DFDFDF"/>
<path d="M38.3645 43.7639H37.75V44.3719H38.3645V43.7639Z" fill="#DFDFDF"/>
<path d="M38.9507 44.3694H38.3628V45.5758H38.9507V44.3694Z" fill="#DFDFDF"/>
<path d="M40.1646 44.3694H39.5518V44.9735H40.1646V44.3694Z" fill="#EAEAEA"/>
<path d="M40.7749 26.8738V27.477H41.377V28.0775H41.9844H42.5854V27.4727H43.7965V26.8613H45.0038V25.6674H43.7965V26.2771H43.1912V26.8738H41.3694V26.2668H40.7749V25.0762H40.1724V26.8738H40.7749Z" fill="#8F8F8F"/>
<path d="M40.7764 25.075H41.9858V24.4631H42.5896V25.075H44.3874V25.6662H43.798V26.2759H43.1926V26.8726H41.3708V26.2656H40.7764V25.075Z" fill="#868686"/>
<path d="M40.1737 26.8738H39.5581V27.4742H40.1737V26.8738Z" fill="#868686"/>
<path d="M35.939 26.2654V25.666H37.7612V26.2654H38.3666V26.8724H39.5566V27.4712H37.7499V26.8865H37.1446V26.2654H35.939Z" fill="#8F8F8F"/>
<path d="M35.939 25.6665V25.0627L39.5566 25.0752V25.6681V26.8728H38.3666V26.2659H37.7612V25.6665H35.939Z" fill="#959595"/>
<path d="M39.5584 25.6692H38.9634V26.268H39.5584V25.6692Z" fill="#868686"/>
<path d="M40.7764 24.4635V25.0764H41.3746V24.4619L40.7764 24.4635Z" fill="#D4D4D4"/>
<path d="M44.3968 23.8577H43.7964V24.4651H44.3968V23.8577Z" fill="#CACACA"/>
<path d="M40.7764 23.2573V24.4637H40.1737V25.0755H39.5581V23.2573H40.7764Z" fill="#EAEAEA"/>
<path d="M41.3833 23.2573H40.7764V23.868H41.3833V23.2573Z" fill="#D1D1D1"/>
<path d="M28.079 28.0781V28.6829H27.4742V29.8904H26.2571V29.2856H26.8613V28.6829H25.6676V27.476H25.0645V26.2659H26.2701V26.8875H26.8613V27.476H27.4818V28.0781H28.079Z" fill="#EAEAEA"/>
<path d="M28.6898 28.0779H28.0791V28.6837H28.6898V28.0779Z" fill="#B6B6B6"/>
<path d="M26.8601 28.6824H26.2559V29.286H26.8601V28.6824Z" fill="#919191"/>
<path d="M23.854 27.4763V28.0784H23.2492L23.2552 28.6832H22.645V28.0784H23.2492V27.4763H23.854Z" fill="#959595"/>
<path d="M26.2568 28.6824H25.6743V29.286H26.2568V28.6824Z" fill="#7F7F7F"/>
<path d="M26.2574 29.2859V30.4917H25.6749V29.8922H25.0631V29.2929H23.8628V29.8869H23.2565L23.2505 28.0784H24.4605V27.4763H25.6749V29.2859H26.2574Z" fill="#919191"/>
<path d="M25.0633 28.6824H24.4526V29.2931H25.0633V28.6824Z" fill="#D1D1D1"/>
<path d="M23.2552 30.4917H22.645V31.1036H23.2552V30.4917Z" fill="#C9C9C9"/>
<path d="M35.9396 24.4617H35.3252V25.0637H35.9396V24.4617Z" fill="#D4D4D4"/>
<path d="M35.9405 25.0627H34.73V25.6675H35.9405V25.0627Z" fill="#EAEAEA"/>
<path d="M18.4132 29.8899V31.0967H18.9996V32.3075H18.417V32.9047H17.8242V28.6824H19.6254V29.8899H18.4132Z" fill="#D4D4D4"/>
<path d="M20.8316 32.9058H18.4175V34.1126H20.8316V32.9058Z" fill="#D4D4D4"/>
<path d="M20.8282 32.303H20.2397V32.9071H20.8282V32.303Z" fill="#919191"/>
<path d="M22.646 29.2917V31.1013H22.0385V31.6893H21.4322V32.2941L20.8296 32.3012V31.0932H21.4343V29.8895H22.0369V29.2917H22.646Z" fill="#919191"/>
<path d="M21.4343 29.8904H20.8296V30.4924H21.4343V29.8904Z" fill="#7F7F7F"/>
<path d="M19.6228 31.1021V31.6929H20.2401V32.9052H18.4144V32.308H18.9969V31.0973H18.4106V29.8904H19.6228V30.4914H20.2401V31.1021H19.6228Z" fill="#EAEAEA"/>
<path d="M22.6466 28.0784V29.2929H22.0375V29.8906H20.8302V30.4917H21.435V31.0943H20.8302V32.3023H20.2417V31.6931H19.6245V31.1025H20.2417V30.4917H19.6245V29.8906H20.2417V28.6832H20.8302V28.0784H22.6466Z" fill="#D4D4D4"/>
<path d="M17.2103 26.873H16.605V28.6837H17.2103V26.873Z" fill="white"/>
<path d="M18.4132 27.4763H17.8242V28.6832H18.4132V27.4763Z" fill="#959595"/>
<path d="M19.6228 25.0605V26.8733H19.0165V28.684H18.4106V26.2669H19.0138V25.0605H19.6228Z" fill="#D4D4D4"/>
<path d="M22.6453 28.0791H22.0352V26.8879H23.8543V27.477H23.2495V28.0791H22.6453Z" fill="#D4D4D4"/>
<path d="M22.037 27.4763H21.4355V28.0794H22.037V27.4763Z" fill="#EAEAEA"/>
<path d="M29.8924 22.0512V22.6506H29.2936V23.2564H28.0798V23.858H27.481V24.4601H25.0615L25.0626 25.066H24.4584V25.6675H23.8487V26.2669H22.6469V26.8885H22.0367V27.4771H21.4352V28.0792L20.8304 28.0797L20.2344 28.0803V26.8723H20.8429V26.2669H21.4352V25.6648H22.0475V25.0638H22.6431V24.4558H24.4497V23.8482H25.0653V23.2602H26.2699V22.6457H26.879V22.0447H27.4745V21.4431H28.6921V22.0512H29.8924Z" fill="#909090"/>
<path d="M20.8297 28.0797V28.6839H20.2412V29.8914H19.624V28.6839H19.0176V26.8733H20.2336V28.0802L20.8297 28.0797Z" fill="#EAEAEA"/>
<path d="M23.2514 23.8577V24.4554H22.6428V25.0635H22.0473V25.6645H21.435V26.2666H20.8427V26.873H19.6245V26.2666H20.2341V25.6672H20.8324V24.4749H21.4377V23.8577H23.2514Z" fill="#9E9E9E"/>
<path d="M26.8768 21.4431V22.6457H26.2677V23.2602H25.0631V23.8482H24.4475V24.4557H23.2494V23.858H22.0366V23.2489H22.6425V22.6522H23.2494V22.049H24.4502V21.4431H25.0614V20.8491H26.2682V21.4431H26.8768Z" fill="#868686"/>
<path d="M25.0633 20.8491V21.4431H24.452V22.049H23.2512V22.6522H22.6443V23.2489H22.0384V23.858H21.4375V22.6522H22.0384V22.049H22.6345V21.4431H23.2512V20.8491H25.0633Z" fill="#A6A6A6"/>
<path d="M25.0623 20.2446H24.4575V20.8483H25.0623V20.2446Z" fill="#909090"/>
<path d="M27.4843 21.4431H26.8779V22.0457H27.4843V21.4431Z" fill="#9E9E9E"/>
<path d="M28.0885 20.8491H27.4849V21.4441H28.0885V20.8491Z" fill="#9E9E9E"/>
<path d="M28.693 20.8491V21.4457L28.0898 21.4441V20.8491H28.693Z" fill="#868686"/>
<path d="M29.2929 20.2445V21.4422H28.692V20.8483H27.4852V21.4422H26.2702V20.8483H25.0635V20.2456H25.6698V19.6414H28.6876V20.2445H29.2929Z" fill="#B6B6B6"/>
<path d="M28.6909 21.4431V22.0511H29.8911V20.8491H29.2913V21.4431H28.6909Z" fill="#868686"/>
<path d="M24.4593 27.4755V26.2654H25.0635V25.0645H24.4565V25.666H23.8469V26.2654H22.645V26.887L23.854 26.8864V27.4755H24.4593Z" fill="#EAEAEA"/>
<path d="M24.4617 27.4763H23.8564V28.0794H24.4617V27.4763Z" fill="#7F7F7F"/>
<path d="M25.0671 26.2659H24.4629V27.476H25.0671V26.2659Z" fill="#D1D1D1"/>
<path d="M25.0615 24.4598L25.0653 26.2666H26.271V26.8882H26.8622V27.4768H27.4827V28.0789H28.0798V27.4757V26.8714V26.2666V25.6672H29.2871V25.0657H28.6922V24.4598H28.0798V23.8577H27.4811V24.4598H25.0615Z" fill="#D4D4D4"/>
<path d="M25.669 25.0666H26.2727V24.4602H25.6685L25.669 25.0666Z" fill="white"/>
<path d="M28.0778 27.4773V26.8721H27.4741V27.4784L28.0778 27.4773Z" fill="#E6E6E6"/>
<path d="M28.6844 26.8721H28.0791V27.4773H28.6844V26.8721Z" fill="#B6B6B6"/>
<path d="M28.6844 25.666H28.0791V26.2664H28.6844V25.666Z" fill="#E6E6E6"/>
<path d="M28.6844 26.2659H28.0791V26.8723H28.6844V26.2659Z" fill="#B2B2B2"/>
<path d="M28.6855 26.8702V25.666H29.2876V25.0645H31.1029V25.666H29.8989V26.2546H29.2876V26.8702H28.6855Z" fill="#A6A6A6"/>
<path d="M28.6914 23.2561H28.0791V24.4598H28.6914V23.2561Z" fill="#EAEAEA"/>
<path d="M32.315 23.8577V24.4598H31.7158V25.0657H28.6909V24.4598H30.5025V23.8577H32.315Z" fill="#EAEAEA"/>
<path d="M30.4985 25.666H32.3165V25.0645H32.9201V26.2654H34.1259V26.8865H31.7101V26.2654H30.4985V25.666Z" fill="#8F8F8F"/>
<path d="M31.104 25.6672V25.0656H31.7185V24.4597H32.3179H33.524V25.6672H32.9215V25.0656H32.3179V25.6672H31.104Z" fill="#B6B6B6"/>
<path d="M35.3448 26.8865V26.2654H35.9399V25.666H34.7347V26.2762H34.1261V25.666H32.9204V26.2654L34.1261 26.2762V26.8865H35.3448Z" fill="#A6A6A6"/>
<path d="M34.7268 25.0627H33.5205V25.6675H34.7268V25.0627Z" fill="#E6E6E6"/>
<path d="M34.7335 25.666H34.1255V26.2773H34.7335V25.666Z" fill="#EAEAEA"/>
<path d="M31.7011 23.2561L31.6957 23.8577H30.5025V24.4598H28.6909V23.2561H31.7011Z" fill="#D4D4D4"/>
<path d="M31.7009 22.6494H30.5029V23.2563H31.7009V22.6494Z" fill="#D1D1D1"/>
<path d="M31.7037 23.2561H32.3176V23.8587H31.6982L31.7037 23.2561Z" fill="#D1D1D1"/>
<path d="M32.919 23.8577H32.3154V24.4608H32.919V23.8577Z" fill="#D1D1D1"/>
<path d="M33.5192 23.8577H32.9204V24.4603H33.5192V23.8577Z" fill="#EAEAEA"/>
<path d="M33.5176 23.8577V25.0635H34.7277V24.4598H34.1245V23.8577H33.5176Z" fill="#D4D4D4"/>
<path d="M34.1255 23.8577H35.3242V25.0635H34.7287V24.4598H34.1255V23.8577Z" fill="#E6E6E6"/>
<path d="M34.1258 22.6553H34.7239V23.2574H35.3243V23.8573H36.5437V24.4621H35.3243V23.8573H34.725L34.7239 23.2574H34.1235L34.1258 22.6553Z" fill="#909090"/>
<path d="M34.725 23.2573H34.1235V23.8583H34.725V23.2573Z" fill="#D4D4D4"/>
<path d="M29.2922 19.6414H28.6875V20.2456H29.2922V19.6414Z" fill="#EAEAEA"/>
<path d="M38.9651 20.2448V21.4447H38.35V20.8431H37.1454V20.2448H35.9414V20.8431H35.3387V21.4349H34.728V22.0419H34.1243V23.8574H33.5196V23.2553H32.9208V23.8574H32.3172V23.2559H31.7032V22.65H30.5051V23.2559H29.2945V22.65H29.8934V22.0441H30.4943V21.4496H29.8934V20.8485H29.2935V20.2448H30.4996V19.6416H31.1099V19.0298H31.7054V19.6416H32.3204V20.2448H31.7054V20.8442H31.106V22.043H32.3155V21.4436H32.9203V20.8442H34.1292V20.2372H34.7291V19.6368H35.9414V19.0298H37.1508V19.6335H37.7528V20.2448H38.9651Z" fill="#EAEAEA"/>
<path d="M33.5192 23.2554H32.9204V23.8585H33.5192V23.2554Z" fill="#D1D1D1"/>
<path d="M30.4925 21.4504H29.8916V22.046H30.4925V21.4504Z" fill="#D1D1D1"/>
<path d="M38.9628 24.4617V23.8569H39.5579V23.257V22.6549H38.9651V22.0398H38.35H36.5444V22.6478H37.742V23.257H38.35V24.4617H38.9628Z" fill="#909090"/>
<path d="M36.5443 20.2439H35.9395V20.8432H36.5443V20.2439Z" fill="#C5C5C5"/>
<path d="M37.1447 20.2439H36.5454V20.8432H37.1447V20.2439Z" fill="#CDCDCD"/>
<path d="M37.754 20.843V21.4445L35.3394 21.4358V20.843H37.754Z" fill="#B6B6B6"/>
<path d="M36.5449 21.4343V22.0402H38.3495V20.843H37.7528V21.4435L36.5449 21.4343Z" fill="#9E9E9E"/>
<path d="M38.9627 21.4446H38.3477V22.0412H38.9627V21.4446Z" fill="#C5C5C5"/>
<path d="M40.7759 22.6484V23.257H39.5576V22.6549H38.9648V22.0398H40.1667V22.6484H40.7759Z" fill="#D1D1D1"/>
<path d="M32.9194 20.8438V21.4442H32.3146L32.3125 20.8438H32.9194Z" fill="#D4D4D4"/>
<path d="M37.7538 17.8286V18.4404H35.9385V19.637H34.7262V20.2375H34.1263V20.8445H32.9174L32.9234 20.2451H33.5204V19.6419H34.1263V18.4247H32.9152V17.8286H31.7058V18.4323H27.4888V17.8286H28.6983V17.2249H35.9395V17.8286H37.7538Z" fill="#D4D4D4"/>
<path d="M32.3145 21.4438H31.7021V22.0518H32.3145V21.4438Z" fill="#D4D4D4"/>
<path d="M34.1271 18.4243V19.6415H33.5212V20.2446H32.924V20.844H32.3149V21.4434H31.7009V22.0504H31.1039V20.844H31.7032V20.2446H32.3181V19.6415H31.7032V19.0296H30.5029V18.4318H31.7064V17.8281H32.9159V18.4243H34.1271Z" fill="#DFDFDF"/>
<path d="M32.9107 19.0298H32.3174V19.6427H32.9107V19.0298Z" fill="#EAEAEA"/>
<path d="M41.9995 20.8424V21.444H38.9632C38.9415 21.444 38.9632 20.2441 38.9632 20.2441H37.7511V19.6328H37.1489V19.0291H35.9395V18.4395H37.7548V19.0291H38.3481V19.6409H40.1716V20.8424H41.9995Z" fill="#DFDFDF"/>
<path d="M43.191 23.2552V23.2574H40.7759V22.6488H40.1667V22.0402H38.9648V21.4446H42.0011V22.0402H42.5836V23.2552H43.191Z" fill="#EAEAEA"/>
<path d="M48.0248 29.281V35.3198L47.42 35.3205V37.1283H46.8267V38.3358L46.2111 38.3353V38.9275H45.6009V37.7207H46.2171V35.929H46.818V31.1003H47.4195V29.8913H46.2171L46.2132 28.0844H46.8093V27.4736H46.224V26.2748H45.596V25.0766H45.0037V24.4648H44.3973V23.8583H43.19V23.2562H42.5825V22.0412H42V19.6377H42.594V20.2376H43.1889L43.19 20.8413L43.792 20.843V21.4456H44.3947V22.6411H45.0129V23.2557H45.6107L45.6128 24.4518H46.2105V25.6478H46.8267V26.878H47.4087V29.281H48.0248Z" fill="#E6E6E6"/>
<path d="M45.0028 31.0996V32.9113H44.3936V33.5025H45.5998V32.3037H46.216V31.6973H46.8169V31.0996H45.0028Z" fill="#EAEAEA"/>
<path d="M37.7544 18.4392H38.9628V19.0289H39.5464V19.6407H38.3477V19.0289H37.7544V18.4392Z" fill="#D4D4D4"/>
<path d="M40.1724 19.6414H40.7636V20.2445H42.0001V20.8428H40.1724V19.6414Z" fill="#D4D4D4"/>
<path d="M41.9988 19.6361V20.2447H40.7623V19.6415H39.5463V19.0297H38.9627V18.44H37.7543V17.8282H35.94V17.2244H33.5211V16.6104H30.5027V17.2244H28.6988V17.8282H27.4893V18.4319H26.8883V19.0297H25.0622V19.6415H23.8717V20.2447H22.6513V20.8484H22.0373V21.4424H21.4364V22.0439H20.8241V23.2465H19.6232V24.455H19.0169V26.2662H18.411V27.4764H17.822V28.6833H17.2075V25.6652H17.8106V24.4605H18.4138V23.253H19.0212V22.6525H19.6211V21.4408H20.2275V20.8397H20.8295V20.2339H21.4342V19.6328H22.6475V19.0318H23.2495V18.4216H24.4585L24.4574 17.8249H25.6658V17.2217H26.8742V16.6186H28.6868V16.0154H35.3336V16.6186H37.1463V17.2217H38.9588V17.8249H39.5636L39.5631 18.4281L40.7715 18.4286L40.7693 19.0313H41.3761V19.6345L41.9988 19.6361Z" fill="#E6E6E6"/>
<path d="M28.6913 18.4312V19.0289H27.49V19.6408H25.6692V20.245H24.4581V20.8477H23.2508V21.4416H22.6341V22.0475H22.0381V22.6507H21.4371V24.4738H20.8318V25.6661H20.2336V26.2655H19.624V25.0591H19.0176V24.4543H19.624V23.2458H20.8248V22.0432H21.4371V21.4416H22.0381V20.8477H22.652V20.244H23.8724V19.6408H25.0629V19.0289H26.889V18.4312H28.6913Z" fill="#EAEAEA"/>
</g>
</svg>
