<?xml version="1.0" encoding="utf-8"?>
<!-- Generator: Adobe Illustrator 27.2.0, SVG Export Plug-In . SVG Version: 6.00 Build 0)  -->
<svg version="1.1" id="Layer_1" xmlns="http://www.w3.org/2000/svg" xmlns:xlink="http://www.w3.org/1999/xlink" x="0px" y="0px"
	 viewBox="0 0 180 134" style="enable-background:new 0 0 180 134;" xml:space="preserve">
<style type="text/css">
	.st0{fill:#FFFFFF;}
</style>
<g>
	<path class="st0" d="M45.7,112.6c0.7-0.6,1.3-1.4,1.7-2.2c0.4-0.9,0.6-1.9,0.6-3c0-0.8-0.1-1.5-0.3-2c-0.1-0.6-0.4-1.2-0.8-1.7
		c-0.3-0.4-0.8-0.9-1.5-1.2c-0.7-0.4-1.5-0.6-2.4-0.8l-0.7-0.2l0.6-0.4c0.9-0.6,1.6-1.3,2.1-2.1c0.5-0.7,0.7-1.7,0.7-3.1
		c0-2-0.6-3.6-1.7-4.7c-1.2-1.1-3-1.7-5.2-1.7H29v25.1h10.5c1.2,0,2.5-0.2,3.6-0.5C44.1,113.7,45,113.2,45.7,112.6z M35.1,93.8h1.5
		c2.9,0,3.5,1.5,3.5,2.8s-0.6,2.8-3.5,2.8h-1.5V93.8z M40.6,109.3L40.6,109.3c-0.8,0.5-2.2,0.7-3.8,0.7H35v-6.1h1.8
		c1.8,0,3,0.2,3.8,0.7c0.9,0.5,1.3,1.3,1.3,2.4C41.9,108,41.5,108.8,40.6,109.3z"/>
	<rect x="53.5" y="89.4" class="st0" width="6" height="25.1"/>
	<path class="st0" d="M85.5,110.4c0.4-0.9,0.6-1.9,0.6-3c0-0.8-0.1-1.5-0.3-2c-0.1-0.6-0.4-1.2-0.8-1.7c-0.3-0.4-0.8-0.9-1.5-1.2
		c-0.7-0.4-1.5-0.6-2.4-0.8l-0.7-0.2l0.6-0.4c0.9-0.6,1.6-1.3,2.1-2.1c0.5-0.7,0.7-1.7,0.7-3.1c0-2-0.6-3.6-1.7-4.7
		c-1.2-1.1-3-1.7-5.2-1.7h-9.7v25.1h10.5c1.2,0,2.5-0.2,3.6-0.5c1-0.3,1.9-0.7,2.6-1.4C84.5,112,85.1,111.2,85.5,110.4z M73.2,93.8
		h1.5c2.9,0,3.5,1.5,3.5,2.8s-0.6,2.8-3.5,2.8h-1.5V93.8z M78.7,109.3L78.7,109.3c-0.8,0.5-2.2,0.7-3.8,0.7h-1.8v-6.1h1.8
		c1.8,0,3,0.2,3.8,0.7c0.9,0.5,1.3,1.3,1.3,2.4C80,108,79.6,108.8,78.7,109.3z"/>
	<polygon class="st0" points="97.6,89.4 91.6,89.4 91.6,114.6 105.7,114.6 105.7,109.5 97.6,109.5 	"/>
	<rect x="111.4" y="89.4" class="st0" width="6" height="25.1"/>
	<path class="st0" d="M146.9,92.5c-1.3-1.3-2.8-2.2-4.4-2.8c-1.6-0.7-3.5-1-5.7-1c-2.2,0-4,0.3-5.7,1c-1.8,0.7-3.2,1.7-4.4,2.8
		c-1.3,1.3-2.2,2.7-2.9,4.3c-0.7,1.5-1,3.3-1,5.3c0,1.7,0.3,3.5,1,5.3c0.7,1.6,1.7,3.1,2.9,4.3c1.2,1.2,2.8,2.2,4.4,2.8
		c1.6,0.7,3.5,1,5.7,1c2.1,0,3.9-0.3,5.7-1c1.8-0.7,3.2-1.6,4.5-2.8c1.3-1.3,2.2-2.7,2.9-4.3c0.7-1.5,1-3.3,1-5.3
		c0.1-1.8-0.2-3.5-1-5.3C149.1,95.1,148.1,93.7,146.9,92.5z M143.8,104.9c-0.4,0.9-0.9,1.6-1.7,2.4c-0.7,0.6-1.6,1.1-2.5,1.6
		c-1,0.5-2,0.5-2.9,0.5c-0.9,0-1.8-0.2-2.9-0.5c-1-0.4-1.8-1-2.4-1.6c-0.6-0.6-1.2-1.3-1.7-2.4c-0.4-1-0.6-1.9-0.6-3
		c0-1,0.2-2.1,0.6-3c0.4-0.9,0.9-1.6,1.7-2.4c0.7-0.6,1.5-1.1,2.4-1.5c1-0.5,2.1-0.5,2.9-0.5c0.9,0,1.8,0.2,2.9,0.5
		c0.9,0.4,1.8,0.9,2.5,1.5c0.7,0.6,1.2,1.3,1.7,2.4c0.4,1,0.6,1.9,0.6,3C144.4,103,144.2,104.1,143.8,104.9z"/>
	<path class="st0" d="M53.9,19v48.5c0.5,0.2,2.4,0.5,5.3,0.5c2.9,0,4.8-0.3,5.3-0.5V19c-0.5-0.2-2.4-0.5-5.3-0.5
		C56.3,18.5,54.4,18.8,53.9,19z"/>
	<path class="st0" d="M97.2,67.6V23.4c-0.4-0.2-1.9-0.5-4.3-0.5c-2.4,0-4,0.3-4.4,0.5v44.2c0.4,0.2,1.9,0.5,4.3,0.5
		C95.1,68.2,96.8,67.8,97.2,67.6z"/>
	<path class="st0" d="M83,67.5V31.4c-0.6-0.2-2.9-0.6-6.4-0.6c-3.5,0-5.8,0.3-6.4,0.6v36.1c0.6,0.2,2.9,0.6,6.4,0.6
		C80.1,68.1,82.4,67.8,83,67.5z"/>
	<path class="st0" d="M122.8,65.3l-8.4-36.3c-0.7-0.1-3.1,0.2-6.8,1c-3.7,0.8-5.9,1.7-6.5,2l8.4,36.3c0.7,0.1,3.1-0.2,6.8-1
		C119.8,66.6,122.2,65.7,122.8,65.3z"/>
</g>
</svg>
