<?xml version="1.0" encoding="utf-8"?>
<!-- Generator: Adobe Illustrator 27.2.0, SVG Export Plug-In . SVG Version: 6.00 Build 0)  -->
<svg version="1.1" id="Layer_1" xmlns="http://www.w3.org/2000/svg" xmlns:xlink="http://www.w3.org/1999/xlink" x="0px" y="0px"
	 viewBox="0 0 739 739" style="enable-background:new 0 0 739 739;" xml:space="preserve">
<style type="text/css">
	
		.st0{clip-path:url(#SVGID_00000080888748457313772890000014779670578627233943_);fill:url(#SVGID_00000065072468800518434620000005143694912599273403_);}
</style>
<path d="M369.5,0C573.6,0,739,165.4,739,369.5S573.6,739,369.5,739S0,573.6,0,369.5S165.4,0,369.5,0"/>
<g>
	<defs>
		<path id="SVGID_1_" d="M233,467.8c-1.9,0.8-3.6,2.1-5,3.6l-72.1,79.4c-1,1.1-1.6,2.4-1.8,3.8c-0.2,1.4,0,2.9,0.5,4.2
			c0.6,1.3,1.5,2.4,2.7,3.2c1.2,0.8,2.6,1.2,4.1,1.2l338.6,0.3c2.1,0,4.1-0.4,6-1.3c1.9-0.8,3.6-2.1,5-3.6l72.1-79.4
			c1-1.1,1.6-2.4,1.8-3.8c0.2-1.4,0-2.9-0.5-4.2c-0.6-1.3-1.5-2.4-2.7-3.2c-1.2-0.8-2.6-1.2-4.1-1.2L239,466.5
			C236.9,466.5,234.9,466.9,233,467.8 M161.4,321.2c-1.4,0-2.9,0.4-4.1,1.2s-2.2,1.9-2.7,3.2s-0.8,2.8-0.5,4.2
			c0.2,1.4,0.9,2.7,1.8,3.8l72.1,79.4c1.4,1.5,3.1,2.8,5,3.6c1.9,0.8,3.9,1.3,6,1.3l338.6-0.3c1.4,0,2.9-0.4,4.1-1.2
			c1.2-0.8,2.2-1.9,2.7-3.2c0.6-1.3,0.8-2.8,0.5-4.2c-0.2-1.4-0.9-2.7-1.8-3.8L511,325.8c-1.4-1.5-3.1-2.8-5-3.6s-3.9-1.3-6-1.3
			L161.4,321.2z M239,175.5c-2.1,0-4.1,0.4-6,1.3c-1.9,0.8-3.6,2.1-5,3.6l-72.1,79.4c-1,1.1-1.6,2.4-1.8,3.8c-0.2,1.4,0,2.9,0.5,4.2
			s1.5,2.4,2.7,3.2c1.2,0.8,2.6,1.2,4.1,1.2l338.6,0.3c2.1,0,4.1-0.4,6-1.3c1.9-0.8,3.6-2.1,5-3.6l72.1-79.4c1-1.1,1.6-2.4,1.8-3.8
			c0.2-1.4,0-2.9-0.5-4.2c-0.6-1.3-1.5-2.4-2.7-3.2c-1.2-0.8-2.6-1.2-4.1-1.2L239,175.5z"/>
	</defs>
	<clipPath id="SVGID_00000081631289391305511710000004546251365951162555_">
		<use xlink:href="#SVGID_1_"  style="overflow:visible;"/>
	</clipPath>
	
		<linearGradient id="SVGID_00000063625932994295619750000013560128919476683397_" gradientUnits="userSpaceOnUse" x1="-30.5" y1="769.5" x2="-29.5" y2="769.5" gradientTransform="matrix(404.8816 -404.8819 404.8819 404.8816 -299040.6875 -323333.3125)">
		<stop  offset="0" style="stop-color:#9945FF"/>
		<stop  offset="0.2" style="stop-color:#7962E7"/>
		<stop  offset="1" style="stop-color:#00D18C"/>
	</linearGradient>
	
		<polygon style="clip-path:url(#SVGID_00000081631289391305511710000004546251365951162555_);fill:url(#SVGID_00000063625932994295619750000013560128919476683397_);" points="
		369.5,779.2 779.2,369.5 369.5,-40.2 -40.2,369.5 	"/>
</g>
</svg>
