<?xml version="1.0" encoding="utf-8"?>
<svg version="1.1" id="Layer_1" focusable="false" xmlns="http://www.w3.org/2000/svg" xmlns:xlink="http://www.w3.org/1999/xlink"
	 x="0px" y="0px" viewBox="0 0 24 24" xml:space="preserve">
<style type="text/css">
	.st1{fill:#FFFFFF;}
</style>
<g>
	<path class="st0" d="M21.1,18.6v1c0,1.1-0.9,2-2,2h-14c-1.1,0-2-0.9-2-2v-14c0-1.1,0.9-2,2-2h14c1.1,0,2,0.9,2,2v1h-9
		c-1.1,0-2,0.9-2,2v8c0,1.1,0.9,2,2,2H21.1z M12.1,16.6h10v-8h-10V16.6z M16.1,14.1c-0.8,0-1.5-0.7-1.5-1.5s0.7-1.5,1.5-1.5
		s1.5,0.7,1.5,1.5S17,14.1,16.1,14.1z"/>
	<path class="st1" d="M9.5,4.6c-2.4,0-4.4-2-4.4-4.4C5.1,0.1,5,0,4.9,0S4.6,0.1,4.6,0.2c0,2.4-2,4.4-4.4,4.4C0.1,4.6,0,4.7,0,4.9
		s0.1,0.2,0.2,0.2c2.4,0,4.4,2,4.4,4.4c0,0.1,0.1,0.2,0.2,0.2s0.2-0.1,0.2-0.2c0-2.4,2-4.4,4.4-4.4c0.1,0,0.2-0.1,0.2-0.2
		S9.6,4.6,9.5,4.6z"/>
</g>
</svg>
