<?xml version="1.0" encoding="utf-8"?>
<!-- Generator: Adobe Illustrator 27.7.0, SVG Export Plug-In . SVG Version: 6.00 Build 0)  -->
<svg version="1.1" id="Layer_1" xmlns="http://www.w3.org/2000/svg" xmlns:xlink="http://www.w3.org/1999/xlink" x="0px" y="0px"
	 viewBox="0 0 91 91" style="enable-background:new 0 0 91 91;" xml:space="preserve">
<style type="text/css">
	.st0{fill:#FFFFFF;}
</style>
<g>
	<g>
		<!-- <path class="st0" d="M45.5,91C20.3,91,0,70.6,0,45.5S20.4,0,45.5,0S91,20.4,91,45.5S70.7,91,45.5,91z"/> -->
		<path d="M61.6,24c-0.4-1.5-0.9-4.3-1.4-5.4s-2.8-5.6-6.8-6.1c-3.7-0.5-7.7,2-8.3,3.3c-0.5,1.3-1,1.2-1.4,1.4c0,0-2,0.4-3.9,1.6
			s-4.1,2.8-4.2,4.2c-0.1,1.3-0.4,1.8,0.5,1.7s6.7-1.2,6.7-1.2c1.1-0.1,2.9-0.3,2.6,1.7c-0.3,2-1.7,2.4-1.7,2.4h0.6
			c0.2-0.1,0.3-0.1,0.5-0.2c0.2-0.1,0.4-0.2,0.7-0.2c0.2-0.1,0.4-0.1,0.6-0.2c0.3-0.1,0.7-0.2,1-0.4c0.3-0.1,1.2-0.4,1.4-0.5
			s0.4-0.2,0.6-0.2c0.3,0,0.5,0.2,0.5,0.5s-0.2,0.5-0.4,0.5C48.8,27,48,27.3,47,27.7l0,0h-0.1c-0.5,0.2-1.1,0.4-1.7,0.6
			c-0.6,0.2-1.1,0.4-1.6,0.6h-0.1c-1.6,0.7-3.4,1.8-4.6,3.4c-1.8,2.4-16,31.8-16,31.8s-1.5,2.7,2.4,1c1.9-0.8,4.3-2.3,6.1-3.5
			c5.3-3.4,7.9-8.8,9.2-14.3c0.1-0.3,0.4-0.5,0.7-0.4s0.4,0.4,0.4,0.7c-0.2,2.4-0.9,3.8-1.5,5.2c-0.2,0.5-0.8,2.1-1.9,3.9
			c5.7-4.2,8.2-10.4,9.5-15.2c0.1-0.3,0.3-0.5,0.7-0.4c0.3,0.1,0.4,0.4,0.4,0.7c-1,7.8-6.4,14.4-12.4,17.3c-0.1,0-2.5,2-3.9,3
			c-1.1,0.8-1.9,1.2-2.2,1.4c-0.1,0-0.2,0.1-0.2,0.2l-5.8,8.7c-0.1,0.2-0.1,0.5,0,0.7l5.3,9.3c0.3,0.5,0.9,0.4,1.1-0.1l7.7-19.8
			c0.1-0.1,0.1-0.2,0.3-0.3c0.5-0.3,2-1.1,3.9-2.2l1.5,3.9h-1.7c-0.1,0-0.2,0-0.2,0.1l-1.2,1.6c-0.1,0.2,0,0.4,0.2,0.4h5.8h1h5.8
			c0.2,0,0.3-0.2,0.2-0.4L52.9,64c0-0.1-0.1-0.1-0.2-0.1h-1.8l-2.8-7c2.4-1.4,4.6-2.7,5.6-3.5c3.1-2.2,5.9-4.4,6.7-5.6
			c0.3-0.4,0.5-0.9,0.6-1.5C62.3,42,62.5,27,62.5,27C62.5,25.9,61.8,24.7,61.6,24z M48.6,63.9h-0.5h-1h-0.6l-2-4.9
			c0.6-0.3,1.2-0.7,1.8-1L48.6,63.9z M48.5,18.3c-0.6,0-1.1-0.5-1.1-1.1s0.5-1.1,1.1-1.1s1.1,0.5,1.1,1.1
			C49.5,17.8,49,18.3,48.5,18.3z"/>
	</g>
</g>
</svg>
