<?xml version="1.0" encoding="UTF-8"?>
<svg id="Layer_1" data-name="Layer 1" xmlns="http://www.w3.org/2000/svg" viewBox="0 0 60 60">
  <path class="cls-1" d="m44.48,41.01c-.27-.07-.55-.04-.79.1-.24.14-.42.37-.49.64l-1.45,5.35c-.11.44-.39.8-.79,1.03-.4.23-.87.3-1.31.18l-28.59-7.66c-.92-.25-1.47-1.21-1.23-2.12l3.61-13.45c.15-.56-.18-1.14-.74-1.29-.56-.14-1.13.19-1.28.74l-3.61,13.45c-.53,2.03.68,4.13,2.7,4.69l28.61,7.66c.32.08.65.13.98.13,1.73,0,3.25-1.17,3.69-2.83l1.44-5.35c.15-.56-.18-1.14-.74-1.29Z"/>
  <path class="cls-1" d="m24.45,15.07c-2.11,0-3.83,1.72-3.83,3.83s1.72,3.83,3.83,3.83,3.82-1.72,3.82-3.83-1.72-3.83-3.82-3.83Zm1.72,3.83c0,.95-.77,1.73-1.72,1.73s-1.73-.77-1.73-1.73.77-1.72,1.73-1.72,1.72.77,1.72,1.72Z"/>
  <path class="cls-1" d="m48.5,9.52h-29.6c-2.11,0-3.83,1.72-3.83,3.83v22.2c0,2.11,1.72,3.83,3.83,3.83h29.6c2.11,0,3.83-1.72,3.83-3.83v-2.75s0-.04,0-.06V13.35c0-2.11-1.72-3.83-3.83-3.83Zm-8.33,10.27c-.86,0-1.66.39-2.21,1.04l-7.11,8.53-2.5-2.5c-.52-.52-1.27-.82-2.05-.82s-1.53.3-2.05.82l-7.07,7.07V13.35c0-.95.77-1.73,1.73-1.73h29.6c.95,0,1.73.77,1.73,1.73v16.59l-7.83-9.13c-.55-.64-1.35-1.01-2.22-1.01Zm-14.44,8.56c.3-.3.83-.3,1.13,0l3.32,3.32c.21.21.5.33.79.31.29-.01.57-.15.76-.38l7.85-9.42c.16-.19.47-.3.61-.29.24,0,.45.1.61.28l9.42,10.99v2.39c0,.95-.77,1.73-1.73,1.73h-29.6c-.55,0-1.06-.26-1.39-.7l8.22-8.22Z"/>
</svg>