<?xml version="1.0" encoding="UTF-8"?>
<svg id="Layer_1" data-name="Layer 1" xmlns="http://www.w3.org/2000/svg" viewBox="0 0 60 60">
  <g id="Ikon">
    <path class="cls-1" d="m45.84,20.15h-5.92c-.7,0-1.33-.44-1.56-1.1l-.71-1.96c-.59-1.61-2.14-2.7-3.85-2.7h-7.58c-1.71,0-3.26,1.09-3.85,2.7l-.71,1.96c-.24.66-.86,1.1-1.56,1.1h-5.92c-2.26,0-4.09,1.84-4.09,4.09v17.28c0,2.25,1.84,4.09,4.09,4.09h31.67c2.25,0,4.09-1.84,4.09-4.09v-17.28c0-2.25-1.84-4.09-4.09-4.09Zm1.67,21.37c0,.92-.75,1.66-1.67,1.67H14.16c-.92,0-1.66-.75-1.67-1.67v-17.28c0-.92.75-1.66,1.67-1.67h5.92c1.71,0,3.26-1.09,3.85-2.7l.71-1.96c.24-.66.87-1.1,1.57-1.1h7.58c.7,0,1.33.44,1.57,1.1l.71,1.96c.59,1.61,2.14,2.7,3.85,2.7h5.92c.92,0,1.66.75,1.67,1.67v17.28Z"/>
    <path class="cls-1" d="m44.4,24.47c-.67,0-1.21.54-1.21,1.21s.54,1.21,1.21,1.21,1.21-.54,1.21-1.21-.54-1.21-1.21-1.21Z"/>
    <path class="cls-1" d="m18.48,24.47h-2.88c-.67,0-1.21.54-1.21,1.21s.54,1.21,1.21,1.21h2.88c.67,0,1.21-.54,1.21-1.21s-.54-1.21-1.21-1.21Z"/>
    <path class="cls-1" d="m30,24.47c-4.64,0-8.41,3.77-8.41,8.41s3.77,8.41,8.41,8.41,8.41-3.77,8.41-8.41c0-4.63-3.78-8.41-8.41-8.41Zm0,14.4c-3.3,0-5.98-2.68-5.98-5.98s2.68-5.98,5.98-5.98,5.98,2.68,5.98,5.98c0,3.3-2.69,5.98-5.98,5.98Z"/>
  </g>
</svg>