<?xml version="1.0" encoding="UTF-8"?>
<svg id="Layer_1" data-name="Layer 1" xmlns="http://www.w3.org/2000/svg" viewBox="0 0 60 60">
  <path class="cls-1" d="m25.66,15.68c.62,0,1.06-.57.92-1.16-.12-.5-.63-.81-1.14-.69-1.07.26-.89,1.85.22,1.85Z"/>
  <path class="cls-1" d="m43.51,18.05c0-3.22-5.94-4.9-11.81-4.9-1.05,0-2.09.05-3.09.16-.51.05-.89.51-.83,1.03s.51.89,1.03.83c3.18-.33,7.26-.14,10.27.96,1.9.69,2.57,1.47,2.57,1.93s-.67,1.23-2.57,1.93c-4.04,1.47-10.69,1.48-14.74,0-1.9-.69-2.57-1.47-2.57-1.93,0-.31.29-.69.82-1.06.42-.3.52-.88.23-1.3-.3-.42-.88-.52-1.3-.23-1.33.94-1.61,1.93-1.61,2.59,0,6.51,23.63,6.53,23.63,0Z"/>
  <path class="cls-1" d="m47.53,40.52v1.33c0,4.16-7.25,7.68-15.83,7.68-6.85,0-12.84-2.24-14.99-5.25-.03-.04-.05-.09-.09-.13-.88-1.31-.76-2.15-.76-3.62,6.38,6.9,25.22,6.94,31.67,0Zm0-16.8c0,2.75-3.25,4.6-2.99,4.42-2.9,1.95-7.63,3.25-12.85,3.25-8.58,0-15.83-3.52-15.83-7.68v-1.33c6.46,6.96,25.24,6.92,31.67,0v1.33Zm-15.83-13.34c8.58,0,15.83,3.52,15.83,7.68s-7.25,7.68-15.83,7.68-15.83-3.52-15.83-7.68,7.25-7.68,15.83-7.68Zm-17.7,13.51c.23,7.5,14.97,11.5,26.21,8.23-2.96,1.65-7.28,2.68-11.91,2.68-10.98,0-19.45-5.71-14.3-10.91Zm-1.53,8.9v-1.33c6.57,7.07,25.39,6.79,31.67,0v1.33c0,4.16-7.25,7.68-15.83,7.68s-15.83-3.52-15.83-7.68h0Zm9.96,17.23c6.76,1.82,8.04,1.61,12.1,1.27,0,0,5.31-.6,9.37-2.46,4.06-1.86,5.51-3.78,5.51-6.97,0-6.23.04-6.04-.12-6.79-.11-.51-.6-.83-1.11-.72-.51.11-.83.6-.72,1.11.95,4.55-6.85,8.41-15.76,8.41-4.63,0-8.95-1.03-11.91-2.68,11.41,3.32,26.22-.84,26.22-8.4v-3.38c2.21-1.62,3.4-3.59,3.4-5.68v-5.67c0-8.68-19.09-12.52-29.99-6.92-3.5,1.79-5.42,4.25-5.42,6.92v3.38c-2.23,1.63-3.4,3.59-3.4,5.68v5.67c0,2.1,1.19,4.07,3.4,5.68,0,3.43-.2,4.53.8,6.27,0,0,.88,3.45,7.64,5.27Z"/>
</svg>