<?xml version="1.0" encoding="utf-8"?>
<!-- Generator: Adobe Illustrator 27.2.0, SVG Export Plug-In . SVG Version: 6.00 Build 0)  -->
<svg version="1.1" xmlns="http://www.w3.org/2000/svg" xmlns:xlink="http://www.w3.org/1999/xlink" x="0px" y="0px"
	 viewBox="0 0 44 44" style="enable-background:new 0 0 44 44;" xml:space="preserve">
<g id="Layer_2">
</g>
<g id="Layer_1">
	<g>
		<path class="st0" d="M23.3,27.1c0.1-0.3,0.2-0.7,0.4-0.9c0.3-0.4,0.8-0.7,1.3-0.7c0.2,0,0.4,0,0.6,0c0.1-0.2,0.2-0.3,0.3-0.5
			c0.5-0.7,1.5-1,2.3-0.6c0.1-0.3,0.3-0.6,0.5-0.9c0.5-0.5,1.4-0.7,2.1-0.4v-5.9c0-1.4-1.1-2.5-2.5-2.5h-0.2V11
			c0-5.4-4.4-9.9-9.9-9.9c-5.4,0-9.9,4.4-9.9,9.9v3.7H8c-1.4,0-2.5,1.1-2.5,2.5v16.6c0,1.4,1.1,2.5,2.5,2.5h13.2
			c-0.2-0.2-0.3-0.4-0.4-0.6c-0.2-0.5-0.2-1,0-1.5c0.1-0.3,0.3-0.5,0.5-0.7c-0.2-0.2-0.4-0.5-0.5-0.8c-0.3-0.8-0.1-1.8,0.6-2.3
			c-0.6-0.6-0.7-1.6-0.3-2.4c0.3-0.6,1-1,1.7-1C23,27.1,23.1,27.1,23.3,27.1z M19.5,24.3c-0.1,0.1-0.1,0.1-0.1,0.3
			c0,0.8,0,1.7,0,2.5c0,0.4-0.2,0.8-0.6,1c-0.2,0.1-0.4,0.1-0.6,0.1c-0.2,0-0.4-0.1-0.6-0.2c-0.3-0.2-0.5-0.6-0.5-1
			c0-0.8,0-1.7,0-2.5c0-0.1,0-0.2-0.1-0.2c-0.8-0.6-1.1-1.6-0.7-2.5c0.4-0.9,1.4-1.4,2.3-1.2c1,0.2,1.7,1,1.7,2
			C20.4,23.3,20.1,23.9,19.5,24.3z M12.4,14.7V11c0-3.2,2.6-5.8,5.8-5.8s5.8,2.6,5.8,5.8v3.7H12.4z"/>
		<path class="st0" d="M37.3,38.7c0.2,0,0.4,0,0.6-0.1c0,0,0.1,0,0.1-0.1c0.1-0.1,0.2-0.2,0.3-0.3c0.2-0.3,0.1-0.7-0.1-0.9
			c-0.1-0.1-0.1-0.1-0.2-0.1l0,0l-1.5-0.9l1.6-0.6c0.1,0,0.1-0.1,0.2-0.1c0.3-0.2,0.4-0.6,0.3-0.9l0,0l0-0.1c0-0.1-0.1-0.2-0.1-0.2
			c0,0-0.1-0.1-0.1-0.1c0,0-0.1-0.1-0.1-0.1c-0.2-0.1-0.3-0.1-0.5-0.1c-0.1,0-0.1,0-0.1,0l-2.7,1.1l-3-1.8l3-1.8l2.7,1.1
			c0.1,0,0.1,0,0.2,0c0.2,0,0.4,0,0.5-0.1c0,0,0.1,0,0.1-0.1c0,0,0.1,0,0.1-0.1c0.1-0.1,0.1-0.2,0.2-0.2c0,0,0-0.1,0-0.1
			c0-0.1,0-0.3,0-0.4c0,0,0,0,0-0.1c0,0,0-0.1-0.1-0.1c-0.1-0.1-0.2-0.3-0.4-0.3l-1.6-0.6l1.5-0.9c0.1,0,0.1-0.1,0.1-0.1
			c0,0,0.1-0.1,0.1-0.1c0,0,0.1-0.1,0.1-0.1c0-0.1,0.1-0.1,0.1-0.2s0-0.2,0-0.2c0-0.1-0.1-0.3-0.1-0.4l0,0c-0.2-0.2-0.4-0.3-0.6-0.3
			l-0.1,0c-0.1,0-0.2,0-0.3,0.1c0,0-0.1,0-0.1,0.1l-1.5,0.9l0.2-1.7c0,0,0-0.1,0-0.1c0-0.1,0-0.2-0.1-0.3l0-0.1
			c-0.1-0.2-0.4-0.4-0.6-0.4c-0.1,0-0.1,0-0.2,0c-0.3,0-0.5,0.2-0.6,0.5c0,0,0,0.1,0,0.1c0,0,0,0.1,0,0.1l-0.3,2.9l-3,1.8v-3.5
			l2.3-1.7c0.1-0.1,0.2-0.2,0.2-0.3c0.1-0.3,0.1-0.6-0.1-0.8c-0.1-0.1-0.1-0.1-0.2-0.2c-0.1,0-0.1-0.1-0.2-0.1c-0.1,0-0.1,0-0.2,0
			c-0.1,0-0.2,0-0.3,0c-0.1,0-0.1,0-0.2,0.1c0,0-0.1,0-0.1,0.1l-1.4,1v-1.7c0-0.1,0-0.2-0.1-0.3c-0.1-0.3-0.4-0.5-0.7-0.5
			c-0.2,0-0.4,0-0.6,0.2c0,0,0,0-0.1,0.1c0,0-0.1,0.1-0.1,0.1c-0.1,0.1-0.1,0.3-0.1,0.4v1.7l-1.4-1c-0.1,0-0.1-0.1-0.2-0.1
			c0,0-0.1,0-0.1,0s-0.1,0-0.1,0c0,0-0.1,0-0.2,0c-0.1,0-0.1,0-0.2,0c-0.1,0-0.2,0.1-0.3,0.2l0,0c0,0.1-0.1,0.1-0.1,0.2
			c-0.1,0.2-0.1,0.4,0,0.6c0,0,0,0.1,0.1,0.1c0,0,0,0,0.1,0.1c0,0,0.1,0.1,0.1,0.1l2.3,1.7V32l-3-1.8l-0.3-2.9c0-0.1,0-0.2-0.1-0.3
			c0-0.1-0.1-0.1-0.1-0.2c0,0,0,0,0-0.1c-0.2-0.2-0.4-0.3-0.6-0.3l-0.1,0c0,0-0.1,0-0.1,0c-0.1,0-0.1,0-0.1,0
			c-0.1,0-0.2,0.1-0.3,0.2c-0.1,0.1-0.1,0.2-0.1,0.2c0,0,0,0.1,0,0.1c0,0.1,0,0.2,0,0.3l0.2,1.7l-1.5-0.9c-0.1-0.1-0.2-0.1-0.2-0.1
			c0,0-0.1,0-0.1,0c-0.1,0-0.3,0-0.4,0.1c-0.2,0.1-0.3,0.2-0.4,0.3c0,0.1-0.1,0.1-0.1,0.2c0,0.1,0,0.2,0,0.2c0,0.3,0.2,0.5,0.4,0.6
			l1.5,0.9l-1.6,0.6c0,0-0.1,0-0.1,0.1c0,0,0,0-0.1,0c-0.1,0.1-0.2,0.2-0.2,0.3c0,0,0,0.1-0.1,0.1c0,0,0,0.1,0,0.1c0,0,0,0,0,0.1
			c0,0.1,0,0.2,0.1,0.3c0.1,0.2,0.2,0.3,0.4,0.4c0,0,0.1,0,0.1,0c0.1,0,0.2,0,0.3,0c0,0,0,0,0.1,0c0,0,0.1,0,0.1,0l2.7-1.1l3,1.8
			l-3,1.8l-2.7-1.1c0,0-0.1,0-0.1,0c-0.2,0-0.5,0-0.6,0.2c0,0-0.1,0-0.1,0.1c0,0,0,0,0,0c-0.1,0.1-0.1,0.1-0.1,0.2c0,0,0,0.1,0,0.2
			c0,0.1,0,0.1,0,0.2c0,0.1,0,0.2,0.1,0.3l0,0.1c0.1,0.2,0.2,0.3,0.4,0.3l1.6,0.6l-1.5,0.9c-0.4,0.3-0.5,0.7-0.3,1.1
			c0.1,0.2,0.3,0.3,0.5,0.4c0,0,0.1,0,0.1,0l0.1,0c0.1,0,0.3,0,0.4-0.1l1.5-0.9l-0.2,1.7c0,0.1,0,0.1,0,0.2s0,0.1,0,0.2
			c0,0.1,0.1,0.2,0.2,0.3c0,0,0.1,0.1,0.1,0.1c0.1,0.1,0.3,0.2,0.4,0.2c0.1,0,0.1,0,0.2,0c0,0,0.1,0,0.1,0c0,0,0.1,0,0.1-0.1
			c0,0,0.1-0.1,0.1-0.1l0.1-0.1c0,0,0.1-0.1,0.1-0.1c0,0,0-0.1,0.1-0.1c0-0.1,0-0.1,0.1-0.2l0.3-2.9l3-1.8v3.5L27,40.1
			c-0.1,0-0.1,0.1-0.2,0.2c0,0,0,0,0,0.1c0,0,0,0.1,0,0.1c-0.1,0.3-0.1,0.6,0.1,0.8c0,0,0.1,0.1,0.1,0.1c0.3,0.2,0.7,0.2,0.9,0.1
			c0,0,0,0,0.1,0l1.4-1V42c0,0.3,0.2,0.6,0.4,0.7c0,0,0,0,0.1,0c0.1,0,0.2,0.1,0.3,0.1c0.4,0,0.7-0.3,0.8-0.6c0-0.1,0-0.1,0-0.2
			v-1.7l1.4,1c0.1,0,0.1,0.1,0.2,0.1c0.3,0.1,0.7,0.1,0.9-0.2c0,0,0,0,0.1-0.1c0.1-0.1,0.1-0.2,0.2-0.4c0-0.1,0-0.3,0-0.4
			c0,0,0-0.1-0.1-0.1c0,0,0-0.1-0.1-0.1c0,0-0.1-0.1-0.1-0.1c0,0,0,0-0.1-0.1l-2.3-1.7v-3.5l3,1.8l0.3,2.9c0,0.2,0.1,0.4,0.3,0.5
			c0,0,0.1,0.1,0.1,0.1c0.1,0.1,0.3,0.1,0.4,0.1l0.1,0c0.1,0,0.3-0.1,0.4-0.1c0,0,0.1-0.1,0.1-0.1c0.2-0.2,0.3-0.4,0.2-0.6l-0.2-1.7
			l1.6,0.9C37.2,38.6,37.3,38.6,37.3,38.7z"/>
	</g>
</g>
</svg>
