<?xml version="1.0" encoding="utf-8"?>
<!-- Generator: Adobe Illustrator 27.2.0, SVG Export Plug-In . SVG Version: 6.00 Build 0)  -->
<svg version="1.1" xmlns="http://www.w3.org/2000/svg" xmlns:xlink="http://www.w3.org/1999/xlink" x="0px" y="0px"
	 viewBox="0 0 44 44" style="enable-background:new 0 0 44 44;" xml:space="preserve">
<style type="text/css">
	.st0{fill:#333232;}
	.st1{opacity:0.7;}
	.st2{fill:#A2D5DD;stroke:#333232;stroke-width:0.4541;stroke-linecap:round;stroke-linejoin:round;stroke-miterlimit:10;}
	.st3{fill:#A2D5DD;stroke:#333232;stroke-width:0.7809;stroke-linecap:round;stroke-linejoin:round;stroke-miterlimit:10;}
	.st4{opacity:0.7;fill:#A2D5DD;}
	.st5{fill:#A2D5DD;}
	.st6{fill:#8D8A8D;}
	.st7{fill:#9ED8DD;}
	.st8{fill:#81D0E0;}
	.st9{fill:#658BC8;}
	.st10{fill:#5574B8;}
	.st11{fill:#FDDE57;}
	.st12{fill:#FACE46;}
	.st13{fill:#FAD4CB;}
	.st14{fill:#F8AEAA;}
	.st15{fill:#FEF3F1;}
	.st16{fill:#4070B5;}
	.st17{fill:#FBE59D;}
	.st18{fill:#F8E077;}
	.st19{fill:#F59087;}
	.st20{fill:#F37A73;}
	.st21{fill:#F06655;}
	.st22{fill:#EA563E;}
	.st23{fill:#F1673C;}
	.st24{fill:#FFFFFF;}
	.st25{fill:#FFD451;}
	.st26{fill:#F6BE19;}
	.st27{fill:#C98151;}
	.st28{fill:#A46B45;}
	.st29{fill:#D1D4D1;}
	.st30{fill:#EDEFEF;}
	.st31{fill:#2981BB;}
	.st32{fill:#69B8CC;}
	.st33{fill:#EEC21B;}
	.st34{fill:#37495E;}
	.st35{fill:#F09B24;}
	.st36{fill:#747578;}
	.st37{fill:#4F5052;}
	.st38{fill:#37383D;}
	.st39{fill:#F9C515;}
	.st40{fill:#D0A42B;}
	.st41{fill:#FFE8B7;}
	.st42{fill:#008082;}
	.st43{fill:#3DC0C3;}
	.st44{fill:#5CC6C9;}
	.st45{fill:#02AAAD;}
	.st46{fill:#DE8026;}
	.st47{fill:#F7912A;}
	.st48{fill:#D08C2A;}
	.st49{fill:#C77629;}
	.st50{fill:#D9D8D7;}
	.st51{fill:#B77D2B;}
	.st52{fill:#FBB441;}
	.st53{fill:#EB9D2B;}
	.st54{fill:#FAEBBE;}
	.st55{fill:#90583D;}
	.st56{fill:#5B3828;}
	.st57{fill:#EAEAEA;}
	.st58{fill:#CECCCB;}
	.st59{fill:#3976A5;}
	.st60{fill:#428EC6;}
	.st61{fill:#F69E1F;}
	.st62{fill:#FABE17;}
	.st63{fill:#FFCD5A;}
	.st64{fill:#70BF44;}
	.st65{fill:#8BC865;}
	.st66{fill:#9BCD7D;}
	.st67{fill:#F8D072;}
	.st68{fill:#DF4A2A;}
	.st69{fill:#F06438;}
	.st70{fill:#F68E69;}
	.st71{fill:#BABAC0;}
	.st72{fill:#8A8896;}
	.st73{fill:#6BCEEF;}
	.st74{fill:#5E566C;}
	.st75{fill:#FFCE86;}
	.st76{fill:#DA8656;}
	.st77{fill:#FCC067;}
	.st78{fill:#FDCD80;}
	.st79{fill:#EDB860;}
	.st80{fill:#93CEA0;}
	.st81{fill:#7AC1A4;}
	.st82{fill:#7C6F7B;}
	.st83{fill:#695F6A;}
	.st84{fill:#F4A96D;}
	.st85{fill:#EB9B59;}
	.st86{fill:#C4A098;}
	.st87{fill:#A2847E;}
	.st88{fill:#EF6224;}
	.st89{fill:#F9A051;}
	.st90{fill:#972D24;}
	.st91{fill:#F04C42;}
	.st92{fill:#737D80;}
	.st93{fill:#F89F1E;}
	.st94{fill:#7C659B;}
	.st95{fill:#9C83BD;}
	.st96{fill:#669E8F;}
	.st97{fill:#88CEBF;}
	.st98{fill:url(#SVGID_1_);}
	.st99{fill-rule:evenodd;clip-rule:evenodd;fill:#F16571;}
	.st100{fill-rule:evenodd;clip-rule:evenodd;fill:#EE4C59;}
	.st101{fill-rule:evenodd;clip-rule:evenodd;fill:#ECEEEF;}
	.st102{fill-rule:evenodd;clip-rule:evenodd;fill:#837682;}
	.st103{fill:#ECEEEF;}
	.st104{fill:#FFF1EA;}
	.st105{fill-rule:evenodd;clip-rule:evenodd;fill:#F05F25;}
	.st106{fill-rule:evenodd;clip-rule:evenodd;fill:#F48456;}
	.st107{fill:#FCCBB7;}
	.st108{fill:#91C5EB;}
	.st109{fill:#74B2E2;}
	.st110{fill:#C96F36;}
	.st111{fill:#8C9AA7;}
	.st112{fill:#9FACBB;}
	.st113{fill:#E74343;}
	.st114{fill-rule:evenodd;clip-rule:evenodd;fill:#066C96;}
	.st115{fill-rule:evenodd;clip-rule:evenodd;fill:#FFF1EA;}
	.st116{fill:#A19B9C;}
	.st117{fill:#010101;}
	.st118{fill:#6BBFC9;}
	.st119{fill:#6D6E71;stroke:#D23C31;stroke-width:2;stroke-miterlimit:10;}
	.st120{fill:none;stroke:#6BBFC9;stroke-width:1.5121;stroke-miterlimit:10;}
	.st121{fill:none;stroke:#D23C31;stroke-width:1.0424;stroke-miterlimit:10;}
	.st122{opacity:0.75;}
	.st123{fill:none;stroke:#6BBFC9;stroke-width:1.0424;stroke-miterlimit:10;}
</style>
<g id="Layer_2">
</g>
<g id="Layer_1">
	<g>
		<path class="st0" d="M23.3,27.1c0.1-0.3,0.2-0.7,0.4-0.9c0.3-0.4,0.8-0.7,1.3-0.7c0.2,0,0.4,0,0.6,0c0.1-0.2,0.2-0.3,0.3-0.5
			c0.5-0.7,1.5-1,2.3-0.6c0.1-0.3,0.3-0.6,0.5-0.9c0.5-0.5,1.4-0.7,2.1-0.4v-5.9c0-1.4-1.1-2.5-2.5-2.5h-0.2V11
			c0-5.4-4.4-9.9-9.9-9.9c-5.4,0-9.9,4.4-9.9,9.9v3.7H8c-1.4,0-2.5,1.1-2.5,2.5v16.6c0,1.4,1.1,2.5,2.5,2.5h13.2
			c-0.2-0.2-0.3-0.4-0.4-0.6c-0.2-0.5-0.2-1,0-1.5c0.1-0.3,0.3-0.5,0.5-0.7c-0.2-0.2-0.4-0.5-0.5-0.8c-0.3-0.8-0.1-1.8,0.6-2.3
			c-0.6-0.6-0.7-1.6-0.3-2.4c0.3-0.6,1-1,1.7-1C23,27.1,23.1,27.1,23.3,27.1z M19.5,24.3c-0.1,0.1-0.1,0.1-0.1,0.3
			c0,0.8,0,1.7,0,2.5c0,0.4-0.2,0.8-0.6,1c-0.2,0.1-0.4,0.1-0.6,0.1c-0.2,0-0.4-0.1-0.6-0.2c-0.3-0.2-0.5-0.6-0.5-1
			c0-0.8,0-1.7,0-2.5c0-0.1,0-0.2-0.1-0.2c-0.8-0.6-1.1-1.6-0.7-2.5c0.4-0.9,1.4-1.4,2.3-1.2c1,0.2,1.7,1,1.7,2
			C20.4,23.3,20.1,23.9,19.5,24.3z M12.4,14.7V11c0-3.2,2.6-5.8,5.8-5.8s5.8,2.6,5.8,5.8v3.7H12.4z"/>
		<path class="st0" d="M37.3,38.7c0.2,0,0.4,0,0.6-0.1c0,0,0.1,0,0.1-0.1c0.1-0.1,0.2-0.2,0.3-0.3c0.2-0.3,0.1-0.7-0.1-0.9
			c-0.1-0.1-0.1-0.1-0.2-0.1l0,0l-1.5-0.9l1.6-0.6c0.1,0,0.1-0.1,0.2-0.1c0.3-0.2,0.4-0.6,0.3-0.9l0,0l0-0.1c0-0.1-0.1-0.2-0.1-0.2
			c0,0-0.1-0.1-0.1-0.1c0,0-0.1-0.1-0.1-0.1c-0.2-0.1-0.3-0.1-0.5-0.1c-0.1,0-0.1,0-0.1,0l-2.7,1.1l-3-1.8l3-1.8l2.7,1.1
			c0.1,0,0.1,0,0.2,0c0.2,0,0.4,0,0.5-0.1c0,0,0.1,0,0.1-0.1c0,0,0.1,0,0.1-0.1c0.1-0.1,0.1-0.2,0.2-0.2c0,0,0-0.1,0-0.1
			c0-0.1,0-0.3,0-0.4c0,0,0,0,0-0.1c0,0,0-0.1-0.1-0.1c-0.1-0.1-0.2-0.3-0.4-0.3l-1.6-0.6l1.5-0.9c0.1,0,0.1-0.1,0.1-0.1
			c0,0,0.1-0.1,0.1-0.1c0,0,0.1-0.1,0.1-0.1c0-0.1,0.1-0.1,0.1-0.2s0-0.2,0-0.2c0-0.1-0.1-0.3-0.1-0.4l0,0c-0.2-0.2-0.4-0.3-0.6-0.3
			l-0.1,0c-0.1,0-0.2,0-0.3,0.1c0,0-0.1,0-0.1,0.1l-1.5,0.9l0.2-1.7c0,0,0-0.1,0-0.1c0-0.1,0-0.2-0.1-0.3l0-0.1
			c-0.1-0.2-0.4-0.4-0.6-0.4c-0.1,0-0.1,0-0.2,0c-0.3,0-0.5,0.2-0.6,0.5c0,0,0,0.1,0,0.1c0,0,0,0.1,0,0.1l-0.3,2.9l-3,1.8v-3.5
			l2.3-1.7c0.1-0.1,0.2-0.2,0.2-0.3c0.1-0.3,0.1-0.6-0.1-0.8c-0.1-0.1-0.1-0.1-0.2-0.2c-0.1,0-0.1-0.1-0.2-0.1c-0.1,0-0.1,0-0.2,0
			c-0.1,0-0.2,0-0.3,0c-0.1,0-0.1,0-0.2,0.1c0,0-0.1,0-0.1,0.1l-1.4,1v-1.7c0-0.1,0-0.2-0.1-0.3c-0.1-0.3-0.4-0.5-0.7-0.5
			c-0.2,0-0.4,0-0.6,0.2c0,0,0,0-0.1,0.1c0,0-0.1,0.1-0.1,0.1c-0.1,0.1-0.1,0.3-0.1,0.4v1.7l-1.4-1c-0.1,0-0.1-0.1-0.2-0.1
			c0,0-0.1,0-0.1,0s-0.1,0-0.1,0c0,0-0.1,0-0.2,0c-0.1,0-0.1,0-0.2,0c-0.1,0-0.2,0.1-0.3,0.2l0,0c0,0.1-0.1,0.1-0.1,0.2
			c-0.1,0.2-0.1,0.4,0,0.6c0,0,0,0.1,0.1,0.1c0,0,0,0,0.1,0.1c0,0,0.1,0.1,0.1,0.1l2.3,1.7V32l-3-1.8l-0.3-2.9c0-0.1,0-0.2-0.1-0.3
			c0-0.1-0.1-0.1-0.1-0.2c0,0,0,0,0-0.1c-0.2-0.2-0.4-0.3-0.6-0.3l-0.1,0c0,0-0.1,0-0.1,0c-0.1,0-0.1,0-0.1,0
			c-0.1,0-0.2,0.1-0.3,0.2c-0.1,0.1-0.1,0.2-0.1,0.2c0,0,0,0.1,0,0.1c0,0.1,0,0.2,0,0.3l0.2,1.7l-1.5-0.9c-0.1-0.1-0.2-0.1-0.2-0.1
			c0,0-0.1,0-0.1,0c-0.1,0-0.3,0-0.4,0.1c-0.2,0.1-0.3,0.2-0.4,0.3c0,0.1-0.1,0.1-0.1,0.2c0,0.1,0,0.2,0,0.2c0,0.3,0.2,0.5,0.4,0.6
			l1.5,0.9l-1.6,0.6c0,0-0.1,0-0.1,0.1c0,0,0,0-0.1,0c-0.1,0.1-0.2,0.2-0.2,0.3c0,0,0,0.1-0.1,0.1c0,0,0,0.1,0,0.1c0,0,0,0,0,0.1
			c0,0.1,0,0.2,0.1,0.3c0.1,0.2,0.2,0.3,0.4,0.4c0,0,0.1,0,0.1,0c0.1,0,0.2,0,0.3,0c0,0,0,0,0.1,0c0,0,0.1,0,0.1,0l2.7-1.1l3,1.8
			l-3,1.8l-2.7-1.1c0,0-0.1,0-0.1,0c-0.2,0-0.5,0-0.6,0.2c0,0-0.1,0-0.1,0.1c0,0,0,0,0,0c-0.1,0.1-0.1,0.1-0.1,0.2c0,0,0,0.1,0,0.2
			c0,0.1,0,0.1,0,0.2c0,0.1,0,0.2,0.1,0.3l0,0.1c0.1,0.2,0.2,0.3,0.4,0.3l1.6,0.6l-1.5,0.9c-0.4,0.3-0.5,0.7-0.3,1.1
			c0.1,0.2,0.3,0.3,0.5,0.4c0,0,0.1,0,0.1,0l0.1,0c0.1,0,0.3,0,0.4-0.1l1.5-0.9l-0.2,1.7c0,0.1,0,0.1,0,0.2s0,0.1,0,0.2
			c0,0.1,0.1,0.2,0.2,0.3c0,0,0.1,0.1,0.1,0.1c0.1,0.1,0.3,0.2,0.4,0.2c0.1,0,0.1,0,0.2,0c0,0,0.1,0,0.1,0c0,0,0.1,0,0.1-0.1
			c0,0,0.1-0.1,0.1-0.1l0.1-0.1c0,0,0.1-0.1,0.1-0.1c0,0,0-0.1,0.1-0.1c0-0.1,0-0.1,0.1-0.2l0.3-2.9l3-1.8v3.5L27,40.1
			c-0.1,0-0.1,0.1-0.2,0.2c0,0,0,0,0,0.1c0,0,0,0.1,0,0.1c-0.1,0.3-0.1,0.6,0.1,0.8c0,0,0.1,0.1,0.1,0.1c0.3,0.2,0.7,0.2,0.9,0.1
			c0,0,0,0,0.1,0l1.4-1V42c0,0.3,0.2,0.6,0.4,0.7c0,0,0,0,0.1,0c0.1,0,0.2,0.1,0.3,0.1c0.4,0,0.7-0.3,0.8-0.6c0-0.1,0-0.1,0-0.2
			v-1.7l1.4,1c0.1,0,0.1,0.1,0.2,0.1c0.3,0.1,0.7,0.1,0.9-0.2c0,0,0,0,0.1-0.1c0.1-0.1,0.1-0.2,0.2-0.4c0-0.1,0-0.3,0-0.4
			c0,0,0-0.1-0.1-0.1c0,0,0-0.1-0.1-0.1c0,0-0.1-0.1-0.1-0.1c0,0,0,0-0.1-0.1l-2.3-1.7v-3.5l3,1.8l0.3,2.9c0,0.2,0.1,0.4,0.3,0.5
			c0,0,0.1,0.1,0.1,0.1c0.1,0.1,0.3,0.1,0.4,0.1l0.1,0c0.1,0,0.3-0.1,0.4-0.1c0,0,0.1-0.1,0.1-0.1c0.2-0.2,0.3-0.4,0.2-0.6l-0.2-1.7
			l1.6,0.9C37.2,38.6,37.3,38.6,37.3,38.7z"/>
	</g>
</g>
</svg>
