<?xml version="1.0" encoding="utf-8"?>
<!-- Generator: Adobe Illustrator 27.2.0, SVG Export Plug-In . SVG Version: 6.00 Build 0)  -->
<svg version="1.1" id="Layer_1" xmlns="http://www.w3.org/2000/svg" xmlns:xlink="http://www.w3.org/1999/xlink" x="0px" y="0px"
	 viewBox="0 0 340.1 374.7" style="enable-background:new 0 0 340.1 374.7;" xml:space="preserve" fill="currentColor">
<g>
	<path class="st0" d="M160.4,298.2c-1.6-3.9-1.5-8.2,0.1-12.1c1.2-2.8,3.2-5.2,5.6-6.9c-2.6-1.8-4.6-4.3-5.8-7.3
		c-2.8-7.3,0.1-15.4,6.7-19.3c-6-4.8-7.8-13.3-3.9-20.2c2.8-4.9,8.1-8,13.7-8c2.1,0,4.3,0.4,6.2,1.3c0.1-3.4,1.3-6.6,3.5-9.3
		c2.7-3.3,6.4-5.3,10.6-5.7c0.5-0.1,1.1-0.1,1.6-0.1c1.5,0,2.9,0.2,4.3,0.6c0.5-1.9,1.4-3.7,2.6-5.3c3-4,7.7-6.3,12.6-6.3
		c2.7,0,5.3,0.7,7.6,1.9c0.5-3.4,2-6.5,4.5-8.9c3-3,6.9-4.6,11.2-4.6c2.9,0,5.5,0.8,7.9,2.1v-36.4c0-12.9-10.4-23.4-23.4-23.4h-0.6
		V99.7c0-48.8-39.6-88.4-88.4-88.4c-48.8,0-88.4,39.7-88.4,88.4v30.7h-2c-12.9,0-23.4,10.4-23.4,23.4v128.6
		c0,12.9,10.4,23.4,23.4,23.4h120.1C163.9,304,161.7,301.4,160.4,298.2z M87.3,99.7C87.3,72.3,109.7,50,137,50
		c27.4,0,49.7,22.3,49.7,49.7v30.7H87.3V99.7z M147.2,214.9c-1.4,1-1.8,2-1.8,3.6c0,7.3,0,14.6,0,21.9c0.1,3-1.4,6-4.1,7.4
		c-6.4,3.2-12.8-1.3-12.8-7.3v0c0-7.3,0-14.6,0-22c0-1.5-0.3-2.5-1.6-3.4c-6.6-4.9-8.8-13.2-5.5-20.5c3.2-7.1,11-11.3,18.5-9.8
		c8.2,1.7,14,8.3,14,16.5C154.1,206.9,151.8,211.6,147.2,214.9z"/>
	<path class="st0" d="M310.6,310.8l-6.8-4.1l-3.4-2l4.4-1.8l6.6-2.7c0.8-0.3,1.6-0.8,2.2-1.3c2.8-2.3,3.9-6.3,2.5-9.9c0,0,0,0,0,0
		c0,0,0,0,0,0c-0.4-1-1-1.9-1.7-2.7c-0.3-0.3-0.6-0.6-0.9-0.8c-0.5-0.4-1-0.7-1.6-1c-1.1-0.5-2.4-0.8-3.7-0.8
		c-0.6,0-1.1,0.1-1.6,0.2c-0.5,0.1-1.1,0.3-1.6,0.5l-7.4,3l-4.7,1.9l-10.8,4.4l-23.9-14.4l8-4.8l15.9-9.6l10.8,4.4l4.7,1.9l1.1,0.4
		l6.4,2.6c0.6,0.3,1.3,0.4,2,0.5c0.4,0.1,0.8,0.1,1.2,0.1c1.5,0,2.9-0.4,4.2-1.1c0.4-0.2,0.7-0.4,1-0.7s0.6-0.5,0.9-0.8
		c0.7-0.7,1.3-1.6,1.7-2.6c0.2-0.5,0.4-1.1,0.5-1.6c0.3-1.4,0.2-2.8-0.2-4.1c-0.1-0.3-0.2-0.5-0.3-0.8c-0.2-0.4-0.4-0.8-0.6-1.1
		c-0.9-1.6-2.3-2.8-4-3.5l-7.4-3l-3.7-1.5l5.1-3l5.1-3c0.1-0.1,0.2-0.1,0.3-0.2c0.4-0.2,0.7-0.5,1-0.8c0.3-0.3,0.6-0.6,0.9-0.9
		c0.4-0.4,0.7-0.9,1-1.4c0.4-0.7,0.7-1.5,0.9-2.4c0.2-0.8,0.3-1.7,0.2-2.5c-0.1-1.4-0.5-2.7-1.3-3.9c-0.1-0.2-0.2-0.3-0.3-0.5
		c-1.6-2.2-4.2-3.5-6.9-3.5c-0.2,0-0.4,0-0.6,0c-1,0.1-2,0.3-2.9,0.7c-0.4,0.2-0.7,0.4-1.1,0.6l-4.2,2.5l-0.1,0.1l-4.6,2.8l-1.2,0.7
		l0.7-6.7l0.3-2.5l0.3-2.5c0-0.5,0-1,0-1.4c-0.1-0.9-0.3-1.9-0.6-2.7c0-0.1-0.1-0.2-0.2-0.3c-0.1-0.1-0.1-0.3-0.2-0.4
		c-1.3-2.4-3.7-4.1-6.5-4.4c-0.3,0-0.7-0.1-1-0.1c-0.3,0-0.5,0-0.8,0c-3,0.3-5.7,2.2-6.9,4.9c-0.2,0.4-0.3,0.7-0.4,1.1
		c-0.2,0.5-0.3,1-0.3,1.6l-0.4,4.3l-1.2,12.1l-0.8,8.2l-4.6,2.8l-18.5,11.1v0l0,0v-27l9.7-7.3l3.5-2.6l5.8-4.3l0.8-0.6
		c1.2-0.9,2.1-2,2.6-3.3c1.3-2.8,1-6.1-0.9-8.7c-0.6-0.8-1.3-1.5-2.2-2c-0.6-0.4-1.1-0.7-1.8-0.9c-0.6-0.2-1.3-0.4-1.9-0.5
		c-0.3,0-0.7-0.1-1-0.1c-0.7,0-1.4,0.1-2.1,0.2c-0.7,0.2-1.3,0.4-1.9,0.7c-0.4,0.2-0.8,0.5-1.2,0.7l-9.5,7.1v0v-11.9
		c0-1.2-0.3-2.4-0.7-3.4v0c-1.2-2.8-4-4.9-7.2-5.1c-0.2,0-0.4,0-0.7,0c-2,0-3.9,0.7-5.4,1.9c-0.2,0.2-0.4,0.4-0.6,0.6
		c-0.4,0.4-0.8,0.8-1.1,1.3c-0.9,1.4-1.4,3-1.4,4.8v11.9l-9.5-7.1c0,0,0,0,0,0c0,0,0,0,0,0c0,0,0,0,0,0c0,0,0,0,0,0
		c-0.6-0.4-1.2-0.8-1.8-1c-0.4-0.2-0.9-0.3-1.3-0.4c-0.4-0.1-0.9-0.2-1.4-0.2c-0.2,0-0.5,0-0.7,0c-0.3,0-0.7,0-1,0.1
		c-0.7,0.1-1.3,0.2-1.9,0.5c-1.4,0.5-2.6,1.4-3.6,2.5c-0.1,0.1-0.2,0.2-0.3,0.4c-0.5,0.7-0.9,1.5-1.2,2.3c-0.8,2.1-0.6,4.4,0.3,6.5
		c0.2,0.5,0.5,1,0.8,1.4c0.2,0.2,0.3,0.4,0.5,0.7c0.4,0.4,0.8,0.8,1.3,1.2l0.8,0.6l9.3,7l9.7,7.2v27v0l-8.3-5l-14.9-8.9l-2.1-20.3
		l-0.4-4.3c-0.1-1-0.4-1.9-0.7-2.7c-0.3-0.6-0.6-1.2-1-1.7c-0.2-0.2-0.3-0.4-0.5-0.6c-1.6-1.7-3.8-2.7-6.3-2.7c-0.1,0-0.3,0-0.4,0
		c-0.1,0-0.3,0-0.4,0c-0.3,0-0.6,0.1-0.8,0.1c-0.6,0.1-1.1,0.3-1.6,0.5c-1.2,0.5-2.2,1.2-3,2.2c-0.1,0.1-0.2,0.2-0.3,0.3
		c-0.5,0.7-1,1.4-1.3,2.2c-0.1,0.3-0.2,0.5-0.3,0.8c-0.3,1.1-0.4,2.2-0.3,3.3l0.3,2.5l1,9.3l-10.2-6.1c-0.1-0.1-0.2-0.1-0.3-0.2
		c-0.7-0.4-1.3-0.7-2.1-0.8c-0.3-0.1-0.6-0.1-0.9-0.2c-0.4-0.1-0.9-0.1-1.3-0.1c-1.2,0-2.3,0.2-3.3,0.7c-1.7,0.7-3.2,2-4.1,3.7
		c-0.4,0.8-0.7,1.6-0.9,2.4c-0.2,0.8-0.2,1.7-0.2,2.5c0.2,2.7,1.7,5.3,4.3,6.8l5.6,3.3l4.6,2.7l-3.7,1.5l-0.9,0.4l-6.4,2.6
		c-0.5,0.2-0.9,0.4-1.3,0.7c-0.2,0.1-0.4,0.3-0.6,0.4c-1,0.7-1.7,1.7-2.3,2.7c-0.3,0.5-0.5,1-0.6,1.5c-0.2,0.5-0.3,1-0.3,1.6
		c0,0.3,0,0.5-0.1,0.8c0,1.1,0.2,2.2,0.6,3.3c0.8,2,2.3,3.7,4.3,4.6c0.4,0.2,0.8,0.3,1.2,0.5c0.8,0.3,1.7,0.4,2.6,0.4
		c0.3,0,0.5,0,0.8,0c0.3,0,0.5-0.1,0.8-0.1c0.5-0.1,1-0.2,1.5-0.4v0l11.5-4.7l10.4-4.2l1-0.4l23.9,14.4l-9.6,5.7l-14.3,8.6l-1-0.4
		l-21.9-8.9c0,0,0,0,0,0c-0.5-0.2-1-0.3-1.5-0.4c-0.5-0.1-1-0.1-1.6-0.1c-1.9,0-3.8,0.6-5.2,1.8c-0.3,0.3-0.6,0.5-0.9,0.8
		c-0.1,0.1-0.3,0.3-0.4,0.5c-0.5,0.6-1,1.4-1.3,2.2c-0.2,0.5-0.4,1.1-0.5,1.6c-0.1,0.5-0.2,1.1-0.2,1.7c0,1.1,0.2,2.2,0.6,3.3
		c0.1,0.2,0.2,0.4,0.2,0.5c0.1,0.2,0.2,0.3,0.3,0.5c0.9,1.6,2.3,2.9,4.1,3.6l6.5,2.6v0l4.6,1.9l-1.8,1.1l-2.8,1.7l-5.6,3.3
		c-0.1,0.1-0.2,0.1-0.3,0.2c-4,2.5-5.2,7.8-2.7,11.8c1.3,2,3.3,3.4,5.6,3.8c0.4,0.1,0.7,0.1,1.1,0.1c0.2,0,0.4,0,0.6,0
		c1.6,0,3.2-0.5,4.5-1.3l4.5-2.7l5.6-3.4l-0.3,3.4l-0.3,2.5l-0.6,5.9c0,0.1,0,0.2,0,0.2c0,0.6,0,1.1,0,1.7c0.1,0.6,0.2,1.1,0.3,1.6
		c0.3,1.1,0.9,2.1,1.6,2.9c0.4,0.4,0.8,0.8,1.2,1.2c1.3,1.1,2.9,1.7,4.6,1.8c0.2,0,0.5,0,0.7,0c0.6,0,1.1-0.1,1.6-0.2
		c0.5-0.1,1-0.3,1.5-0.5c0.5-0.2,1-0.4,1.4-0.7c0.4-0.3,0.9-0.6,1.2-0.9c0.2-0.2,0.4-0.4,0.6-0.6c0.4-0.4,0.7-0.8,0.9-1.2
		c0.3-0.4,0.5-0.9,0.7-1.4c0.3-0.7,0.5-1.5,0.6-2.4l0.2-1.5l0.9-8.6l0.2-2.2l1.3-12.3l4.3-2.6l18.8-11.3v10.3v16.7l-1.8,1.3
		l-11.5,8.6l-6.5,4.9c-0.7,0.5-1.3,1.2-1.8,1.8c-0.2,0.2-0.3,0.5-0.5,0.7c-0.2,0.3-0.4,0.7-0.5,1c-1.1,2.7-0.8,5.9,1.1,8.4
		c0.4,0.5,0.9,1,1.4,1.4c1.5,1.3,3.5,2,5.5,2c1.6,0,3.2-0.5,4.6-1.3c0.2-0.1,0.4-0.3,0.6-0.4l2.4-1.8l7.1-5.3v0v11.9
		c0,3.3,1.8,6.1,4.5,7.5c0.2,0.1,0.5,0.3,0.7,0.4c1,0.4,2.2,0.7,3.3,0.7c4.1,0,7.6-2.9,8.4-6.8c0.1-0.6,0.2-1.1,0.2-1.7v-11.9
		l9.5,7.1c0.6,0.4,1.2,0.8,1.8,1c1.1,0.4,2.2,0.7,3.3,0.7c2.4,0,4.6-1,6.2-2.7c0.2-0.2,0.4-0.5,0.6-0.8c0.9-1.2,1.4-2.5,1.6-3.9
		c0.2-1.4,0.1-2.8-0.4-4.1c-0.2-0.5-0.4-1-0.7-1.5c-0.2-0.3-0.4-0.7-0.7-1c-0.3-0.3-0.6-0.7-0.9-1c0,0-0.1-0.1-0.1-0.1
		c-0.2-0.2-0.3-0.3-0.5-0.4l-6.5-4.9l-11.5-8.6l-1.8-1.3v-27l23.1,13.9l1.5,14.4l0.9,8.6l0.2,1.5c0.3,2.2,1.3,4.1,2.8,5.4
		c0.4,0.3,0.8,0.6,1.2,0.9c1.3,0.8,2.8,1.3,4.5,1.3c0.1,0,0.2,0,0.3,0c0.1,0,0.3,0,0.4,0c1.5-0.1,2.8-0.6,4-1.4
		c0.5-0.3,0.9-0.7,1.3-1c1.8-1.7,2.8-4.2,2.5-6.9l0,0l-0.9-8.4l-0.3-3.4l1.2,0.7l4.4,2.7l4.5,2.7c0.1,0,0.2,0.1,0.2,0.1
		c0,0,0,0,0.1,0c0.2,0.1,0.3,0.2,0.5,0.3c0.2,0.1,0.3,0.2,0.5,0.2c0.3,0.1,0.7,0.3,1.1,0.4c0.7,0.2,1.5,0.3,2.2,0.3
		c1.3,0,2.6-0.3,3.8-0.9c0.3-0.2,0.7-0.4,1-0.6c1.1-0.7,2-1.7,2.7-2.9c1.9-3.3,1.3-7.4-1.2-10.1
		C312.1,311.8,311.4,311.3,310.6,310.8z"/>
</g>
</svg>
