<svg width="20" height="20" viewBox="0 0 30 30" fill="none" xmlns="http://www.w3.org/2000/svg">
<rect x="2" y="2" width="5" height="5" rx="1" fill="white"/>
<rect x="2" y="9" width="5" height="5" rx="1" fill="white"/>
<rect x="2" y="16" width="5" height="5" rx="1" fill="white"/>
<rect x="2" y="23" width="5" height="5" rx="1" fill="white"/>
<rect x="9" y="2" width="5" height="5" rx="1" fill="white"/>
<rect x="9" y="9" width="5" height="5" rx="1" fill="white"/>
<rect x="9" y="16" width="5" height="5" rx="1" fill="white"/>
<rect x="9" y="23" width="5" height="5" rx="1" fill="white"/>
<rect x="16" y="2" width="5" height="5" rx="1" fill="white"/>
<rect x="16" y="9" width="5" height="5" rx="1" fill="white"/>
<rect x="16" y="16" width="5" height="5" rx="1" fill="white"/>
<rect x="16" y="23" width="5" height="5" rx="1" fill="white"/>
<rect x="23" y="2" width="5" height="5" rx="1" fill="white"/>
<rect x="23" y="9" width="5" height="5" rx="1" fill="white"/>
<rect x="23" y="16" width="5" height="5" rx="1" fill="white"/>
<rect x="23" y="23" width="5" height="5" rx="1" fill="white"/>
</svg>
